<svg width="1305" height="370" viewBox="0 0 1305 370" fill="none" xmlns="http://www.w3.org/2000/svg">
<rect width="1305" height="370" fill="#222222"/>
<circle cx="1080" cy="185" r="125" fill="#E3B27D"/>
<path d="M1073.19 231.948C1072.87 231.623 1072.84 231.112 1073.11 230.756L1073.19 230.663L1086.05 217.807C1086.4 217.452 1086.98 217.452 1087.34 217.807C1087.66 218.132 1087.69 218.643 1087.42 218.999L1087.34 219.092L1074.48 231.948C1074.12 232.304 1073.55 232.304 1073.19 231.948Z" fill="white" stroke="white"/>
<path d="M1076.35 219.38C1075.84 219.381 1075.44 218.975 1075.43 218.473C1075.43 218.017 1075.77 217.638 1076.21 217.572L1076.34 217.562L1086.69 217.54C1087.15 217.539 1087.53 217.876 1087.59 218.316L1087.6 218.451L1087.58 228.8C1087.58 229.302 1087.17 229.708 1086.67 229.707C1086.21 229.706 1085.84 229.369 1085.77 228.931L1085.76 228.796L1085.78 219.36L1076.35 219.38Z" fill="white" stroke="white"/>
<path d="M992.752 192.192C991.899 192.192 991.109 192.037 990.384 191.728C989.669 191.419 989.04 190.987 988.496 190.432C987.963 189.877 987.547 189.227 987.248 188.48C986.949 187.733 986.8 186.917 986.8 186.032C986.8 185.147 986.944 184.331 987.232 183.584C987.531 182.827 987.947 182.176 988.48 181.632C989.024 181.077 989.659 180.651 990.384 180.352C991.109 180.043 991.899 179.888 992.752 179.888C993.605 179.888 994.368 180.032 995.04 180.32C995.723 180.608 996.299 180.992 996.768 181.472C997.237 181.941 997.573 182.459 997.776 183.024L995.824 183.936C995.6 183.339 995.221 182.848 994.688 182.464C994.155 182.069 993.509 181.872 992.752 181.872C992.005 181.872 991.344 182.048 990.768 182.4C990.203 182.752 989.76 183.237 989.44 183.856C989.131 184.475 988.976 185.2 988.976 186.032C988.976 186.864 989.131 187.595 989.44 188.224C989.76 188.843 990.203 189.328 990.768 189.68C991.344 190.032 992.005 190.208 992.752 190.208C993.509 190.208 994.155 190.016 994.688 189.632C995.221 189.237 995.6 188.741 995.824 188.144L997.776 189.056C997.573 189.621 997.237 190.144 996.768 190.624C996.299 191.093 995.723 191.472 995.04 191.76C994.368 192.048 993.605 192.192 992.752 192.192ZM1008.29 192.192C1007.42 192.192 1006.6 192.037 1005.85 191.728C1005.09 191.419 1004.43 190.987 1003.86 190.432C1003.3 189.877 1002.85 189.227 1002.53 188.48C1002.23 187.723 1002.07 186.907 1002.07 186.032C1002.07 185.147 1002.23 184.331 1002.53 183.584C1002.84 182.837 1003.28 182.187 1003.85 181.632C1004.41 181.077 1005.07 180.651 1005.83 180.352C1006.59 180.043 1007.41 179.888 1008.29 179.888C1009.18 179.888 1010 180.043 1010.76 180.352C1011.52 180.661 1012.18 181.093 1012.74 181.648C1013.31 182.192 1013.75 182.837 1014.05 183.584C1014.37 184.331 1014.53 185.147 1014.53 186.032C1014.53 186.907 1014.37 187.723 1014.05 188.48C1013.73 189.227 1013.29 189.877 1012.73 190.432C1012.16 190.987 1011.5 191.419 1010.74 191.728C1010 192.037 1009.18 192.192 1008.29 192.192ZM1008.29 190.208C1008.88 190.208 1009.42 190.107 1009.91 189.904C1010.4 189.691 1010.83 189.397 1011.19 189.024C1011.56 188.651 1011.85 188.208 1012.04 187.696C1012.24 187.184 1012.34 186.629 1012.34 186.032C1012.34 185.435 1012.24 184.885 1012.04 184.384C1011.85 183.872 1011.56 183.429 1011.19 183.056C1010.83 182.672 1010.4 182.379 1009.91 182.176C1009.42 181.973 1008.88 181.872 1008.29 181.872C1007.72 181.872 1007.19 181.973 1006.69 182.176C1006.2 182.379 1005.77 182.672 1005.4 183.056C1005.04 183.429 1004.75 183.872 1004.55 184.384C1004.35 184.885 1004.25 185.435 1004.25 186.032C1004.25 186.629 1004.35 187.184 1004.55 187.696C1004.75 188.208 1005.04 188.651 1005.4 189.024C1005.77 189.397 1006.2 189.691 1006.69 189.904C1007.19 190.107 1007.72 190.208 1008.29 190.208ZM1019.35 192V180.08H1021.05L1027.61 188.912L1026.73 189.088V180.08H1028.9V192H1027.19L1020.73 183.104L1021.53 182.928V192H1019.35ZM1036.2 192V182H1033.11V180.08H1041.43V182H1038.39V192H1036.2ZM1043.87 192L1047.98 180.08H1050.8L1054.91 192H1052.54L1051.69 189.44H1047.08L1046.22 192H1043.87ZM1047.71 187.52H1051.07L1049.08 181.584H1049.69L1047.71 187.52ZM1064.23 192.192C1063.38 192.192 1062.59 192.037 1061.86 191.728C1061.15 191.419 1060.52 190.987 1059.97 190.432C1059.44 189.877 1059.02 189.227 1058.73 188.48C1058.43 187.733 1058.28 186.917 1058.28 186.032C1058.28 185.147 1058.42 184.331 1058.71 183.584C1059.01 182.827 1059.42 182.176 1059.96 181.632C1060.5 181.077 1061.14 180.651 1061.86 180.352C1062.59 180.043 1063.38 179.888 1064.23 179.888C1065.08 179.888 1065.85 180.032 1066.52 180.32C1067.2 180.608 1067.78 180.992 1068.25 181.472C1068.72 181.941 1069.05 182.459 1069.25 183.024L1067.3 183.936C1067.08 183.339 1066.7 182.848 1066.17 182.464C1065.63 182.069 1064.99 181.872 1064.23 181.872C1063.48 181.872 1062.82 182.048 1062.25 182.4C1061.68 182.752 1061.24 183.237 1060.92 183.856C1060.61 184.475 1060.45 185.2 1060.45 186.032C1060.45 186.864 1060.61 187.595 1060.92 188.224C1061.24 188.843 1061.68 189.328 1062.25 189.68C1062.82 190.032 1063.48 190.208 1064.23 190.208C1064.99 190.208 1065.63 190.016 1066.17 189.632C1066.7 189.237 1067.08 188.741 1067.3 188.144L1069.25 189.056C1069.05 189.621 1068.72 190.144 1068.25 190.624C1067.78 191.093 1067.2 191.472 1066.52 191.76C1065.85 192.048 1065.08 192.192 1064.23 192.192ZM1076.01 192V182H1072.92V180.08H1081.24V182H1078.2V192H1076.01ZM1093.4 192L1090.2 180.08H1092.54L1095.05 190.24H1094.44L1097.06 180.08H1099.32L1101.93 190.24H1101.32L1103.83 180.08H1106.17L1102.97 192H1100.47L1097.83 182.112H1098.54L1095.9 192H1093.4ZM1110.37 192V180.08H1112.54V192H1110.37ZM1119.83 192V182H1116.74V180.08H1125.06V182H1122.02V192H1119.83ZM1129.27 192V180.08H1131.45V185.28H1136.52V180.08H1138.71V192H1136.52V187.2H1131.45V192H1129.27ZM1154.2 192.192C1153.28 192.192 1152.47 192 1151.75 191.616C1151.05 191.232 1150.49 190.704 1150.09 190.032C1149.68 189.36 1149.48 188.597 1149.48 187.744V180.08H1151.66V187.632C1151.66 188.123 1151.76 188.565 1151.98 188.96C1152.2 189.355 1152.5 189.664 1152.89 189.888C1153.27 190.101 1153.71 190.208 1154.2 190.208C1154.7 190.208 1155.14 190.101 1155.51 189.888C1155.9 189.664 1156.19 189.355 1156.41 188.96C1156.63 188.565 1156.74 188.123 1156.74 187.632V180.08H1158.92V187.744C1158.92 188.597 1158.72 189.36 1158.31 190.032C1157.91 190.704 1157.35 191.232 1156.63 191.616C1155.93 192 1155.12 192.192 1154.2 192.192ZM1168.23 192.192C1167.47 192.192 1166.77 192.053 1166.12 191.776C1165.48 191.499 1164.92 191.115 1164.45 190.624C1163.99 190.123 1163.66 189.541 1163.44 188.88L1165.25 188.096C1165.54 188.779 1165.96 189.317 1166.5 189.712C1167.04 190.096 1167.66 190.288 1168.34 190.288C1168.72 190.288 1169.05 190.229 1169.33 190.112C1169.62 189.984 1169.84 189.813 1169.99 189.6C1170.15 189.387 1170.23 189.131 1170.23 188.832C1170.23 188.48 1170.12 188.192 1169.91 187.968C1169.71 187.733 1169.4 187.552 1168.98 187.424L1166.69 186.688C1165.76 186.4 1165.07 185.968 1164.6 185.392C1164.13 184.816 1163.89 184.139 1163.89 183.36C1163.89 182.677 1164.06 182.075 1164.39 181.552C1164.73 181.029 1165.2 180.624 1165.8 180.336C1166.4 180.037 1167.1 179.888 1167.88 179.888C1168.59 179.888 1169.25 180.016 1169.84 180.272C1170.44 180.517 1170.95 180.864 1171.38 181.312C1171.82 181.749 1172.14 182.267 1172.36 182.864L1170.56 183.664C1170.33 183.067 1169.98 182.608 1169.51 182.288C1169.04 181.957 1168.49 181.792 1167.88 181.792C1167.51 181.792 1167.19 181.856 1166.92 181.984C1166.64 182.101 1166.42 182.272 1166.26 182.496C1166.11 182.709 1166.04 182.965 1166.04 183.264C1166.04 183.595 1166.14 183.888 1166.36 184.144C1166.57 184.389 1166.89 184.581 1167.33 184.72L1169.52 185.408C1170.47 185.717 1171.18 186.144 1171.65 186.688C1172.13 187.232 1172.37 187.904 1172.37 188.704C1172.37 189.387 1172.2 189.989 1171.84 190.512C1171.49 191.035 1171.01 191.445 1170.39 191.744C1169.77 192.043 1169.05 192.192 1168.23 192.192Z" fill="white"/>
<path d="M145.54 159.34H159.34V166H137.14V124.12H145.54V159.34ZM195.579 148.66C195.579 149.86 195.499 150.94 195.339 151.9H171.039C171.239 154.3 172.079 156.18 173.559 157.54C175.039 158.9 176.859 159.58 179.019 159.58C182.139 159.58 184.359 158.24 185.679 155.56H194.739C193.779 158.76 191.939 161.4 189.219 163.48C186.499 165.52 183.159 166.54 179.199 166.54C175.999 166.54 173.119 165.84 170.559 164.44C168.039 163 166.059 160.98 164.619 158.38C163.219 155.78 162.519 152.78 162.519 149.38C162.519 145.94 163.219 142.92 164.619 140.32C166.019 137.72 167.979 135.72 170.499 134.32C173.019 132.92 175.919 132.22 179.199 132.22C182.359 132.22 185.179 132.9 187.659 134.26C190.179 135.62 192.119 137.56 193.479 140.08C194.879 142.56 195.579 145.42 195.579 148.66ZM186.879 146.26C186.839 144.1 186.059 142.38 184.539 141.1C183.019 139.78 181.159 139.12 178.959 139.12C176.879 139.12 175.119 139.76 173.679 141.04C172.279 142.28 171.419 144.02 171.099 146.26H186.879ZM211.49 139.66V155.74C211.49 156.86 211.75 157.68 212.27 158.2C212.83 158.68 213.75 158.92 215.03 158.92H218.93V166H213.65C206.57 166 203.03 162.56 203.03 155.68V139.66H199.07V132.76H203.03V124.54H211.49V132.76H218.93V139.66H211.49ZM226.652 124.12H235.472L228.992 139.24H223.232L226.652 124.12ZM254.215 166.54C251.495 166.54 249.055 166.06 246.895 165.1C244.735 164.1 243.015 162.76 241.735 161.08C240.495 159.4 239.815 157.54 239.695 155.5H248.155C248.315 156.78 248.935 157.84 250.015 158.68C251.135 159.52 252.515 159.94 254.155 159.94C255.755 159.94 256.995 159.62 257.875 158.98C258.795 158.34 259.255 157.52 259.255 156.52C259.255 155.44 258.695 154.64 257.575 154.12C256.495 153.56 254.755 152.96 252.355 152.32C249.875 151.72 247.835 151.1 246.235 150.46C244.675 149.82 243.315 148.84 242.155 147.52C241.035 146.2 240.475 144.42 240.475 142.18C240.475 140.34 240.995 138.66 242.035 137.14C243.115 135.62 244.635 134.42 246.595 133.54C248.595 132.66 250.935 132.22 253.615 132.22C257.575 132.22 260.735 133.22 263.095 135.22C265.455 137.18 266.755 139.84 266.995 143.2H258.955C258.835 141.88 258.275 140.84 257.275 140.08C256.315 139.28 255.015 138.88 253.375 138.88C251.855 138.88 250.675 139.16 249.835 139.72C249.035 140.28 248.635 141.06 248.635 142.06C248.635 143.18 249.195 144.04 250.315 144.64C251.435 145.2 253.175 145.78 255.535 146.38C257.935 146.98 259.915 147.6 261.475 148.24C263.035 148.88 264.375 149.88 265.495 151.24C266.655 152.56 267.255 154.32 267.295 156.52C267.295 158.44 266.755 160.16 265.675 161.68C264.635 163.2 263.115 164.4 261.115 165.28C259.155 166.12 256.855 166.54 254.215 166.54ZM334.148 124.12V166H325.748V138.76L314.528 166H308.168L296.888 138.76V166H288.488V124.12H298.028L311.348 155.26L324.668 124.12H334.148ZM340.292 149.26C340.292 145.9 340.952 142.92 342.272 140.32C343.633 137.72 345.453 135.72 347.733 134.32C350.053 132.92 352.633 132.22 355.473 132.22C357.953 132.22 360.113 132.72 361.953 133.72C363.833 134.72 365.333 135.98 366.453 137.5V132.76H374.913V166H366.453V161.14C365.373 162.7 363.873 164 361.953 165.04C360.073 166.04 357.893 166.54 355.413 166.54C352.613 166.54 350.053 165.82 347.733 164.38C345.453 162.94 343.633 160.92 342.272 158.32C340.952 155.68 340.292 152.66 340.292 149.26ZM366.453 149.38C366.453 147.34 366.053 145.6 365.253 144.16C364.453 142.68 363.373 141.56 362.013 140.8C360.653 140 359.193 139.6 357.633 139.6C356.073 139.6 354.633 139.98 353.312 140.74C351.993 141.5 350.913 142.62 350.073 144.1C349.273 145.54 348.873 147.26 348.873 149.26C348.873 151.26 349.273 153.02 350.073 154.54C350.913 156.02 351.993 157.16 353.312 157.96C354.673 158.76 356.113 159.16 357.633 159.16C359.193 159.16 360.653 158.78 362.013 158.02C363.373 157.22 364.453 156.1 365.253 154.66C366.053 153.18 366.453 151.42 366.453 149.38ZM402.797 166L391.517 151.84V166H383.117V121.6H391.517V146.86L402.677 132.76H413.597L398.957 149.44L413.717 166H402.797ZM449.056 148.66C449.056 149.86 448.976 150.94 448.816 151.9H424.516C424.716 154.3 425.556 156.18 427.036 157.54C428.516 158.9 430.336 159.58 432.496 159.58C435.616 159.58 437.836 158.24 439.156 155.56H448.216C447.256 158.76 445.416 161.4 442.696 163.48C439.976 165.52 436.636 166.54 432.676 166.54C429.476 166.54 426.596 165.84 424.036 164.44C421.516 163 419.536 160.98 418.096 158.38C416.696 155.78 415.996 152.78 415.996 149.38C415.996 145.94 416.696 142.92 418.096 140.32C419.496 137.72 421.456 135.72 423.976 134.32C426.496 132.92 429.396 132.22 432.676 132.22C435.836 132.22 438.656 132.9 441.136 134.26C443.656 135.62 445.596 137.56 446.956 140.08C448.356 142.56 449.056 145.42 449.056 148.66ZM440.356 146.26C440.316 144.1 439.536 142.38 438.016 141.1C436.496 139.78 434.636 139.12 432.436 139.12C430.356 139.12 428.596 139.76 427.156 141.04C425.756 142.28 424.896 144.02 424.576 146.26H440.356ZM483.944 166.42C481.024 166.42 478.384 165.92 476.024 164.92C473.704 163.92 471.864 162.48 470.504 160.6C469.144 158.72 468.444 156.5 468.404 153.94H477.404C477.524 155.66 478.124 157.02 479.204 158.02C480.324 159.02 481.844 159.52 483.764 159.52C485.724 159.52 487.264 159.06 488.384 158.14C489.504 157.18 490.064 155.94 490.064 154.42C490.064 153.18 489.684 152.16 488.924 151.36C488.164 150.56 487.204 149.94 486.044 149.5C484.924 149.02 483.364 148.5 481.364 147.94C478.644 147.14 476.424 146.36 474.704 145.6C473.024 144.8 471.564 143.62 470.324 142.06C469.124 140.46 468.524 138.34 468.524 135.7C468.524 133.22 469.144 131.06 470.384 129.22C471.624 127.38 473.364 125.98 475.604 125.02C477.844 124.02 480.404 123.52 483.284 123.52C487.604 123.52 491.104 124.58 493.784 126.7C496.504 128.78 498.004 131.7 498.284 135.46H489.044C488.964 134.02 488.344 132.84 487.184 131.92C486.064 130.96 484.564 130.48 482.684 130.48C481.044 130.48 479.724 130.9 478.724 131.74C477.764 132.58 477.284 133.8 477.284 135.4C477.284 136.52 477.644 137.46 478.364 138.22C479.124 138.94 480.044 139.54 481.124 140.02C482.244 140.46 483.804 140.98 485.804 141.58C488.524 142.38 490.744 143.18 492.464 143.98C494.184 144.78 495.664 145.98 496.904 147.58C498.144 149.18 498.764 151.28 498.764 153.88C498.764 156.12 498.184 158.2 497.024 160.12C495.864 162.04 494.164 163.58 491.924 164.74C489.684 165.86 487.024 166.42 483.944 166.42ZM520.806 166.54C517.606 166.54 514.726 165.84 512.166 164.44C509.606 163 507.586 160.98 506.106 158.38C504.666 155.78 503.946 152.78 503.946 149.38C503.946 145.98 504.686 142.98 506.166 140.38C507.686 137.78 509.746 135.78 512.346 134.38C514.946 132.94 517.846 132.22 521.046 132.22C524.246 132.22 527.146 132.94 529.746 134.38C532.346 135.78 534.386 137.78 535.866 140.38C537.386 142.98 538.146 145.98 538.146 149.38C538.146 152.78 537.366 155.78 535.806 158.38C534.286 160.98 532.206 163 529.566 164.44C526.966 165.84 524.046 166.54 520.806 166.54ZM520.806 159.22C522.326 159.22 523.746 158.86 525.066 158.14C526.426 157.38 527.506 156.26 528.306 154.78C529.106 153.3 529.506 151.5 529.506 149.38C529.506 146.22 528.666 143.8 526.986 142.12C525.346 140.4 523.326 139.54 520.926 139.54C518.526 139.54 516.506 140.4 514.866 142.12C513.266 143.8 512.466 146.22 512.466 149.38C512.466 152.54 513.246 154.98 514.806 156.7C516.406 158.38 518.406 159.22 520.806 159.22ZM585.588 132.28C589.668 132.28 592.948 133.54 595.428 136.06C597.948 138.54 599.208 142.02 599.208 146.5V166H590.808V147.64C590.808 145.04 590.148 143.06 588.828 141.7C587.508 140.3 585.708 139.6 583.428 139.6C581.148 139.6 579.328 140.3 577.968 141.7C576.648 143.06 575.988 145.04 575.988 147.64V166H567.588V147.64C567.588 145.04 566.928 143.06 565.608 141.7C564.288 140.3 562.488 139.6 560.208 139.6C557.888 139.6 556.048 140.3 554.688 141.7C553.368 143.06 552.708 145.04 552.708 147.64V166H544.308V132.76H552.708V136.78C553.788 135.38 555.168 134.28 556.848 133.48C558.568 132.68 560.448 132.28 562.488 132.28C565.088 132.28 567.408 132.84 569.448 133.96C571.488 135.04 573.068 136.6 574.188 138.64C575.268 136.72 576.828 135.18 578.868 134.02C580.948 132.86 583.188 132.28 585.588 132.28ZM638.079 148.66C638.079 149.86 637.999 150.94 637.839 151.9H613.539C613.739 154.3 614.579 156.18 616.059 157.54C617.539 158.9 619.359 159.58 621.519 159.58C624.639 159.58 626.859 158.24 628.179 155.56H637.239C636.279 158.76 634.439 161.4 631.719 163.48C628.999 165.52 625.659 166.54 621.699 166.54C618.499 166.54 615.619 165.84 613.059 164.44C610.539 163 608.559 160.98 607.119 158.38C605.719 155.78 605.019 152.78 605.019 149.38C605.019 145.94 605.719 142.92 607.119 140.32C608.519 137.72 610.479 135.72 612.999 134.32C615.519 132.92 618.419 132.22 621.699 132.22C624.859 132.22 627.679 132.9 630.159 134.26C632.679 135.62 634.619 137.56 635.979 140.08C637.379 142.56 638.079 145.42 638.079 148.66ZM629.379 146.26C629.339 144.1 628.559 142.38 627.039 141.1C625.519 139.78 623.659 139.12 621.459 139.12C619.379 139.12 617.619 139.76 616.179 141.04C614.779 142.28 613.919 144.02 613.599 146.26H629.379ZM653.99 139.66V155.74C653.99 156.86 654.25 157.68 654.77 158.2C655.33 158.68 656.25 158.92 657.53 158.92H661.43V166H656.15C649.07 166 645.53 162.56 645.53 155.68V139.66H641.57V132.76H645.53V124.54H653.99V132.76H661.43V139.66H653.99ZM686.192 132.28C688.712 132.28 690.952 132.84 692.912 133.96C694.872 135.04 696.392 136.66 697.472 138.82C698.592 140.94 699.152 143.5 699.152 146.5V166H690.752V147.64C690.752 145 690.092 142.98 688.772 141.58C687.452 140.14 685.652 139.42 683.372 139.42C681.052 139.42 679.212 140.14 677.852 141.58C676.532 142.98 675.872 145 675.872 147.64V166H667.472V121.6H675.872V136.9C676.952 135.46 678.392 134.34 680.192 133.54C681.992 132.7 683.992 132.28 686.192 132.28ZM711.4 128.8C709.92 128.8 708.68 128.34 707.68 127.42C706.72 126.46 706.24 125.28 706.24 123.88C706.24 122.48 706.72 121.32 707.68 120.4C708.68 119.44 709.92 118.96 711.4 118.96C712.88 118.96 714.1 119.44 715.06 120.4C716.06 121.32 716.56 122.48 716.56 123.88C716.56 125.28 716.06 126.46 715.06 127.42C714.1 128.34 712.88 128.8 711.4 128.8ZM715.54 132.76V166H707.14V132.76H715.54ZM742.259 132.28C746.219 132.28 749.419 133.54 751.859 136.06C754.299 138.54 755.519 142.02 755.519 146.5V166H747.119V147.64C747.119 145 746.459 142.98 745.139 141.58C743.819 140.14 742.019 139.42 739.739 139.42C737.419 139.42 735.579 140.14 734.219 141.58C732.899 142.98 732.239 145 732.239 147.64V166H723.839V132.76H732.239V136.9C733.359 135.46 734.779 134.34 736.499 133.54C738.259 132.7 740.179 132.28 742.259 132.28ZM776.527 132.22C779.007 132.22 781.187 132.72 783.067 133.72C784.947 134.68 786.427 135.94 787.507 137.5V132.76H795.967V166.24C795.967 169.32 795.347 172.06 794.107 174.46C792.867 176.9 791.007 178.82 788.527 180.22C786.047 181.66 783.047 182.38 779.527 182.38C774.807 182.38 770.927 181.28 767.887 179.08C764.887 176.88 763.187 173.88 762.787 170.08H771.127C771.567 171.6 772.507 172.8 773.947 173.68C775.427 174.6 777.207 175.06 779.287 175.06C781.727 175.06 783.707 174.32 785.227 172.84C786.747 171.4 787.507 169.2 787.507 166.24V161.08C786.427 162.64 784.927 163.94 783.007 164.98C781.127 166.02 778.967 166.54 776.527 166.54C773.727 166.54 771.167 165.82 768.847 164.38C766.527 162.94 764.687 160.92 763.327 158.32C762.007 155.68 761.347 152.66 761.347 149.26C761.347 145.9 762.007 142.92 763.327 140.32C764.687 137.72 766.507 135.72 768.787 134.32C771.107 132.92 773.687 132.22 776.527 132.22ZM787.507 149.38C787.507 147.34 787.107 145.6 786.307 144.16C785.507 142.68 784.427 141.56 783.067 140.8C781.707 140 780.247 139.6 778.687 139.6C777.127 139.6 775.687 139.98 774.367 140.74C773.047 141.5 771.967 142.62 771.127 144.1C770.327 145.54 769.927 147.26 769.927 149.26C769.927 151.26 770.327 153.02 771.127 154.54C771.967 156.02 773.047 157.16 774.367 157.96C775.727 158.76 777.167 159.16 778.687 159.16C780.247 159.16 781.707 158.78 783.067 158.02C784.427 157.22 785.507 156.1 786.307 154.66C787.107 153.18 787.507 151.42 787.507 149.38ZM166.3 217.72C165.34 215.96 164.02 214.62 162.34 213.7C160.66 212.78 158.7 212.32 156.46 212.32C153.98 212.32 151.78 212.88 149.86 214C147.94 215.12 146.44 216.72 145.36 218.8C144.28 220.88 143.74 223.28 143.74 226C143.74 228.8 144.28 231.24 145.36 233.32C146.48 235.4 148.02 237 149.98 238.12C151.94 239.24 154.22 239.8 156.82 239.8C160.02 239.8 162.64 238.96 164.68 237.28C166.72 235.56 168.06 233.18 168.7 230.14H154.3V223.72H176.98V231.04C176.42 233.96 175.22 236.66 173.38 239.14C171.54 241.62 169.16 243.62 166.24 245.14C163.36 246.62 160.12 247.36 156.52 247.36C152.48 247.36 148.82 246.46 145.54 244.66C142.3 242.82 139.74 240.28 137.86 237.04C136.02 233.8 135.1 230.12 135.1 226C135.1 221.88 136.02 218.2 137.86 214.96C139.74 211.68 142.3 209.14 145.54 207.34C148.82 205.5 152.46 204.58 156.46 204.58C161.18 204.58 165.28 205.74 168.76 208.06C172.24 210.34 174.64 213.56 175.96 217.72H166.3ZM191.595 218.92C192.675 217.16 194.075 215.78 195.795 214.78C197.555 213.78 199.555 213.28 201.795 213.28V222.1H199.575C196.935 222.1 194.935 222.72 193.575 223.96C192.255 225.2 191.595 227.36 191.595 230.44V247H183.195V213.76H191.595V218.92ZM238.353 229.66C238.353 230.86 238.273 231.94 238.113 232.9H213.813C214.013 235.3 214.853 237.18 216.333 238.54C217.813 239.9 219.633 240.58 221.793 240.58C224.913 240.58 227.133 239.24 228.453 236.56H237.513C236.553 239.76 234.713 242.4 231.993 244.48C229.273 246.52 225.933 247.54 221.973 247.54C218.773 247.54 215.893 246.84 213.333 245.44C210.813 244 208.833 241.98 207.393 239.38C205.993 236.78 205.292 233.78 205.292 230.38C205.292 226.94 205.993 223.92 207.393 221.32C208.793 218.72 210.753 216.72 213.273 215.32C215.793 213.92 218.693 213.22 221.973 213.22C225.133 213.22 227.953 213.9 230.433 215.26C232.953 216.62 234.893 218.56 236.253 221.08C237.653 223.56 238.353 226.42 238.353 229.66ZM229.653 227.26C229.613 225.1 228.833 223.38 227.313 222.1C225.793 220.78 223.933 220.12 221.733 220.12C219.653 220.12 217.893 220.76 216.453 222.04C215.053 223.28 214.193 225.02 213.873 227.26H229.653ZM242.324 230.26C242.324 226.9 242.984 223.92 244.304 221.32C245.664 218.72 247.484 216.72 249.764 215.32C252.084 213.92 254.664 213.22 257.504 213.22C259.984 213.22 262.144 213.72 263.984 214.72C265.864 215.72 267.364 216.98 268.484 218.5V213.76H276.944V247H268.484V242.14C267.404 243.7 265.904 245 263.984 246.04C262.104 247.04 259.924 247.54 257.444 247.54C254.644 247.54 252.084 246.82 249.764 245.38C247.484 243.94 245.664 241.92 244.304 239.32C242.984 236.68 242.324 233.66 242.324 230.26ZM268.484 230.38C268.484 228.34 268.084 226.6 267.284 225.16C266.484 223.68 265.404 222.56 264.044 221.8C262.684 221 261.224 220.6 259.664 220.6C258.104 220.6 256.664 220.98 255.344 221.74C254.024 222.5 252.944 223.62 252.104 225.1C251.304 226.54 250.904 228.26 250.904 230.26C250.904 232.26 251.304 234.02 252.104 235.54C252.944 237.02 254.024 238.16 255.344 238.96C256.704 239.76 258.144 240.16 259.664 240.16C261.224 240.16 262.684 239.78 264.044 239.02C265.404 238.22 266.484 237.1 267.284 235.66C268.084 234.18 268.484 232.42 268.484 230.38ZM294.928 220.66V236.74C294.928 237.86 295.188 238.68 295.708 239.2C296.268 239.68 297.188 239.92 298.468 239.92H302.368V247H297.088C290.008 247 286.468 243.56 286.468 236.68V220.66H282.508V213.76H286.468V205.54H294.928V213.76H302.368V220.66H294.928Z" fill="white"/>
<path d="M351.206 205.12V211.9H340.046V247H331.646V211.9H320.486V205.12H351.206ZM372.095 247.54C368.895 247.54 366.015 246.84 363.455 245.44C360.895 244 358.875 241.98 357.395 239.38C355.955 236.78 355.235 233.78 355.235 230.38C355.235 226.98 355.975 223.98 357.455 221.38C358.975 218.78 361.035 216.78 363.635 215.38C366.235 213.94 369.135 213.22 372.335 213.22C375.535 213.22 378.435 213.94 381.035 215.38C383.635 216.78 385.675 218.78 387.155 221.38C388.675 223.98 389.435 226.98 389.435 230.38C389.435 233.78 388.655 236.78 387.095 239.38C385.575 241.98 383.495 244 380.855 245.44C378.255 246.84 375.335 247.54 372.095 247.54ZM372.095 240.22C373.615 240.22 375.035 239.86 376.355 239.14C377.715 238.38 378.795 237.26 379.595 235.78C380.395 234.3 380.795 232.5 380.795 230.38C380.795 227.22 379.955 224.8 378.275 223.12C376.635 221.4 374.615 220.54 372.215 220.54C369.815 220.54 367.795 221.4 366.155 223.12C364.555 224.8 363.755 227.22 363.755 230.38C363.755 233.54 364.535 235.98 366.095 237.7C367.695 239.38 369.695 240.22 372.095 240.22ZM408.617 213.22C411.097 213.22 413.277 213.72 415.157 214.72C417.037 215.68 418.517 216.94 419.597 218.5V213.76H428.057V247.24C428.057 250.32 427.437 253.06 426.197 255.46C424.957 257.9 423.097 259.82 420.617 261.22C418.137 262.66 415.137 263.38 411.617 263.38C406.897 263.38 403.017 262.28 399.977 260.08C396.977 257.88 395.277 254.88 394.877 251.08H403.217C403.657 252.6 404.597 253.8 406.037 254.68C407.517 255.6 409.297 256.06 411.377 256.06C413.817 256.06 415.797 255.32 417.317 253.84C418.837 252.4 419.597 250.2 419.597 247.24V242.08C418.517 243.64 417.017 244.94 415.097 245.98C413.217 247.02 411.057 247.54 408.617 247.54C405.817 247.54 403.257 246.82 400.937 245.38C398.617 243.94 396.777 241.92 395.417 239.32C394.097 236.68 393.437 233.66 393.437 230.26C393.437 226.9 394.097 223.92 395.417 221.32C396.777 218.72 398.597 216.72 400.877 215.32C403.197 213.92 405.777 213.22 408.617 213.22ZM419.597 230.38C419.597 228.34 419.197 226.6 418.397 225.16C417.597 223.68 416.517 222.56 415.157 221.8C413.797 221 412.337 220.6 410.777 220.6C409.217 220.6 407.777 220.98 406.457 221.74C405.137 222.5 404.057 223.62 403.217 225.1C402.417 226.54 402.017 228.26 402.017 230.26C402.017 232.26 402.417 234.02 403.217 235.54C404.057 237.02 405.137 238.16 406.457 238.96C407.817 239.76 409.257 240.16 410.777 240.16C412.337 240.16 413.797 239.78 415.157 239.02C416.517 238.22 417.597 237.1 418.397 235.66C419.197 234.18 419.597 232.42 419.597 230.38ZM467.161 229.66C467.161 230.86 467.081 231.94 466.921 232.9H442.621C442.821 235.3 443.661 237.18 445.141 238.54C446.621 239.9 448.441 240.58 450.601 240.58C453.721 240.58 455.941 239.24 457.261 236.56H466.321C465.361 239.76 463.521 242.4 460.801 244.48C458.081 246.52 454.741 247.54 450.781 247.54C447.581 247.54 444.701 246.84 442.141 245.44C439.621 244 437.641 241.98 436.201 239.38C434.801 236.78 434.101 233.78 434.101 230.38C434.101 226.94 434.801 223.92 436.201 221.32C437.601 218.72 439.561 216.72 442.081 215.32C444.601 213.92 447.501 213.22 450.781 213.22C453.941 213.22 456.761 213.9 459.241 215.26C461.761 216.62 463.701 218.56 465.061 221.08C466.461 223.56 467.161 226.42 467.161 229.66ZM458.461 227.26C458.421 225.1 457.641 223.38 456.121 222.1C454.601 220.78 452.741 220.12 450.541 220.12C448.461 220.12 446.701 220.76 445.261 222.04C443.861 223.28 443.001 225.02 442.681 227.26H458.461ZM483.072 220.66V236.74C483.072 237.86 483.332 238.68 483.852 239.2C484.412 239.68 485.332 239.92 486.612 239.92H490.512V247H485.232C478.152 247 474.612 243.56 474.612 236.68V220.66H470.652V213.76H474.612V205.54H483.072V213.76H490.512V220.66H483.072ZM515.274 213.28C517.794 213.28 520.034 213.84 521.994 214.96C523.954 216.04 525.474 217.66 526.554 219.82C527.674 221.94 528.234 224.5 528.234 227.5V247H519.834V228.64C519.834 226 519.174 223.98 517.854 222.58C516.534 221.14 514.734 220.42 512.454 220.42C510.134 220.42 508.294 221.14 506.934 222.58C505.614 223.98 504.954 226 504.954 228.64V247H496.554V202.6H504.954V217.9C506.034 216.46 507.474 215.34 509.274 214.54C511.074 213.7 513.074 213.28 515.274 213.28ZM567.122 229.66C567.122 230.86 567.042 231.94 566.882 232.9H542.582C542.782 235.3 543.622 237.18 545.102 238.54C546.582 239.9 548.402 240.58 550.562 240.58C553.682 240.58 555.902 239.24 557.222 236.56H566.282C565.322 239.76 563.482 242.4 560.762 244.48C558.042 246.52 554.702 247.54 550.742 247.54C547.542 247.54 544.662 246.84 542.102 245.44C539.582 244 537.602 241.98 536.162 239.38C534.762 236.78 534.062 233.78 534.062 230.38C534.062 226.94 534.762 223.92 536.162 221.32C537.562 218.72 539.522 216.72 542.042 215.32C544.562 213.92 547.462 213.22 550.742 213.22C553.902 213.22 556.722 213.9 559.202 215.26C561.722 216.62 563.662 218.56 565.022 221.08C566.422 223.56 567.122 226.42 567.122 229.66ZM558.422 227.26C558.382 225.1 557.602 223.38 556.082 222.1C554.562 220.78 552.702 220.12 550.502 220.12C548.422 220.12 546.662 220.76 545.222 222.04C543.822 223.28 542.962 225.02 542.642 227.26H558.422ZM581.653 218.92C582.733 217.16 584.133 215.78 585.853 214.78C587.613 213.78 589.613 213.28 591.853 213.28V222.1H589.633C586.993 222.1 584.993 222.72 583.633 223.96C582.313 225.2 581.653 227.36 581.653 230.44V247H573.253V213.76H581.653V218.92ZM608.371 204.4L607.411 233.38H600.331L599.311 204.4H608.371ZM604.051 247.42C602.531 247.42 601.271 246.96 600.271 246.04C599.311 245.08 598.831 243.9 598.831 242.5C598.831 241.1 599.311 239.94 600.271 239.02C601.271 238.06 602.531 237.58 604.051 237.58C605.531 237.58 606.751 238.06 607.711 239.02C608.671 239.94 609.151 241.1 609.151 242.5C609.151 243.9 608.671 245.08 607.711 246.04C606.751 246.96 605.531 247.42 604.051 247.42Z" fill="#E3B27D"/>
</svg>
