<svg width="47" height="46" viewBox="0 0 47 46" fill="none" xmlns="http://www.w3.org/2000/svg">
<path d="M11.1248 35.0042C10.5553 34.4347 10.5078 33.5409 10.9824 32.9173L11.1248 32.7544L33.6224 10.2568C34.2436 9.63558 35.2509 9.63558 35.8721 10.2568C36.4416 10.8263 36.4891 11.7201 36.0145 12.3437L35.8721 12.5066L13.3745 35.0042C12.7533 35.6254 11.746 35.6254 11.1248 35.0042Z" fill="#E3B27D" stroke="#E3B27D" stroke-width="2"/>
<path d="M16.6431 13.0102C15.7645 13.0121 15.0507 12.3014 15.0489 11.4228C15.0471 10.6241 15.6343 9.96157 16.4012 9.84629L16.6362 9.82854L34.7453 9.78954C35.5464 9.78782 36.21 10.3784 36.3227 11.1479L36.3396 11.3837L36.3021 29.4942C36.3002 30.3728 35.5865 31.0836 34.7079 31.0817C33.9092 31.0801 33.2492 30.4901 33.1372 29.7228L33.1204 29.4876L33.1537 12.9745L16.6431 13.0102Z" fill="#E3B27D" stroke="#E3B27D" stroke-width="2"/>
</svg>
