<svg width="232" height="57" viewBox="0 0 232 57" fill="none" xmlns="http://www.w3.org/2000/svg">
<mask id="path-1-outside-1_1_343" maskUnits="userSpaceOnUse" x="0" y="0" width="232" height="57" fill="black">
<rect fill="white" width="232" height="57"/>
<path d="M22.25 23.1C24.2167 23.4667 25.8333 24.45 27.1 26.05C28.3667 27.65 29 29.4833 29 31.55C29 33.4167 28.5333 35.0667 27.6 36.5C26.7 37.9 25.3833 39 23.65 39.8C21.9167 40.6 19.8667 41 17.5 41H2.45V6.1H16.85C19.2167 6.1 21.25 6.48333 22.95 7.25C24.6833 8.01667 25.9833 9.08333 26.85 10.45C27.75 11.8167 28.2 13.3667 28.2 15.1C28.2 17.1333 27.65 18.8333 26.55 20.2C25.4833 21.5667 24.05 22.5333 22.25 23.1ZM9.45 20.5H15.85C17.5167 20.5 18.8 20.1333 19.7 19.4C20.6 18.6333 21.05 17.55 21.05 16.15C21.05 14.75 20.6 13.6667 19.7 12.9C18.8 12.1333 17.5167 11.75 15.85 11.75H9.45V20.5ZM16.5 35.3C18.2 35.3 19.5167 34.9 20.45 34.1C21.4167 33.3 21.9 32.1667 21.9 30.7C21.9 29.2 21.4 28.0333 20.4 27.2C19.4 26.3333 18.05 25.9 16.35 25.9H9.45V35.3H16.5ZM41.5789 17.6C42.4789 16.1333 43.6456 14.9833 45.0789 14.15C46.5456 13.3167 48.2122 12.9 50.0789 12.9V20.25H48.2289C46.0289 20.25 44.3622 20.7667 43.2289 21.8C42.1289 22.8333 41.5789 24.6333 41.5789 27.2V41H34.5789V13.3H41.5789V17.6ZM52.9937 27.05C52.9937 24.25 53.5437 21.7667 54.6437 19.6C55.7771 17.4333 57.2938 15.7667 59.1938 14.6C61.1271 13.4333 63.2771 12.85 65.6438 12.85C67.7104 12.85 69.5104 13.2667 71.0438 14.1C72.6104 14.9333 73.8604 15.9833 74.7938 17.25V13.3H81.8438V41H74.7938V36.95C73.8938 38.25 72.6438 39.3333 71.0438 40.2C69.4771 41.0333 67.6604 41.45 65.5938 41.45C63.2604 41.45 61.1271 40.85 59.1938 39.65C57.2938 38.45 55.7771 36.7667 54.6437 34.6C53.5437 32.4 52.9937 29.8833 52.9937 27.05ZM74.7938 27.15C74.7938 25.45 74.4604 24 73.7938 22.8C73.1271 21.5667 72.2271 20.6333 71.0938 20C69.9604 19.3333 68.7438 19 67.4438 19C66.1438 19 64.9438 19.3167 63.8438 19.95C62.7438 20.5833 61.8438 21.5167 61.1438 22.75C60.4771 23.95 60.1438 25.3833 60.1438 27.05C60.1438 28.7167 60.4771 30.1833 61.1438 31.45C61.8438 32.6833 62.7438 33.6333 63.8438 34.3C64.9771 34.9667 66.1771 35.3 67.4438 35.3C68.7438 35.3 69.9604 34.9833 71.0938 34.35C72.2271 33.6833 73.1271 32.75 73.7938 31.55C74.4604 30.3167 74.7938 28.85 74.7938 27.15ZM104.03 12.9C107.33 12.9 109.997 13.95 112.03 16.05C114.064 18.1167 115.08 21.0167 115.08 24.75V41H108.08V25.7C108.08 23.5 107.53 21.8167 106.43 20.65C105.33 19.45 103.83 18.85 101.93 18.85C99.9971 18.85 98.4638 19.45 97.3305 20.65C96.2305 21.8167 95.6805 23.5 95.6805 25.7V41H88.6805V13.3H95.6805V16.75C96.6138 15.55 97.7971 14.6167 99.2305 13.95C100.697 13.25 102.297 12.9 104.03 12.9ZM119.937 27.05C119.937 24.25 120.487 21.7667 121.587 19.6C122.72 17.4333 124.254 15.7667 126.187 14.6C128.12 13.4333 130.27 12.85 132.637 12.85C134.437 12.85 136.154 13.25 137.787 14.05C139.42 14.8167 140.72 15.85 141.687 17.15V4H148.787V41H141.687V36.9C140.82 38.2667 139.604 39.3667 138.037 40.2C136.47 41.0333 134.654 41.45 132.587 41.45C130.254 41.45 128.12 40.85 126.187 39.65C124.254 38.45 122.72 36.7667 121.587 34.6C120.487 32.4 119.937 29.8833 119.937 27.05ZM141.737 27.15C141.737 25.45 141.404 24 140.737 22.8C140.07 21.5667 139.17 20.6333 138.037 20C136.904 19.3333 135.687 19 134.387 19C133.087 19 131.887 19.3167 130.787 19.95C129.687 20.5833 128.787 21.5167 128.087 22.75C127.42 23.95 127.087 25.3833 127.087 27.05C127.087 28.7167 127.42 30.1833 128.087 31.45C128.787 32.6833 129.687 33.6333 130.787 34.3C131.92 34.9667 133.12 35.3 134.387 35.3C135.687 35.3 136.904 34.9833 138.037 34.35C139.17 33.6833 140.07 32.75 140.737 31.55C141.404 30.3167 141.737 28.85 141.737 27.15ZM159.174 10C157.94 10 156.907 9.61667 156.074 8.85C155.274 8.05 154.874 7.06666 154.874 5.9C154.874 4.73333 155.274 3.76666 156.074 3C156.907 2.2 157.94 1.8 159.174 1.8C160.407 1.8 161.424 2.2 162.224 3C163.057 3.76666 163.474 4.73333 163.474 5.9C163.474 7.06666 163.057 8.05 162.224 8.85C161.424 9.61667 160.407 10 159.174 10ZM162.624 13.3V41H155.624V13.3H162.624ZM184.89 12.9C188.19 12.9 190.857 13.95 192.89 16.05C194.923 18.1167 195.94 21.0167 195.94 24.75V41H188.94V25.7C188.94 23.5 188.39 21.8167 187.29 20.65C186.19 19.45 184.69 18.85 182.79 18.85C180.857 18.85 179.323 19.45 178.19 20.65C177.09 21.8167 176.54 23.5 176.54 25.7V41H169.54V13.3H176.54V16.75C177.473 15.55 178.657 14.6167 180.09 13.95C181.557 13.25 183.157 12.9 184.89 12.9ZM213.446 12.85C215.513 12.85 217.33 13.2667 218.896 14.1C220.463 14.9 221.696 15.95 222.596 17.25V13.3H229.646V41.2C229.646 43.7667 229.13 46.05 228.096 48.05C227.063 50.0833 225.513 51.6833 223.446 52.85C221.38 54.05 218.88 54.65 215.946 54.65C212.013 54.65 208.78 53.7333 206.246 51.9C203.746 50.0667 202.33 47.5667 201.996 44.4H208.946C209.313 45.6667 210.096 46.6667 211.296 47.4C212.53 48.1667 214.013 48.55 215.746 48.55C217.78 48.55 219.43 47.9333 220.696 46.7C221.963 45.5 222.596 43.6667 222.596 41.2V36.9C221.696 38.2 220.446 39.2833 218.846 40.15C217.28 41.0167 215.48 41.45 213.446 41.45C211.113 41.45 208.98 40.85 207.046 39.65C205.113 38.45 203.58 36.7667 202.446 34.6C201.346 32.4 200.796 29.8833 200.796 27.05C200.796 24.25 201.346 21.7667 202.446 19.6C203.58 17.4333 205.096 15.7667 206.996 14.6C208.93 13.4333 211.08 12.85 213.446 12.85ZM222.596 27.15C222.596 25.45 222.263 24 221.596 22.8C220.93 21.5667 220.03 20.6333 218.896 20C217.763 19.3333 216.546 19 215.246 19C213.946 19 212.746 19.3167 211.646 19.95C210.546 20.5833 209.646 21.5167 208.946 22.75C208.28 23.95 207.946 25.3833 207.946 27.05C207.946 28.7167 208.28 30.1833 208.946 31.45C209.646 32.6833 210.546 33.6333 211.646 34.3C212.78 34.9667 213.98 35.3 215.246 35.3C216.546 35.3 217.763 34.9833 218.896 34.35C220.03 33.6833 220.93 32.75 221.596 31.55C222.263 30.3167 222.596 28.85 222.596 27.15Z"/>
</mask>
<path d="M22.25 23.1L21.7996 21.6692L21.9751 24.5746L22.25 23.1ZM27.1 26.05L28.2761 25.1189H28.2761L27.1 26.05ZM27.6 36.5L26.343 35.6815L26.3382 35.6889L27.6 36.5ZM23.65 39.8L24.2786 41.1619L23.65 39.8ZM2.45 41H0.95V42.5H2.45V41ZM2.45 6.1V4.6H0.95V6.1H2.45ZM22.95 7.25L22.3333 8.61741L22.3432 8.6218L22.95 7.25ZM26.85 10.45L25.5832 11.2533L25.5901 11.2642L25.5972 11.275L26.85 10.45ZM26.55 20.2L25.3815 19.2595L25.3744 19.2682L25.3675 19.2771L26.55 20.2ZM9.45 20.5H7.95V22H9.45V20.5ZM19.7 19.4L20.6475 20.5629L20.6602 20.5525L20.6727 20.5419L19.7 19.4ZM19.7 12.9L20.6727 11.7581H20.6727L19.7 12.9ZM9.45 11.75V10.25H7.95V11.75H9.45ZM20.45 34.1L19.4937 32.9444L19.4837 32.9527L19.4738 32.9611L20.45 34.1ZM20.4 27.2L19.4176 28.3335L19.4286 28.343L19.4397 28.3523L20.4 27.2ZM9.45 25.9V24.4H7.95V25.9H9.45ZM9.45 35.3H7.95V36.8H9.45V35.3ZM21.9751 24.5746C23.5778 24.8734 24.8772 25.6589 25.9239 26.9811L28.2761 25.1189C26.7895 23.2411 24.8555 22.0599 22.5249 21.6254L21.9751 24.5746ZM25.9239 26.9811C26.9779 28.3124 27.5 29.8166 27.5 31.55H30.5C30.5 29.15 29.7554 26.9876 28.2761 25.1189L25.9239 26.9811ZM27.5 31.55C27.5 33.1537 27.1033 34.5139 26.343 35.6815L28.857 37.3185C29.9634 35.6195 30.5 33.6796 30.5 31.55H27.5ZM26.3382 35.6889C25.6143 36.815 24.5346 37.7397 23.0214 38.4381L24.2786 41.1619C26.2321 40.2603 27.7857 38.985 28.8618 37.3111L26.3382 35.6889ZM23.0214 38.4381C21.5265 39.128 19.7003 39.5 17.5 39.5V42.5C20.033 42.5 22.3068 42.072 24.2786 41.1619L23.0214 38.4381ZM17.5 39.5H2.45V42.5H17.5V39.5ZM3.95 41V6.1H0.95V41H3.95ZM2.45 7.6H16.85V4.6H2.45V7.6ZM16.85 7.6C19.0593 7.6 20.8719 7.9583 22.3333 8.61738L23.5667 5.88262C21.6281 5.00837 19.3741 4.6 16.85 4.6V7.6ZM22.3432 8.6218C23.8527 9.28945 24.9012 10.1778 25.5832 11.2533L28.1168 9.64669C27.0655 7.98886 25.514 6.74389 23.5568 5.8782L22.3432 8.6218ZM25.5972 11.275C26.3262 12.3819 26.7 13.6417 26.7 15.1H29.7C29.7 13.0917 29.1738 11.2514 28.1028 9.62501L25.5972 11.275ZM26.7 15.1C26.7 16.8483 26.2337 18.2006 25.3815 19.2595L27.7185 21.1405C29.0663 19.466 29.7 17.4184 29.7 15.1H26.7ZM25.3675 19.2771C24.5044 20.3829 23.3366 21.1853 21.7996 21.6692L22.7004 24.5308C24.7634 23.8813 26.4622 22.7504 27.7325 21.1229L25.3675 19.2771ZM9.45 22H15.85V19H9.45V22ZM15.85 22C17.715 22 19.3847 21.5918 20.6475 20.5629L18.7525 18.2371C18.2153 18.6749 17.3183 19 15.85 19V22ZM20.6727 20.5419C21.9698 19.437 22.55 17.9002 22.55 16.15H19.55C19.55 17.1998 19.2302 17.8297 18.7273 18.2581L20.6727 20.5419ZM22.55 16.15C22.55 14.3998 21.9698 12.863 20.6727 11.7581L18.7273 14.0419C19.2302 14.4703 19.55 15.1002 19.55 16.15H22.55ZM20.6727 11.7581C19.4086 10.6813 17.7287 10.25 15.85 10.25V13.25C17.3046 13.25 18.1914 13.5854 18.7273 14.0419L20.6727 11.7581ZM15.85 10.25H9.45V13.25H15.85V10.25ZM7.95 11.75V20.5H10.95V11.75H7.95ZM16.5 36.8C18.4214 36.8 20.1326 36.3477 21.4262 35.2389L19.4738 32.9611C18.9007 33.4523 17.9786 33.8 16.5 33.8V36.8ZM21.4064 35.2556C22.7773 34.1211 23.4 32.5296 23.4 30.7H20.4C20.4 31.8038 20.0561 32.479 19.4937 32.9444L21.4064 35.2556ZM23.4 30.7C23.4 28.8306 22.7565 27.2112 21.3603 26.0477L19.4397 28.3523C20.0435 28.8555 20.4 29.5694 20.4 30.7H23.4ZM21.3824 26.0665C20.0394 24.9026 18.3056 24.4 16.35 24.4V27.4C17.7944 27.4 18.7606 27.7641 19.4176 28.3335L21.3824 26.0665ZM16.35 24.4H9.45V27.4H16.35V24.4ZM7.95 25.9V35.3H10.95V25.9H7.95ZM9.45 36.8H16.5V33.8H9.45V36.8ZM41.5789 17.6H40.0789V22.9124L42.8574 18.3845L41.5789 17.6ZM45.0789 14.15L44.3379 12.8458L44.3314 12.8495L44.325 12.8532L45.0789 14.15ZM50.0789 12.9H51.5789V11.4H50.0789V12.9ZM50.0789 20.25V21.75H51.5789V20.25H50.0789ZM43.2289 21.8L42.2183 20.6916L42.21 20.6991L42.2019 20.7067L43.2289 21.8ZM41.5789 41V42.5H43.0789V41H41.5789ZM34.5789 41H33.0789V42.5H34.5789V41ZM34.5789 13.3V11.8H33.0789V13.3H34.5789ZM41.5789 13.3H43.0789V11.8H41.5789V13.3ZM42.8574 18.3845C43.6327 17.121 44.6223 16.1506 45.8328 15.4468L44.325 12.8532C42.6688 13.8161 41.3251 15.1456 40.3004 16.8155L42.8574 18.3845ZM45.8199 15.4542C47.0373 14.7625 48.4437 14.4 50.0789 14.4V11.4C47.9808 11.4 46.0539 11.8708 44.3379 12.8458L45.8199 15.4542ZM48.5789 12.9V20.25H51.5789V12.9H48.5789ZM50.0789 18.75H48.2289V21.75H50.0789V18.75ZM48.2289 18.75C45.8161 18.75 43.7275 19.3155 42.2183 20.6916L44.2395 22.9084C44.997 22.2178 46.2417 21.75 48.2289 21.75V18.75ZM42.2019 20.7067C40.6458 22.1685 40.0789 24.4937 40.0789 27.2H43.0789C43.0789 24.7729 43.612 23.4982 44.2559 22.8933L42.2019 20.7067ZM40.0789 27.2V41H43.0789V27.2H40.0789ZM41.5789 39.5H34.5789V42.5H41.5789V39.5ZM36.0789 41V13.3H33.0789V41H36.0789ZM34.5789 14.8H41.5789V11.8H34.5789V14.8ZM40.0789 13.3V17.6H43.0789V13.3H40.0789ZM54.6437 19.6L53.3146 18.9048L53.3104 18.9128L53.3063 18.921L54.6437 19.6ZM59.1937 14.6L58.4187 13.3157L58.4089 13.3217L59.1937 14.6ZM71.0438 14.1L70.3275 15.418L70.3393 15.4243L71.0438 14.1ZM74.7937 17.25L73.5862 18.1398L76.2937 21.8144V17.25H74.7937ZM74.7937 13.3V11.8H73.2937V13.3H74.7937ZM81.8438 13.3H83.3438V11.8H81.8438V13.3ZM81.8438 41V42.5H83.3438V41H81.8438ZM74.7937 41H73.2937V42.5H74.7937V41ZM74.7937 36.95H76.2937V32.1481L73.5605 36.0962L74.7937 36.95ZM71.0438 40.2L71.7482 41.5243L71.7582 41.5189L71.0438 40.2ZM59.1937 39.65L58.3927 40.9183L58.4027 40.9245L59.1937 39.65ZM54.6437 34.6L53.3021 35.2708L53.3082 35.2831L53.3146 35.2952L54.6437 34.6ZM73.7938 22.8L72.4742 23.5133L72.4783 23.5209L72.4825 23.5285L73.7938 22.8ZM71.0938 20L70.3332 21.2929L70.3475 21.3013L70.362 21.3094L71.0938 20ZM63.8438 19.95L63.0953 18.6501H63.0953L63.8438 19.95ZM61.1437 22.75L59.8392 22.0096L59.8325 22.0215L61.1437 22.75ZM61.1437 31.45L59.8164 32.1486L59.8275 32.1697L59.8392 32.1904L61.1437 31.45ZM63.8438 34.3L63.0663 35.5828L63.0747 35.5879L63.0832 35.5929L63.8438 34.3ZM71.0938 34.35L71.8255 35.6594L71.84 35.6513L71.8543 35.6429L71.0938 34.35ZM73.7938 31.55L75.105 32.2785L75.1092 32.2709L75.1133 32.2633L73.7938 31.55ZM54.4938 27.05C54.4938 24.4499 55.0033 22.2053 55.9813 20.279L53.3063 18.921C52.0842 21.328 51.4938 24.0501 51.4938 27.05H54.4938ZM55.9729 20.2952C56.9933 18.3446 58.3313 16.8898 59.9786 15.8783L58.4089 13.3217C56.2562 14.6436 54.5609 16.5221 53.3146 18.9048L55.9729 20.2952ZM59.9688 15.8843C61.6567 14.8657 63.5365 14.35 65.6438 14.35V11.35C63.0177 11.35 60.5974 12.001 58.4188 13.3157L59.9688 15.8843ZM65.6438 14.35C67.5063 14.35 69.0512 14.7243 70.3275 15.4179L71.76 12.7821C69.9696 11.809 67.9145 11.35 65.6438 11.35V14.35ZM70.3393 15.4243C71.7333 16.1658 72.8021 17.0756 73.5862 18.1398L76.0013 16.3602C74.9188 14.891 73.4875 13.7009 71.7482 12.7757L70.3393 15.4243ZM76.2937 17.25V13.3H73.2937V17.25H76.2937ZM74.7937 14.8H81.8438V11.8H74.7937V14.8ZM80.3438 13.3V41H83.3438V13.3H80.3438ZM81.8438 39.5H74.7937V42.5H81.8438V39.5ZM76.2937 41V36.95H73.2937V41H76.2937ZM73.5605 36.0962C72.8134 37.1752 71.7536 38.1096 70.3293 38.8811L71.7582 41.5189C73.5339 40.5571 74.9741 39.3248 76.027 37.8038L73.5605 36.0962ZM70.3393 38.8757C69.0227 39.576 67.4553 39.95 65.5938 39.95V42.95C67.8655 42.95 69.9314 42.4907 71.7482 41.5243L70.3393 38.8757ZM65.5938 39.95C63.5325 39.95 61.6743 39.4242 59.9848 38.3755L58.4027 40.9245C60.5798 42.2758 62.9884 42.95 65.5938 42.95V39.95ZM59.9947 38.3818C58.3376 37.3352 56.9949 35.8585 55.9729 33.9048L53.3146 35.2952C54.5593 37.6748 56.2499 39.5648 58.3928 40.9182L59.9947 38.3818ZM55.9854 33.9292C55.0043 31.967 54.4938 29.6859 54.4938 27.05H51.4938C51.4938 30.0807 52.0832 32.833 53.3021 35.2708L55.9854 33.9292ZM76.2937 27.15C76.2937 25.2551 75.9217 23.5415 75.105 22.0715L72.4825 23.5285C72.9992 24.4585 73.2937 25.6449 73.2937 27.15H76.2937ZM75.1133 22.0867C74.3225 20.6238 73.2273 19.4739 71.8255 18.6906L70.362 21.3094C71.2269 21.7927 71.9317 22.5096 72.4742 23.5133L75.1133 22.0867ZM71.8543 18.7071C70.4932 17.9065 69.0144 17.5 67.4437 17.5V20.5C68.4731 20.5 69.4276 20.7602 70.3332 21.2929L71.8543 18.7071ZM67.4437 17.5C65.8877 17.5 64.4287 17.8824 63.0953 18.6501L64.5922 21.2499C65.4588 20.751 66.3998 20.5 67.4437 20.5V17.5ZM63.0953 18.6501C61.737 19.4321 60.6555 20.5714 59.8392 22.0096L62.4483 23.4904C63.032 22.4619 63.7505 21.7345 64.5922 21.2499L63.0953 18.6501ZM59.8325 22.0215C59.0181 23.4874 58.6437 25.1827 58.6437 27.05H61.6437C61.6437 25.584 61.936 24.4126 62.455 23.4785L59.8325 22.0215ZM58.6437 27.05C58.6437 28.92 59.019 30.6336 59.8164 32.1486L62.4711 30.7514C61.9352 29.733 61.6437 28.5134 61.6437 27.05H58.6437ZM59.8392 32.1904C60.6524 33.6232 61.7253 34.77 63.0663 35.5828L64.6212 33.0172C63.7622 32.4966 63.0351 31.7435 62.4483 30.7096L59.8392 32.1904ZM63.0832 35.5929C64.4379 36.3898 65.8992 36.8 67.4437 36.8V33.8C66.455 33.8 65.5163 33.5436 64.6043 33.0071L63.0832 35.5929ZM67.4437 36.8C68.9996 36.8 70.4682 36.4179 71.8255 35.6594L70.362 33.0406C69.4526 33.5488 68.4879 33.8 67.4437 33.8V36.8ZM71.8543 35.6429C73.2286 34.8345 74.3143 33.7016 75.105 32.2785L72.4825 30.8215C71.9398 31.7984 71.2256 32.5322 70.3332 33.0571L71.8543 35.6429ZM75.1133 32.2633C75.9211 30.7689 76.2937 29.0465 76.2937 27.15H73.2937C73.2937 28.6535 72.9997 29.8645 72.4742 30.8367L75.1133 32.2633ZM112.03 16.05L110.953 17.0934L110.961 17.102L112.03 16.05ZM115.08 41V42.5H116.58V41H115.08ZM108.08 41H106.58V42.5H108.08V41ZM106.43 20.65L105.325 21.6636L105.332 21.6714L105.339 21.679L106.43 20.65ZM97.3305 20.65L96.24 19.6201L96.2391 19.621L97.3305 20.65ZM95.6805 41V42.5H97.1805V41H95.6805ZM88.6805 41H87.1805V42.5H88.6805V41ZM88.6805 13.3V11.8H87.1805V13.3H88.6805ZM95.6805 13.3H97.1805V11.8H95.6805V13.3ZM95.6805 16.75H94.1805V21.1218L96.8645 17.6709L95.6805 16.75ZM99.2305 13.95L99.8631 15.3101L99.8698 15.3069L99.8766 15.3037L99.2305 13.95ZM104.03 14.4C106.982 14.4 109.24 15.3241 110.953 17.0934L113.108 15.0066C110.755 12.5759 107.679 11.4 104.03 11.4V14.4ZM110.961 17.102C112.645 18.8139 113.58 21.2921 113.58 24.75H116.58C116.58 20.7412 115.482 17.4195 113.1 14.998L110.961 17.102ZM113.58 24.75V41H116.58V24.75H113.58ZM115.08 39.5H108.08V42.5H115.08V39.5ZM109.58 41V25.7H106.58V41H109.58ZM109.58 25.7C109.58 23.2617 108.969 21.1557 107.522 19.621L105.339 21.679C106.092 22.4776 106.58 23.7383 106.58 25.7H109.58ZM107.536 19.6364C106.104 18.074 104.174 17.35 101.93 17.35V20.35C103.487 20.35 104.557 20.826 105.325 21.6636L107.536 19.6364ZM101.93 17.35C99.6614 17.35 97.7055 18.0683 96.24 19.6201L98.421 21.6799C99.2221 20.8317 100.333 20.35 101.93 20.35V17.35ZM96.2391 19.621C94.7921 21.1557 94.1805 23.2617 94.1805 25.7H97.1805C97.1805 23.7383 97.6689 22.4776 98.4219 21.679L96.2391 19.621ZM94.1805 25.7V41H97.1805V25.7H94.1805ZM95.6805 39.5H88.6805V42.5H95.6805V39.5ZM90.1805 41V13.3H87.1805V41H90.1805ZM88.6805 14.8H95.6805V11.8H88.6805V14.8ZM94.1805 13.3V16.75H97.1805V13.3H94.1805ZM96.8645 17.6709C97.6456 16.6666 98.6369 15.8804 99.8631 15.3101L98.5979 12.5899C96.9573 13.353 95.582 14.4334 94.4964 15.8291L96.8645 17.6709ZM99.8766 15.3037C101.128 14.7064 102.506 14.4 104.03 14.4V11.4C102.089 11.4 100.266 11.7936 98.5844 12.5963L99.8766 15.3037ZM121.587 19.6L120.258 18.9048L120.254 18.9128L120.25 18.921L121.587 19.6ZM126.187 14.6L126.962 15.8843L126.187 14.6ZM137.787 14.05L137.127 15.3971L137.138 15.4026L137.15 15.4079L137.787 14.05ZM141.687 17.15L140.483 18.0451L143.187 21.6811V17.15H141.687ZM141.687 4V2.5H140.187V4H141.687ZM148.787 4H150.287V2.5H148.787V4ZM148.787 41V42.5H150.287V41H148.787ZM141.687 41H140.187V42.5H141.687V41ZM141.687 36.9H143.187V31.7337L140.42 36.0967L141.687 36.9ZM138.037 40.2L137.333 38.8757L138.037 40.2ZM126.187 39.65L126.978 38.3755L126.187 39.65ZM121.587 34.6L120.245 35.2708L120.252 35.2831L120.258 35.2952L121.587 34.6ZM140.737 22.8L139.418 23.5133L139.422 23.5209L139.426 23.5285L140.737 22.8ZM138.037 20L137.277 21.2929L137.291 21.3013L137.305 21.3094L138.037 20ZM130.787 19.95L130.039 18.6501L130.787 19.95ZM128.087 22.75L126.783 22.0096L126.776 22.0215L128.087 22.75ZM128.087 31.45L126.76 32.1486L126.771 32.1697L126.783 32.1904L128.087 31.45ZM130.787 34.3L130.01 35.5828L130.018 35.5879L130.027 35.5929L130.787 34.3ZM138.037 34.35L138.769 35.6594L138.783 35.6513L138.798 35.6429L138.037 34.35ZM140.737 31.55L142.048 32.2785L142.053 32.2709L142.057 32.2633L140.737 31.55ZM121.437 27.05C121.437 24.4499 121.947 22.2053 122.925 20.279L120.25 18.921C119.028 21.328 118.437 24.0501 118.437 27.05H121.437ZM122.916 20.2952C123.933 18.3511 125.283 16.8973 126.962 15.8843L125.412 13.3157C123.224 14.636 121.508 16.5156 120.258 18.9048L122.916 20.2952ZM126.962 15.8843C128.65 14.8657 130.53 14.35 132.637 14.35V11.35C130.011 11.35 127.591 12.001 125.412 13.3157L126.962 15.8843ZM132.637 14.35C134.206 14.35 135.697 14.6966 137.127 15.3971L138.447 12.7029C136.61 11.8034 134.668 11.35 132.637 11.35V14.35ZM137.15 15.4079C138.585 16.0815 139.681 16.9655 140.483 18.0451L142.891 16.2549C141.76 14.7345 140.256 13.5518 138.424 12.6921L137.15 15.4079ZM143.187 17.15V4H140.187V17.15H143.187ZM141.687 5.5H148.787V2.5H141.687V5.5ZM147.287 4V41H150.287V4H147.287ZM148.787 39.5H141.687V42.5H148.787V39.5ZM143.187 41V36.9H140.187V41H143.187ZM140.42 36.0967C139.706 37.2231 138.693 38.1523 137.333 38.8757L138.742 41.5243C140.515 40.581 141.935 39.3102 142.954 37.7033L140.42 36.0967ZM137.333 38.8757C136.016 39.576 134.449 39.95 132.587 39.95V42.95C134.859 42.95 136.925 42.4907 138.742 41.5243L137.333 38.8757ZM132.587 39.95C130.526 39.95 128.668 39.4242 126.978 38.3755L125.396 40.9245C127.573 42.2758 129.982 42.95 132.587 42.95V39.95ZM126.978 38.3755C125.29 37.3276 123.935 35.8521 122.916 33.9048L120.258 35.2952C121.506 37.6813 123.218 39.5724 125.396 40.9245L126.978 38.3755ZM122.929 33.9292C121.948 31.967 121.437 29.6859 121.437 27.05H118.437C118.437 30.0807 119.027 32.833 120.245 35.2708L122.929 33.9292ZM143.237 27.15C143.237 25.2551 142.865 23.5415 142.048 22.0715L139.426 23.5285C139.943 24.4585 140.237 25.6449 140.237 27.15H143.237ZM142.057 22.0867C141.266 20.6238 140.171 19.4739 138.769 18.6906L137.305 21.3094C138.17 21.7927 138.875 22.5096 139.418 23.5133L142.057 22.0867ZM138.798 18.7071C137.437 17.9065 135.958 17.5 134.387 17.5V20.5C135.416 20.5 136.371 20.7602 137.277 21.2929L138.798 18.7071ZM134.387 17.5C132.831 17.5 131.372 17.8824 130.039 18.6501L131.536 21.2499C132.402 20.751 133.343 20.5 134.387 20.5V17.5ZM130.039 18.6501C128.68 19.4321 127.599 20.5714 126.783 22.0096L129.392 23.4904C129.975 22.4619 130.694 21.7345 131.536 21.2499L130.039 18.6501ZM126.776 22.0215C125.961 23.4874 125.587 25.1827 125.587 27.05H128.587C128.587 25.584 128.879 24.4126 129.398 23.4785L126.776 22.0215ZM125.587 27.05C125.587 28.92 125.962 30.6336 126.76 32.1486L129.414 30.7514C128.879 29.733 128.587 28.5134 128.587 27.05H125.587ZM126.783 32.1904C127.596 33.6232 128.669 34.77 130.01 35.5828L131.565 33.0172C130.706 32.4966 129.978 31.7435 129.392 30.7096L126.783 32.1904ZM130.027 35.5929C131.381 36.3898 132.843 36.8 134.387 36.8V33.8C133.398 33.8 132.46 33.5436 131.548 33.0071L130.027 35.5929ZM134.387 36.8C135.943 36.8 137.412 36.4179 138.769 35.6594L137.305 33.0406C136.396 33.5488 135.431 33.8 134.387 33.8V36.8ZM138.798 35.6429C140.172 34.8345 141.258 33.7016 142.048 32.2785L139.426 30.8215C138.883 31.7984 138.169 32.5322 137.277 33.0571L138.798 35.6429ZM142.057 32.2633C142.864 30.7689 143.237 29.0465 143.237 27.15H140.237C140.237 28.6535 139.943 29.8645 139.418 30.8367L142.057 32.2633ZM156.074 8.85L155.013 9.91066L155.035 9.93275L155.058 9.9539L156.074 8.85ZM156.074 3L157.112 4.08298L157.113 4.08208L156.074 3ZM162.224 3L161.163 4.06066L161.185 4.08275L161.208 4.10389L162.224 3ZM162.224 8.85L163.262 9.93298L163.263 9.93208L162.224 8.85ZM162.624 13.3H164.124V11.8H162.624V13.3ZM162.624 41V42.5H164.124V41H162.624ZM155.624 41H154.124V42.5H155.624V41ZM155.624 13.3V11.8H154.124V13.3H155.624ZM159.174 8.5C158.28 8.5 157.62 8.23437 157.089 7.7461L155.058 9.9539C156.194 10.999 157.601 11.5 159.174 11.5V8.5ZM157.134 7.78934C156.625 7.28031 156.374 6.68272 156.374 5.9H153.374C153.374 7.45061 153.922 8.81969 155.013 9.91066L157.134 7.78934ZM156.374 5.9C156.374 5.11801 156.624 4.5504 157.112 4.08298L155.036 1.91702C153.924 2.98293 153.374 4.34865 153.374 5.9H156.374ZM157.113 4.08208C157.646 3.56958 158.299 3.3 159.174 3.3V0.299998C157.582 0.299998 156.168 0.830419 155.035 1.91792L157.113 4.08208ZM159.174 3.3C160.049 3.3 160.671 3.56871 161.163 4.06066L163.284 1.93934C162.176 0.831287 160.765 0.299998 159.174 0.299998V3.3ZM161.208 4.10389C161.722 4.57691 161.974 5.13844 161.974 5.9H164.974C164.974 4.32823 164.392 2.95642 163.239 1.8961L161.208 4.10389ZM161.974 5.9C161.974 6.66282 161.72 7.25394 161.185 7.76792L163.263 9.93208C164.394 8.84605 164.974 7.47051 164.974 5.9H161.974ZM161.186 7.76702C160.698 8.23487 160.068 8.5 159.174 8.5V11.5C160.746 11.5 162.15 10.9985 163.262 9.93298L161.186 7.76702ZM161.124 13.3V41H164.124V13.3H161.124ZM162.624 39.5H155.624V42.5H162.624V39.5ZM157.124 41V13.3H154.124V41H157.124ZM155.624 14.8H162.624V11.8H155.624V14.8ZM192.89 16.05L191.812 17.0934L191.821 17.102L192.89 16.05ZM195.94 41V42.5H197.44V41H195.94ZM188.94 41H187.44V42.5H188.94V41ZM187.29 20.65L186.184 21.6636L186.191 21.6714L186.198 21.679L187.29 20.65ZM178.19 20.65L177.099 19.6201L177.098 19.621L178.19 20.65ZM176.54 41V42.5H178.04V41H176.54ZM169.54 41H168.04V42.5H169.54V41ZM169.54 13.3V11.8H168.04V13.3H169.54ZM176.54 13.3H178.04V11.8H176.54V13.3ZM176.54 16.75H175.04V21.1218L177.724 17.6709L176.54 16.75ZM180.09 13.95L180.722 15.3101L180.729 15.3069L180.736 15.3037L180.09 13.95ZM184.89 14.4C187.841 14.4 190.099 15.3241 191.812 17.0934L193.967 15.0066C191.614 12.5759 188.539 11.4 184.89 11.4V14.4ZM191.821 17.102C193.505 18.8139 194.44 21.2921 194.44 24.75H197.44C197.44 20.7412 196.342 17.4195 193.959 14.998L191.821 17.102ZM194.44 24.75V41H197.44V24.75H194.44ZM195.94 39.5H188.94V42.5H195.94V39.5ZM190.44 41V25.7H187.44V41H190.44ZM190.44 25.7C190.44 23.2617 189.828 21.1557 188.381 19.621L186.198 21.679C186.951 22.4776 187.44 23.7383 187.44 25.7H190.44ZM188.396 19.6364C186.963 18.074 185.033 17.35 182.79 17.35V20.35C184.346 20.35 185.416 20.826 186.184 21.6636L188.396 19.6364ZM182.79 17.35C180.521 17.35 178.565 18.0683 177.099 19.6201L179.28 21.6799C180.082 20.8317 181.192 20.35 182.79 20.35V17.35ZM177.098 19.621C175.651 21.1557 175.04 23.2617 175.04 25.7H178.04C178.04 23.7383 178.528 22.4776 179.281 21.679L177.098 19.621ZM175.04 25.7V41H178.04V25.7H175.04ZM176.54 39.5H169.54V42.5H176.54V39.5ZM171.04 41V13.3H168.04V41H171.04ZM169.54 14.8H176.54V11.8H169.54V14.8ZM175.04 13.3V16.75H178.04V13.3H175.04ZM177.724 17.6709C178.505 16.6666 179.496 15.8804 180.722 15.3101L179.457 12.5899C177.817 13.353 176.441 14.4334 175.356 15.8291L177.724 17.6709ZM180.736 15.3037C181.988 14.7064 183.365 14.4 184.89 14.4V11.4C182.948 11.4 181.125 11.7936 179.444 12.5963L180.736 15.3037ZM218.896 14.1L218.192 15.4243L218.203 15.4302L218.214 15.4359L218.896 14.1ZM222.596 17.25L221.363 18.1038L224.096 22.0519V17.25H222.596ZM222.596 13.3V11.8H221.096V13.3H222.596ZM229.646 13.3H231.146V11.8H229.646V13.3ZM228.096 48.05L226.764 47.3615L226.759 47.3704L228.096 48.05ZM223.446 52.85L222.709 51.5438L222.701 51.5482L222.693 51.5528L223.446 52.85ZM206.246 51.9L205.359 53.1096L205.367 53.1152L206.246 51.9ZM201.996 44.4V42.9H200.33L200.505 44.557L201.996 44.4ZM208.946 44.4L210.387 43.9829L210.074 42.9H208.946V44.4ZM211.296 47.4L212.088 46.126L212.079 46.1201L211.296 47.4ZM220.696 46.7L219.665 45.6111L219.657 45.6181L219.65 45.6253L220.696 46.7ZM222.596 36.9H224.096V32.0981L221.363 36.0462L222.596 36.9ZM218.846 40.15L218.132 38.831L218.12 38.8374L218.846 40.15ZM207.046 39.65L207.838 38.3755L207.046 39.65ZM202.446 34.6L201.105 35.2708L201.111 35.2831L201.117 35.2952L202.446 34.6ZM202.446 19.6L201.117 18.9048L201.113 18.9128L201.109 18.921L202.446 19.6ZM206.996 14.6L206.221 13.3157L206.212 13.3217L206.996 14.6ZM221.596 22.8L220.277 23.5133L220.281 23.5209L220.285 23.5285L221.596 22.8ZM218.896 20L218.136 21.2929L218.15 21.3013L218.165 21.3094L218.896 20ZM211.646 19.95L210.898 18.6501L211.646 19.95ZM208.946 22.75L207.642 22.0096L207.635 22.0215L208.946 22.75ZM208.946 31.45L207.619 32.1486L207.63 32.1697L207.642 32.1904L208.946 31.45ZM211.646 34.3L210.869 35.5828L210.877 35.5879L210.886 35.5929L211.646 34.3ZM218.896 34.35L219.628 35.6594L219.643 35.6513L219.657 35.6429L218.896 34.35ZM221.596 31.55L222.908 32.2785L222.912 32.2709L222.916 32.2633L221.596 31.55ZM213.446 14.35C215.308 14.35 216.875 14.724 218.192 15.4243L219.601 12.7757C217.784 11.8093 215.718 11.35 213.446 11.35V14.35ZM218.214 15.4359C219.586 16.1361 220.62 17.0297 221.363 18.1038L223.83 16.3962C222.773 14.8703 221.341 13.6639 219.579 12.7641L218.214 15.4359ZM224.096 17.25V13.3H221.096V17.25H224.096ZM222.596 14.8H229.646V11.8H222.596V14.8ZM228.146 13.3V41.2H231.146V13.3H228.146ZM228.146 41.2C228.146 43.5609 227.673 45.6025 226.764 47.3615L229.429 48.7385C230.587 46.4975 231.146 43.9724 231.146 41.2H228.146ZM226.759 47.3704C225.865 49.1293 224.529 50.5161 222.709 51.5438L224.184 54.1562C226.497 52.8505 228.261 51.0374 229.434 48.7296L226.759 47.3704ZM222.693 51.5528C220.902 52.5928 218.675 53.15 215.946 53.15V56.15C219.085 56.15 221.858 55.5072 224.2 54.1472L222.693 51.5528ZM215.946 53.15C212.247 53.15 209.344 52.2901 207.126 50.6848L205.367 53.1152C208.216 55.1766 211.779 56.15 215.946 56.15V53.15ZM207.134 50.6904C204.985 49.1146 203.779 47.0022 203.488 44.243L200.505 44.557C200.881 48.1311 202.508 51.0187 205.359 53.1096L207.134 50.6904ZM201.996 45.9H208.946V42.9H201.996V45.9ZM207.506 44.8171C207.984 46.4688 209.018 47.7655 210.514 48.6799L212.079 46.1201C211.175 45.5678 210.643 44.8645 210.387 43.9829L207.506 44.8171ZM210.505 48.6739C212.018 49.6148 213.788 50.05 215.746 50.05V47.05C214.238 47.05 213.041 46.7185 212.088 46.1261L210.505 48.6739ZM215.746 50.05C218.107 50.05 220.154 49.322 221.743 47.7747L219.65 45.6253C218.706 46.5447 217.452 47.05 215.746 47.05V50.05ZM221.728 47.7889C223.4 46.205 224.096 43.9048 224.096 41.2H221.096C221.096 43.4286 220.526 44.795 219.665 45.6111L221.728 47.7889ZM224.096 41.2V36.9H221.096V41.2H224.096ZM221.363 36.0462C220.616 37.1252 219.556 38.0596 218.132 38.8311L219.561 41.4689C221.337 40.5071 222.777 39.2748 223.83 37.7538L221.363 36.0462ZM218.12 38.8374C216.805 39.5653 215.261 39.95 213.446 39.95V42.95C215.699 42.95 217.755 42.468 219.573 41.4626L218.12 38.8374ZM213.446 39.95C211.385 39.95 209.527 39.4242 207.838 38.3755L206.255 40.9245C208.433 42.2758 210.841 42.95 213.446 42.95V39.95ZM207.838 38.3755C206.149 37.3276 204.794 35.8521 203.776 33.9048L201.117 35.2952C202.365 37.6813 204.077 39.5724 206.255 40.9245L207.838 38.3755ZM203.788 33.9292C202.807 31.967 202.296 29.6859 202.296 27.05H199.296C199.296 30.0807 199.886 32.833 201.105 35.2708L203.788 33.9292ZM202.296 27.05C202.296 24.4499 202.806 22.2053 203.784 20.279L201.109 18.921C199.887 21.328 199.296 24.0501 199.296 27.05H202.296ZM203.776 20.2952C204.796 18.3446 206.134 16.8898 207.781 15.8783L206.212 13.3217C204.059 14.6436 202.364 16.5221 201.117 18.9048L203.776 20.2952ZM207.771 15.8843C209.459 14.8657 211.339 14.35 213.446 14.35V11.35C210.82 11.35 208.4 12.001 206.221 13.3157L207.771 15.8843ZM224.096 27.15C224.096 25.2551 223.724 23.5415 222.908 22.0715L220.285 23.5285C220.802 24.4585 221.096 25.6449 221.096 27.15H224.096ZM222.916 22.0867C222.125 20.6238 221.03 19.4739 219.628 18.6906L218.165 21.3094C219.03 21.7927 219.734 22.5096 220.277 23.5133L222.916 22.0867ZM219.657 18.7071C218.296 17.9065 216.817 17.5 215.246 17.5V20.5C216.276 20.5 217.23 20.7602 218.136 21.2929L219.657 18.7071ZM215.246 17.5C213.69 17.5 212.231 17.8824 210.898 18.6501L212.395 21.2499C213.262 20.751 214.203 20.5 215.246 20.5V17.5ZM210.898 18.6501C209.54 19.4321 208.458 20.5714 207.642 22.0096L210.251 23.4904C210.835 22.4619 211.553 21.7345 212.395 21.2499L210.898 18.6501ZM207.635 22.0215C206.821 23.4874 206.446 25.1827 206.446 27.05H209.446C209.446 25.584 209.739 24.4126 210.258 23.4785L207.635 22.0215ZM206.446 27.05C206.446 28.92 206.822 30.6336 207.619 32.1486L210.274 30.7514C209.738 29.733 209.446 28.5134 209.446 27.05H206.446ZM207.642 32.1904C208.455 33.6232 209.528 34.77 210.869 35.5828L212.424 33.0172C211.565 32.4966 210.838 31.7435 210.251 30.7096L207.642 32.1904ZM210.886 35.5929C212.241 36.3898 213.702 36.8 215.246 36.8V33.8C214.258 33.8 213.319 33.5436 212.407 33.0071L210.886 35.5929ZM215.246 36.8C216.802 36.8 218.271 36.4179 219.628 35.6594L218.165 33.0406C217.255 33.5488 216.291 33.8 215.246 33.8V36.8ZM219.657 35.6429C221.031 34.8345 222.117 33.7016 222.908 32.2785L220.285 30.8215C219.743 31.7984 219.028 32.5322 218.136 33.0571L219.657 35.6429ZM222.916 32.2633C223.724 30.7689 224.096 29.0465 224.096 27.15H221.096C221.096 28.6535 220.802 29.8645 220.277 30.8367L222.916 32.2633Z" fill="white" mask="url(#path-1-outside-1_1_343)"/>
</svg>
