<svg width="153" height="60" viewBox="0 0 153 60" fill="none" xmlns="http://www.w3.org/2000/svg">
<circle cx="30" cy="30" r="30" fill="#333333"/>
<path d="M24.152 37L24.152 25.08H26.328L26.328 35.08H31.432L31.432 37H24.152ZM35.7195 37V25.08L43.6395 25.08V27L37.8955 27V30.056L43.3195 30.056V31.976L37.8955 31.976V35.08H43.6395V37H35.7195ZM47.1391 37L51.2511 25.08L54.0671 25.08L58.1791 37L55.8111 37L54.9631 34.44L50.3551 34.44L49.4911 37H47.1391ZM50.9791 32.52H54.3391L52.3551 26.584H52.9631L50.9791 32.52ZM62.3857 37V25.08H66.8177C67.6284 25.08 68.3431 25.2293 68.9617 25.528C69.5911 25.816 70.0818 26.2427 70.4338 26.808C70.7858 27.3627 70.9618 28.04 70.9618 28.84C70.9618 29.6613 70.7644 30.36 70.3698 30.936C69.9857 31.512 69.4631 31.9387 68.8017 32.216L71.5378 37H69.0737L66.1457 31.768L67.5537 32.6H64.5617V37H62.3857ZM64.5617 30.68H66.8497C67.2444 30.68 67.5857 30.6053 67.8737 30.456C68.1617 30.296 68.3857 30.0773 68.5457 29.8C68.7057 29.5227 68.7857 29.2027 68.7857 28.84C68.7857 28.4667 68.7057 28.1467 68.5457 27.88C68.3857 27.6027 68.1617 27.3893 67.8737 27.24C67.5857 27.08 67.2444 27 66.8497 27H64.5617V30.68ZM75.8439 37V25.08H77.5399L84.0999 33.912L83.2199 34.088V25.08H85.3959V37H83.6839L77.2199 28.104L78.0199 27.928V37H75.8439ZM96.307 37V25.08L98.387 25.08L102.851 31.144H101.859L106.227 25.08H108.307V37H106.115V27.56L106.963 27.768L102.435 33.8H102.179L97.763 27.768L98.483 27.56V37H96.307ZM119.34 37.192C118.466 37.192 117.65 37.0373 116.892 36.728C116.135 36.4187 115.474 35.9867 114.908 35.432C114.343 34.8773 113.9 34.2267 113.58 33.48C113.271 32.7227 113.116 31.9067 113.116 31.032C113.116 30.1467 113.271 29.3307 113.58 28.584C113.89 27.8373 114.327 27.1867 114.892 26.632C115.458 26.0773 116.119 25.6507 116.876 25.352C117.634 25.0427 118.455 24.888 119.34 24.888C120.226 24.888 121.047 25.0427 121.804 25.352C122.562 25.6613 123.223 26.0933 123.788 26.648C124.354 27.192 124.791 27.8373 125.1 28.584C125.42 29.3307 125.58 30.1467 125.58 31.032C125.58 31.9067 125.42 32.7227 125.1 33.48C124.78 34.2267 124.338 34.8773 123.772 35.432C123.207 35.9867 122.546 36.4187 121.788 36.728C121.042 37.0373 120.226 37.192 119.34 37.192ZM119.34 35.208C119.927 35.208 120.466 35.1067 120.956 34.904C121.447 34.6907 121.874 34.3973 122.236 34.024C122.61 33.6507 122.892 33.208 123.084 32.696C123.287 32.184 123.388 31.6293 123.388 31.032C123.388 30.4347 123.287 29.8853 123.084 29.384C122.892 28.872 122.61 28.4293 122.236 28.056C121.874 27.672 121.447 27.3787 120.956 27.176C120.466 26.9733 119.927 26.872 119.34 26.872C118.764 26.872 118.231 26.9733 117.74 27.176C117.25 27.3787 116.818 27.672 116.444 28.056C116.082 28.4293 115.799 28.872 115.596 29.384C115.394 29.8853 115.292 30.4347 115.292 31.032C115.292 31.6293 115.394 32.184 115.596 32.696C115.799 33.208 116.082 33.6507 116.444 34.024C116.818 34.3973 117.25 34.6907 117.74 34.904C118.231 35.1067 118.764 35.208 119.34 35.208ZM130.395 37V25.08H134.827C135.638 25.08 136.352 25.2293 136.971 25.528C137.6 25.816 138.091 26.2427 138.443 26.808C138.795 27.3627 138.971 28.04 138.971 28.84C138.971 29.6613 138.774 30.36 138.379 30.936C137.995 31.512 137.472 31.9387 136.811 32.216L139.547 37H137.083L134.155 31.768L135.563 32.6H132.571V37H130.395ZM132.571 30.68H134.859C135.254 30.68 135.595 30.6053 135.883 30.456C136.171 30.296 136.395 30.0773 136.555 29.8C136.715 29.5227 136.795 29.2027 136.795 28.84C136.795 28.4667 136.715 28.1467 136.555 27.88C136.395 27.6027 136.171 27.3893 135.883 27.24C135.595 27.08 135.254 27 134.859 27H132.571V30.68ZM143.853 37V25.08H151.773V27H146.029V30.056H151.453V31.976H146.029V35.08H151.773V37L143.853 37Z" fill="white"/>
</svg>
