<svg width="242" height="60" viewBox="0 0 242 60" fill="none" xmlns="http://www.w3.org/2000/svg">
<circle cx="30" cy="30" r="30" fill="#333333"/>
<path d="M27.336 37L23.176 25.08H25.544L28.808 34.952H28.344L31.608 25.08H33.976L29.832 37H27.336ZM38.1883 37V25.08H40.3643V37H38.1883ZM45.537 37V25.08L53.457 25.08V27L47.713 27V30.056L53.137 30.056V31.976L47.713 31.976V35.08H53.457V37H45.537ZM60.1566 37L56.9566 25.08H59.2926L61.8046 35.24H61.1966L63.8206 25.08H66.0766L68.6846 35.24H68.0766L70.5886 25.08H72.9246L69.7246 37H67.2286L64.5886 27.112H65.2926L62.6526 37H60.1566ZM81.8729 37L85.9849 25.08H88.8009L92.9129 37H90.5449L89.6969 34.44H85.0889L84.2249 37H81.8729ZM85.7129 32.52H89.0729L87.0889 26.584H87.6969L85.7129 32.52ZM97.1195 37V25.08L99.2955 25.08V35.08H104.399V37H97.1195ZM108.687 37V25.08H110.863V35.08H115.967V37H108.687ZM125.978 37V25.08H130.426C131.237 25.08 131.952 25.2293 132.57 25.528C133.2 25.816 133.69 26.2427 134.042 26.808C134.394 27.3627 134.57 28.04 134.57 28.84C134.57 29.6293 134.389 30.3067 134.026 30.872C133.674 31.4267 133.189 31.8533 132.57 32.152C131.952 32.4507 131.237 32.6 130.426 32.6H128.154V37H125.978ZM128.154 30.68H130.458C130.853 30.68 131.194 30.6053 131.482 30.456C131.77 30.296 131.994 30.0773 132.154 29.8C132.314 29.5227 132.394 29.2027 132.394 28.84C132.394 28.4667 132.314 28.1467 132.154 27.88C131.994 27.6027 131.77 27.3893 131.482 27.24C131.194 27.08 130.853 27 130.458 27H128.154V30.68ZM145.105 37.192C144.231 37.192 143.415 37.0373 142.657 36.728C141.9 36.4187 141.239 35.9867 140.673 35.432C140.108 34.8773 139.665 34.2267 139.345 33.48C139.036 32.7227 138.881 31.9067 138.881 31.032C138.881 30.1467 139.036 29.3307 139.345 28.584C139.655 27.8373 140.092 27.1867 140.657 26.632C141.223 26.0773 141.884 25.6507 142.641 25.352C143.399 25.0427 144.22 24.888 145.105 24.888C145.991 24.888 146.812 25.0427 147.569 25.352C148.327 25.6613 148.988 26.0933 149.553 26.648C150.119 27.192 150.556 27.8373 150.865 28.584C151.185 29.3307 151.345 30.1467 151.345 31.032C151.345 31.9067 151.185 32.7227 150.865 33.48C150.545 34.2267 150.103 34.8773 149.537 35.432C148.972 35.9867 148.311 36.4187 147.553 36.728C146.807 37.0373 145.991 37.192 145.105 37.192ZM145.105 35.208C145.692 35.208 146.231 35.1067 146.721 34.904C147.212 34.6907 147.639 34.3973 148.001 34.024C148.375 33.6507 148.657 33.208 148.849 32.696C149.052 32.184 149.153 31.6293 149.153 31.032C149.153 30.4347 149.052 29.8853 148.849 29.384C148.657 28.872 148.375 28.4293 148.001 28.056C147.639 27.672 147.212 27.3787 146.721 27.176C146.231 26.9733 145.692 26.872 145.105 26.872C144.529 26.872 143.996 26.9733 143.505 27.176C143.015 27.3787 142.583 27.672 142.209 28.056C141.847 28.4293 141.564 28.872 141.361 29.384C141.159 29.8853 141.057 30.4347 141.057 31.032C141.057 31.6293 141.159 32.184 141.361 32.696C141.564 33.208 141.847 33.6507 142.209 34.024C142.583 34.3973 143.015 34.6907 143.505 34.904C143.996 35.1067 144.529 35.208 145.105 35.208ZM156.16 37V25.08H160.592C161.403 25.08 162.117 25.2293 162.736 25.528C163.365 25.816 163.856 26.2427 164.208 26.808C164.56 27.3627 164.736 28.04 164.736 28.84C164.736 29.6613 164.539 30.36 164.144 30.936C163.76 31.512 163.237 31.9387 162.576 32.216L165.312 37H162.848L159.92 31.768L161.328 32.6H158.336V37H156.16ZM158.336 30.68H160.624C161.019 30.68 161.36 30.6053 161.648 30.456C161.936 30.296 162.16 30.0773 162.32 29.8C162.48 29.5227 162.56 29.2027 162.56 28.84C162.56 28.4667 162.48 28.1467 162.32 27.88C162.16 27.6027 161.936 27.3893 161.648 27.24C161.36 27.08 161.019 27 160.624 27H158.336V30.68ZM171.418 37V27H168.33V25.08L176.65 25.08V27H173.61V37H171.418ZM180.858 37V25.08L188.81 25.08V27L183.034 27V30.296L188.09 30.296V32.216H183.034V37H180.858ZM198.828 37.192C197.954 37.192 197.138 37.0373 196.38 36.728C195.623 36.4187 194.962 35.9867 194.396 35.432C193.831 34.8773 193.388 34.2267 193.068 33.48C192.759 32.7227 192.604 31.9067 192.604 31.032C192.604 30.1467 192.759 29.3307 193.068 28.584C193.378 27.8373 193.815 27.1867 194.38 26.632C194.946 26.0773 195.607 25.6507 196.364 25.352C197.122 25.0427 197.943 24.888 198.828 24.888C199.714 24.888 200.535 25.0427 201.292 25.352C202.05 25.6613 202.711 26.0933 203.276 26.648C203.842 27.192 204.279 27.8373 204.588 28.584C204.908 29.3307 205.068 30.1467 205.068 31.032C205.068 31.9067 204.908 32.7227 204.588 33.48C204.268 34.2267 203.826 34.8773 203.26 35.432C202.695 35.9867 202.034 36.4187 201.276 36.728C200.53 37.0373 199.714 37.192 198.828 37.192ZM198.828 35.208C199.415 35.208 199.954 35.1067 200.444 34.904C200.935 34.6907 201.362 34.3973 201.724 34.024C202.098 33.6507 202.38 33.208 202.572 32.696C202.775 32.184 202.876 31.6293 202.876 31.032C202.876 30.4347 202.775 29.8853 202.572 29.384C202.38 28.872 202.098 28.4293 201.724 28.056C201.362 27.672 200.935 27.3787 200.444 27.176C199.954 26.9733 199.415 26.872 198.828 26.872C198.252 26.872 197.719 26.9733 197.228 27.176C196.738 27.3787 196.306 27.672 195.932 28.056C195.57 28.4293 195.287 28.872 195.084 29.384C194.882 29.8853 194.78 30.4347 194.78 31.032C194.78 31.6293 194.882 32.184 195.084 32.696C195.287 33.208 195.57 33.6507 195.932 34.024C196.306 34.3973 196.738 34.6907 197.228 34.904C197.719 35.1067 198.252 35.208 198.828 35.208ZM209.883 37V25.08H212.059V35.08H217.163V37H209.883ZM221.451 37V25.08H223.627V37H221.451ZM234.672 37.192C233.797 37.192 232.981 37.0373 232.224 36.728C231.466 36.4187 230.805 35.9867 230.24 35.432C229.674 34.8773 229.232 34.2267 228.912 33.48C228.602 32.7227 228.448 31.9067 228.448 31.032C228.448 30.1467 228.602 29.3307 228.912 28.584C229.221 27.8373 229.658 27.1867 230.224 26.632C230.789 26.0773 231.45 25.6507 232.208 25.352C232.965 25.0427 233.786 24.888 234.672 24.888C235.557 24.888 236.378 25.0427 237.136 25.352C237.893 25.6613 238.554 26.0933 239.12 26.648C239.685 27.192 240.122 27.8373 240.432 28.584C240.752 29.3307 240.912 30.1467 240.912 31.032C240.912 31.9067 240.752 32.7227 240.432 33.48C240.112 34.2267 239.669 34.8773 239.104 35.432C238.538 35.9867 237.877 36.4187 237.12 36.728C236.373 37.0373 235.557 37.192 234.672 37.192ZM234.672 35.208C235.258 35.208 235.797 35.1067 236.288 34.904C236.778 34.6907 237.205 34.3973 237.568 34.024C237.941 33.6507 238.224 33.208 238.416 32.696C238.618 32.184 238.72 31.6293 238.72 31.032C238.72 30.4347 238.618 29.8853 238.416 29.384C238.224 28.872 237.941 28.4293 237.568 28.056C237.205 27.672 236.778 27.3787 236.288 27.176C235.797 26.9733 235.258 26.872 234.672 26.872C234.096 26.872 233.562 26.9733 233.072 27.176C232.581 27.3787 232.149 27.672 231.776 28.056C231.413 28.4293 231.13 28.872 230.928 29.384C230.725 29.8853 230.624 30.4347 230.624 31.032C230.624 31.6293 230.725 32.184 230.928 32.696C231.13 33.208 231.413 33.6507 231.776 34.024C232.149 34.3973 232.581 34.6907 233.072 34.904C233.562 35.1067 234.096 35.208 234.672 35.208Z" fill="white"/>
</svg>
