<svg width="79" height="80" viewBox="0 0 79 80" fill="none" xmlns="http://www.w3.org/2000/svg">
<path d="M32.8711 1.58887C33.9544 0.963103 35.2898 0.963103 36.373 1.58887L62.998 16.9697C65.3304 18.3171 65.3304 21.6829 62.998 23.0303L36.373 38.4111C35.2898 39.0369 33.9544 39.0369 32.8711 38.4111L6.24609 23.0303C3.91388 21.6829 3.91388 18.3171 6.24609 16.9697L32.8711 1.58887Z" stroke="white"/>
<path d="M32.8711 41.5889C33.9544 40.9631 35.2898 40.9631 36.373 41.5889L62.998 56.9697C65.3304 58.3171 65.3304 61.6829 62.998 63.0303L36.373 78.4111C35.2898 79.0369 33.9544 79.0369 32.8711 78.4111L6.24609 63.0303C3.91388 61.6829 3.91388 58.3171 6.24609 56.9697L32.8711 41.5889Z" stroke="white"/>
<path d="M72.2484 16.5364C74.914 18.0762 74.914 21.9238 72.2484 23.4636L45.623 38.8442C44.385 39.5594 42.8594 39.5594 41.6214 38.8442L14.9959 23.4636C12.3303 21.9238 12.3303 18.0762 14.9959 16.5364L41.6214 1.1558C42.8594 0.440641 44.385 0.440641 45.623 1.1558L72.2484 16.5364Z" fill="#E3B27D"/>
<path d="M72.2484 56.5364C74.914 58.0762 74.914 61.9238 72.2484 63.4636L45.623 78.8442C44.385 79.5594 42.8594 79.5594 41.6214 78.8442L14.9959 63.4636C12.3303 61.9238 12.3303 58.0762 14.9959 56.5364L41.6214 41.1558C42.8594 40.4406 44.385 40.4406 45.623 41.1558L72.2484 56.5364Z" fill="#E3B27D"/>
</svg>
