<svg width="76" height="76" viewBox="0 0 76 76" fill="none" xmlns="http://www.w3.org/2000/svg">
<path d="M36.715 36.7143C56.4372 36.7143 72.4293 20.7222 72.4293 1H36.715" stroke="white"/>
<path d="M36.715 72.4285H72.4293C72.4293 52.746 56.4372 36.7142 36.715 36.7142" stroke="white"/>
<path d="M36.7143 72.4285H1C1 52.746 16.9921 36.7142 36.7143 36.7142" stroke="white"/>
<path d="M36.7143 1H1C1 20.7222 16.9921 36.7143 36.7143 36.7143" stroke="white"/>
<path d="M39.3928 40.2858V4.57153H75.1071C75.1071 24.2938 59.115 40.2858 39.3928 40.2858Z" fill="#E3B27D"/>
<path d="M75.1071 76.0001H39.3928V40.2858C59.115 40.2858 75.1071 56.3175 75.1071 76.0001Z" fill="#E3B27D"/>
<path d="M3.67935 76.0001H39.3936V40.2858C19.6714 40.2858 3.67935 56.3175 3.67935 76.0001Z" fill="#E3B27D"/>
<path d="M3.67903 4.57153H39.3933V40.2858C19.6711 40.2858 3.67903 24.2938 3.67903 4.57153Z" fill="#E3B27D"/>
</svg>
