<svg width="83" height="83" viewBox="0 0 83 83" fill="none" xmlns="http://www.w3.org/2000/svg">
<path d="M42.665 37.3345V79.4995H0.5V37.3345H42.665Z" stroke="white"/>
<path d="M58.418 0.5C70.0615 0.500163 79.5 9.93945 79.5 21.583C79.4998 33.2264 70.0614 42.6649 58.418 42.665C46.7744 42.665 37.3351 33.2265 37.335 21.583C37.335 9.93935 46.7743 0.5 58.418 0.5Z" stroke="white"/>
<path d="M46.1654 39.8345H3V82.9999H46.1654V39.8345Z" fill="#E3B27D"/>
<path d="M61.4177 46.1654C73.3375 46.1654 83.0004 36.5025 83.0004 24.5827C83.0004 12.6629 73.3375 3 61.4177 3C49.4979 3 39.835 12.6629 39.835 24.5827C39.835 36.5025 49.4979 46.1654 61.4177 46.1654Z" fill="#E3B27D"/>
</svg>
