<svg width="272" height="43" viewBox="0 0 272 43" fill="none" xmlns="http://www.w3.org/2000/svg">
<mask id="path-1-outside-1_1_309" maskUnits="userSpaceOnUse" x="0" y="0" width="272" height="43" fill="black">
<rect fill="white" width="272" height="43"/>
<path d="M9.45 6.1V41H2.45V6.1H9.45ZM23.366 4V41H16.366V4H23.366ZM37.282 4V41H30.282V4H37.282ZM70.348 13.3V41H63.298V37.5C62.398 38.7 61.2147 39.65 59.748 40.35C58.3147 41.0167 56.748 41.35 55.048 41.35C52.8814 41.35 50.9647 40.9 49.298 40C47.6314 39.0667 46.3147 37.7167 45.348 35.95C44.4147 34.15 43.948 32.0167 43.948 29.55V13.3H50.948V28.55C50.948 30.75 51.498 32.45 52.598 33.65C53.698 34.8167 55.198 35.4 57.098 35.4C59.0314 35.4 60.548 34.8167 61.648 33.65C62.748 32.45 63.298 30.75 63.298 28.55V13.3H70.348ZM87.8547 41.45C85.588 41.45 83.5547 41.05 81.7547 40.25C79.9547 39.4167 78.5214 38.3 77.4547 36.9C76.4214 35.5 75.8547 33.95 75.7547 32.25H82.8047C82.938 33.3167 83.4547 34.2 84.3547 34.9C85.288 35.6 86.438 35.95 87.8047 35.95C89.138 35.95 90.1714 35.6833 90.9047 35.15C91.6714 34.6167 92.0547 33.9333 92.0547 33.1C92.0547 32.2 91.588 31.5333 90.6547 31.1C89.7547 30.6333 88.3047 30.1333 86.3047 29.6C84.238 29.1 82.538 28.5833 81.2047 28.05C79.9047 27.5167 78.7714 26.7 77.8047 25.6C76.8714 24.5 76.4047 23.0167 76.4047 21.15C76.4047 19.6167 76.838 18.2167 77.7047 16.95C78.6047 15.6833 79.8714 14.6833 81.5047 13.95C83.1714 13.2167 85.1214 12.85 87.3547 12.85C90.6547 12.85 93.288 13.6833 95.2547 15.35C97.2214 16.9833 98.3047 19.2 98.5047 22H91.8047C91.7047 20.9 91.238 20.0333 90.4047 19.4C89.6047 18.7333 88.5214 18.4 87.1547 18.4C85.888 18.4 84.9047 18.6333 84.2047 19.1C83.538 19.5667 83.2047 20.2167 83.2047 21.05C83.2047 21.9833 83.6714 22.7 84.6047 23.2C85.538 23.6667 86.988 24.15 88.9547 24.65C90.9547 25.15 92.6047 25.6667 93.9047 26.2C95.2047 26.7333 96.3214 27.5667 97.2547 28.7C98.2214 29.8 98.7214 31.2667 98.7547 33.1C98.7547 34.7 98.3047 36.1333 97.4047 37.4C96.538 38.6667 95.2714 39.6667 93.6047 40.4C91.9714 41.1 90.0547 41.45 87.8547 41.45ZM112.651 19.05V32.45C112.651 33.3833 112.867 34.0667 113.301 34.5C113.767 34.9 114.534 35.1 115.601 35.1H118.851V41H114.451C108.551 41 105.601 38.1333 105.601 32.4V19.05H102.301V13.3H105.601V6.45H112.651V13.3H118.851V19.05H112.651ZM130.886 17.6C131.786 16.1333 132.952 14.9833 134.386 14.15C135.852 13.3167 137.519 12.9 139.386 12.9V20.25H137.536C135.336 20.25 133.669 20.7667 132.536 21.8C131.436 22.8333 130.886 24.6333 130.886 27.2V41H123.886V13.3H130.886V17.6ZM142.3 27.05C142.3 24.25 142.85 21.7667 143.95 19.6C145.084 17.4333 146.6 15.7667 148.5 14.6C150.434 13.4333 152.584 12.85 154.95 12.85C157.017 12.85 158.817 13.2667 160.35 14.1C161.917 14.9333 163.167 15.9833 164.1 17.25V13.3H171.15V41H164.1V36.95C163.2 38.25 161.95 39.3333 160.35 40.2C158.784 41.0333 156.967 41.45 154.9 41.45C152.567 41.45 150.434 40.85 148.5 39.65C146.6 38.45 145.084 36.7667 143.95 34.6C142.85 32.4 142.3 29.8833 142.3 27.05ZM164.1 27.15C164.1 25.45 163.767 24 163.1 22.8C162.434 21.5667 161.534 20.6333 160.4 20C159.267 19.3333 158.05 19 156.75 19C155.45 19 154.25 19.3167 153.15 19.95C152.05 20.5833 151.15 21.5167 150.45 22.75C149.784 23.95 149.45 25.3833 149.45 27.05C149.45 28.7167 149.784 30.1833 150.45 31.45C151.15 32.6833 152.05 33.6333 153.15 34.3C154.284 34.9667 155.484 35.3 156.75 35.3C158.05 35.3 159.267 34.9833 160.4 34.35C161.534 33.6833 162.434 32.75 163.1 31.55C163.767 30.3167 164.1 28.85 164.1 27.15ZM186.137 19.05V32.45C186.137 33.3833 186.354 34.0667 186.787 34.5C187.254 34.9 188.02 35.1 189.087 35.1H192.337V41H187.937C182.037 41 179.087 38.1333 179.087 32.4V19.05H175.787V13.3H179.087V6.45H186.137V13.3H192.337V19.05H186.137ZM200.922 10C199.689 10 198.655 9.61667 197.822 8.85C197.022 8.05 196.622 7.06666 196.622 5.9C196.622 4.73333 197.022 3.76666 197.822 3C198.655 2.2 199.689 1.8 200.922 1.8C202.155 1.8 203.172 2.2 203.972 3C204.805 3.76666 205.222 4.73333 205.222 5.9C205.222 7.06666 204.805 8.05 203.972 8.85C203.172 9.61667 202.155 10 200.922 10ZM204.372 13.3V41H197.372V13.3H204.372ZM223.588 41.45C220.921 41.45 218.521 40.8667 216.388 39.7C214.255 38.5 212.571 36.8167 211.338 34.65C210.138 32.4833 209.538 29.9833 209.538 27.15C209.538 24.3167 210.155 21.8167 211.388 19.65C212.655 17.4833 214.371 15.8167 216.538 14.65C218.705 13.45 221.121 12.85 223.788 12.85C226.455 12.85 228.871 13.45 231.038 14.65C233.205 15.8167 234.905 17.4833 236.138 19.65C237.405 21.8167 238.038 24.3167 238.038 27.15C238.038 29.9833 237.388 32.4833 236.088 34.65C234.821 36.8167 233.088 38.5 230.888 39.7C228.721 40.8667 226.288 41.45 223.588 41.45ZM223.588 35.35C224.855 35.35 226.038 35.05 227.138 34.45C228.271 33.8167 229.171 32.8833 229.838 31.65C230.505 30.4167 230.838 28.9167 230.838 27.15C230.838 24.5167 230.138 22.5 228.738 21.1C227.371 19.6667 225.688 18.95 223.688 18.95C221.688 18.95 220.005 19.6667 218.638 21.1C217.305 22.5 216.638 24.5167 216.638 27.15C216.638 29.7833 217.288 31.8167 218.588 33.25C219.921 34.65 221.588 35.35 223.588 35.35ZM258.523 12.9C261.823 12.9 264.489 13.95 266.523 16.05C268.556 18.1167 269.573 21.0167 269.573 24.75V41H262.573V25.7C262.573 23.5 262.023 21.8167 260.923 20.65C259.823 19.45 258.323 18.85 256.423 18.85C254.489 18.85 252.956 19.45 251.823 20.65C250.723 21.8167 250.173 23.5 250.173 25.7V41H243.173V13.3H250.173V16.75C251.106 15.55 252.289 14.6167 253.723 13.95C255.189 13.25 256.789 12.9 258.523 12.9Z"/>
</mask>
<path d="M9.45 6.1H10.95V4.6H9.45V6.1ZM9.45 41V42.5H10.95V41H9.45ZM2.45 41H0.95V42.5H2.45V41ZM2.45 6.1V4.6H0.95V6.1H2.45ZM7.95 6.1V41H10.95V6.1H7.95ZM9.45 39.5H2.45V42.5H9.45V39.5ZM3.95 41V6.1H0.95V41H3.95ZM2.45 7.6H9.45V4.6H2.45V7.6ZM23.366 4H24.866V2.5H23.366V4ZM23.366 41V42.5H24.866V41H23.366ZM16.366 41H14.866V42.5H16.366V41ZM16.366 4V2.5H14.866V4H16.366ZM21.866 4V41H24.866V4H21.866ZM23.366 39.5H16.366V42.5H23.366V39.5ZM17.866 41V4H14.866V41H17.866ZM16.366 5.5H23.366V2.5H16.366V5.5ZM37.282 4H38.782V2.5H37.282V4ZM37.282 41V42.5H38.782V41H37.282ZM30.282 41H28.782V42.5H30.282V41ZM30.282 4V2.5H28.782V4H30.282ZM35.782 4V41H38.782V4H35.782ZM37.282 39.5H30.282V42.5H37.282V39.5ZM31.782 41V4H28.782V41H31.782ZM30.282 5.5H37.282V2.5H30.282V5.5ZM70.348 13.3H71.848V11.8H70.348V13.3ZM70.348 41V42.5H71.848V41H70.348ZM63.298 41H61.798V42.5H63.298V41ZM63.298 37.5H64.798V33L62.098 36.6L63.298 37.5ZM59.748 40.35L60.3806 41.7101L60.3874 41.7069L60.3941 41.7037L59.748 40.35ZM49.298 40L48.5651 41.3088L48.5752 41.3144L48.5853 41.3199L49.298 40ZM45.348 35.95L44.0164 36.6405L44.0241 36.6553L44.0322 36.67L45.348 35.95ZM43.948 13.3V11.8H42.448V13.3H43.948ZM50.948 13.3H52.448V11.8H50.948V13.3ZM52.598 33.65L51.4923 34.6636L51.4994 34.6714L51.5067 34.679L52.598 33.65ZM61.648 33.65L62.7394 34.679L62.7467 34.6714L62.7538 34.6636L61.648 33.65ZM63.298 13.3V11.8H61.798V13.3H63.298ZM68.848 13.3V41H71.848V13.3H68.848ZM70.348 39.5H63.298V42.5H70.348V39.5ZM64.798 41V37.5H61.798V41H64.798ZM62.098 36.6C61.3553 37.5904 60.3687 38.3917 59.102 38.9963L60.3941 41.7037C62.0607 40.9083 63.4408 39.8096 64.498 38.4L62.098 36.6ZM59.1155 38.9899C57.8949 39.5576 56.5463 39.85 55.048 39.85V42.85C56.9498 42.85 58.7345 42.4757 60.3806 41.7101L59.1155 38.9899ZM55.048 39.85C53.0941 39.85 51.4287 39.4458 50.0108 38.6801L48.5853 41.3199C50.5007 42.3542 52.6687 42.85 55.048 42.85V39.85ZM50.031 38.6912C48.6236 37.9031 47.5031 36.7636 46.6639 35.23L44.0322 36.67C45.1263 38.6697 46.6391 40.2302 48.5651 41.3088L50.031 38.6912ZM46.6797 35.2595C45.8784 33.7143 45.448 31.8278 45.448 29.55H42.448C42.448 32.2056 42.951 34.5857 44.0164 36.6405L46.6797 35.2595ZM45.448 29.55V13.3H42.448V29.55H45.448ZM43.948 14.8H50.948V11.8H43.948V14.8ZM49.448 13.3V28.55H52.448V13.3H49.448ZM49.448 28.55C49.448 30.9914 50.0608 33.102 51.4923 34.6636L53.7038 32.6364C52.9352 31.798 52.448 30.5086 52.448 28.55H49.448ZM51.5067 34.679C52.9423 36.2017 54.8678 36.9 57.098 36.9V33.9C55.5283 33.9 54.4538 33.4317 53.6894 32.621L51.5067 34.679ZM57.098 36.9C59.3528 36.9 61.2987 36.207 62.7394 34.679L60.5567 32.621C59.7974 33.4263 58.7099 33.9 57.098 33.9V36.9ZM62.7538 34.6636C64.1852 33.102 64.798 30.9914 64.798 28.55H61.798C61.798 30.5086 61.3108 31.798 60.5423 32.6364L62.7538 34.6636ZM64.798 28.55V13.3H61.798V28.55H64.798ZM63.298 14.8H70.348V11.8H63.298V14.8ZM81.7547 40.25L81.1245 41.6112L81.135 41.616L81.1455 41.6207L81.7547 40.25ZM77.4547 36.9L76.2478 37.7908L76.2546 37.8L76.2615 37.8091L77.4547 36.9ZM75.7547 32.25V30.75H74.1639L74.2573 32.3381L75.7547 32.25ZM82.8047 32.25L84.2931 32.0639L84.1289 30.75H82.8047V32.25ZM84.3547 34.9L83.4338 36.084L83.4442 36.0921L83.4547 36.1L84.3547 34.9ZM90.9047 35.15L90.0481 33.9186L90.0352 33.9276L90.0224 33.9369L90.9047 35.15ZM90.6547 31.1L89.9642 32.4316L89.9933 32.4467L90.023 32.4605L90.6547 31.1ZM86.3047 29.6L86.6912 28.1506L86.6743 28.1462L86.6574 28.1421L86.3047 29.6ZM81.2047 28.05L80.6353 29.4378L80.6476 29.4427L81.2047 28.05ZM77.8047 25.6L76.6609 26.5705L76.6693 26.5804L76.6779 26.5902L77.8047 25.6ZM77.7047 16.95L76.4819 16.0812L76.4742 16.092L76.4667 16.103L77.7047 16.95ZM81.5047 13.95L80.9006 12.577L80.8903 12.5816L81.5047 13.95ZM95.2547 15.35L94.2849 16.4943L94.2906 16.4992L94.2963 16.5039L95.2547 15.35ZM98.5047 22V23.5H100.116L100.001 21.8931L98.5047 22ZM91.8047 22L90.3109 22.1358L90.4349 23.5H91.8047V22ZM90.4047 19.4L89.4444 20.5523L89.4703 20.5739L89.4971 20.5942L90.4047 19.4ZM84.2047 19.1L83.3726 17.8519L83.3585 17.8614L83.3445 17.8712L84.2047 19.1ZM84.6047 23.2L83.8964 24.5222L83.915 24.5322L83.9339 24.5416L84.6047 23.2ZM88.9547 24.65L88.5851 26.1038L88.5909 26.1052L88.9547 24.65ZM97.2547 28.7L96.0968 29.6536L96.1121 29.6721L96.1279 29.6902L97.2547 28.7ZM98.7547 33.1H100.255V33.0864L100.254 33.0727L98.7547 33.1ZM97.4047 37.4L96.1819 36.5312L96.1742 36.542L96.1667 36.553L97.4047 37.4ZM93.6047 40.4L94.1956 41.7787L94.2022 41.7759L94.2088 41.773L93.6047 40.4ZM87.8547 39.95C85.7664 39.95 83.9453 39.5821 82.3639 38.8793L81.1455 41.6207C83.1641 42.5179 85.4096 42.95 87.8547 42.95V39.95ZM82.3849 38.8888C80.778 38.1449 79.5485 37.1731 78.6478 35.9909L76.2615 37.8091C77.4942 39.4269 79.1313 40.6884 81.1245 41.6112L82.3849 38.8888ZM78.6616 36.0092C77.7968 34.8376 77.3346 33.5652 77.2521 32.1619L74.2573 32.3381C74.3747 34.3348 75.0459 36.1624 76.2478 37.7908L78.6616 36.0092ZM75.7547 33.75H82.8047V30.75H75.7547V33.75ZM81.3163 32.4361C81.5022 33.9233 82.2409 35.1562 83.4338 36.084L85.2756 33.716C84.6685 33.2438 84.3739 32.7101 84.2931 32.0639L81.3163 32.4361ZM83.4547 36.1C84.6903 37.0267 86.1711 37.45 87.8047 37.45V34.45C86.7049 34.45 85.8858 34.1733 85.2547 33.7L83.4547 36.1ZM87.8047 37.45C89.3127 37.45 90.7021 37.1521 91.7869 36.3631L90.0224 33.9369C89.6406 34.2146 88.9633 34.45 87.8047 34.45V37.45ZM91.7613 36.3814C92.8744 35.607 93.5547 34.4895 93.5547 33.1H90.5547C90.5547 33.3771 90.4683 33.6263 90.0481 33.9186L91.7613 36.3814ZM93.5547 33.1C93.5547 32.3763 93.3619 31.6768 92.9335 31.0648C92.5136 30.4649 91.9303 30.0384 91.2864 29.7395L90.023 32.4605C90.3125 32.5949 90.4291 32.7185 90.4758 32.7852C90.5141 32.8398 90.5547 32.9237 90.5547 33.1H93.5547ZM91.3452 29.7684C90.293 29.2228 88.7113 28.6894 86.6912 28.1506L85.9182 31.0494C87.8981 31.5773 89.2163 32.0438 89.9642 32.4316L91.3452 29.7684ZM86.6574 28.1421C84.6306 27.6517 83.0053 27.1547 81.7618 26.6573L80.6476 29.4427C82.0708 30.012 83.8454 30.5483 85.952 31.0579L86.6574 28.1421ZM81.774 26.6622C80.6971 26.2204 79.7521 25.5436 78.9314 24.6098L76.6779 26.5902C77.7906 27.8564 79.1123 28.8129 80.6354 29.4378L81.774 26.6622ZM78.9484 24.6295C78.3057 23.872 77.9047 22.7677 77.9047 21.15H74.9047C74.9047 23.2656 75.437 25.128 76.6609 26.5705L78.9484 24.6295ZM77.9047 21.15C77.9047 19.9193 78.2465 18.8145 78.9426 17.797L76.4667 16.103C75.4295 17.6189 74.9047 19.3141 74.9047 21.15H77.9047ZM78.9275 17.8188C79.6505 16.8012 80.6917 15.9592 82.1191 15.3184L80.8903 12.5816C79.051 13.4074 77.5589 14.5654 76.4819 16.0812L78.9275 17.8188ZM82.1088 15.323C83.5471 14.6901 85.2834 14.35 87.3547 14.35V11.35C84.9593 11.35 82.7956 11.7432 80.9006 12.577L82.1088 15.323ZM87.3547 14.35C90.4013 14.35 92.6579 15.1155 94.2849 16.4943L96.2245 14.2057C93.9182 12.2512 90.9081 11.35 87.3547 11.35V14.35ZM94.2963 16.5039C95.916 17.8491 96.8345 19.6704 97.0085 22.1069L100.001 21.8931C99.7749 18.7296 98.5267 16.1176 96.213 14.1961L94.2963 16.5039ZM98.5047 20.5H91.8047V23.5H98.5047V20.5ZM93.2985 21.8642C93.1628 20.3709 92.5013 19.1094 91.3123 18.2058L89.4971 20.5942C89.9747 20.9573 90.2466 21.4291 90.3109 22.1358L93.2985 21.8642ZM91.365 18.2477C90.221 17.2943 88.7613 16.9 87.1547 16.9V19.9C88.2814 19.9 88.9884 20.1723 89.4444 20.5523L91.365 18.2477ZM87.1547 16.9C85.7322 16.9 84.4144 17.1574 83.3726 17.8519L85.0367 20.3481C85.395 20.1092 86.0439 19.9 87.1547 19.9V16.9ZM83.3445 17.8712C82.2655 18.6265 81.7047 19.7412 81.7047 21.05H84.7047C84.7047 20.6921 84.8106 20.5069 85.0649 20.3288L83.3445 17.8712ZM81.7047 21.05C81.7047 21.7796 81.8913 22.482 82.2977 23.106C82.6977 23.7204 83.2596 24.1811 83.8964 24.5222L85.313 21.8778C85.0164 21.7189 84.8783 21.5713 84.8117 21.469C84.7514 21.3764 84.7047 21.2537 84.7047 21.05H81.7047ZM83.9339 24.5416C85.0155 25.0825 86.5924 25.5971 88.5851 26.1038L89.3243 23.1962C87.3836 22.7029 86.0605 22.2509 85.2755 21.8584L83.9339 24.5416ZM88.5909 26.1052C90.55 26.595 92.1251 27.0913 93.3354 27.5878L94.474 24.8122C93.0842 24.2421 91.3594 23.705 89.3185 23.1948L88.5909 26.1052ZM93.3354 27.5878C94.3959 28.0229 95.3135 28.7024 96.0968 29.6536L98.4126 27.7464C97.3292 26.4309 96.0134 25.4438 94.474 24.8122L93.3354 27.5878ZM96.1279 29.6902C96.8058 30.4615 97.2264 31.5567 97.2549 33.1273L100.254 33.0727C100.216 30.9766 99.6369 29.1385 98.3814 27.7098L96.1279 29.6902ZM97.2547 33.1C97.2547 34.3985 96.8959 35.5263 96.1819 36.5312L98.6275 38.2688C99.7134 36.7404 100.255 35.0015 100.255 33.1H97.2547ZM96.1667 36.553C95.4855 37.5486 94.4593 38.3852 93.0006 39.027L94.2088 41.773C96.0834 40.9482 97.5906 39.7847 98.6426 38.247L96.1667 36.553ZM93.0138 39.0213C91.606 39.6246 89.8985 39.95 87.8547 39.95V42.95C90.2109 42.95 92.3367 42.5754 94.1956 41.7787L93.0138 39.0213ZM112.651 19.05V17.55H111.151V19.05H112.651ZM113.301 34.5L112.24 35.5607L112.281 35.6014L112.325 35.6389L113.301 34.5ZM118.851 35.1H120.351V33.6H118.851V35.1ZM118.851 41V42.5H120.351V41H118.851ZM105.601 19.05H107.101V17.55H105.601V19.05ZM102.301 19.05H100.801V20.55H102.301V19.05ZM102.301 13.3V11.8H100.801V13.3H102.301ZM105.601 13.3V14.8H107.101V13.3H105.601ZM105.601 6.45V4.95H104.101V6.45H105.601ZM112.651 6.45H114.151V4.95H112.651V6.45ZM112.651 13.3H111.151V14.8H112.651V13.3ZM118.851 13.3H120.351V11.8H118.851V13.3ZM118.851 19.05V20.55H120.351V19.05H118.851ZM111.151 19.05V32.45H114.151V19.05H111.151ZM111.151 32.45C111.151 33.5768 111.408 34.7286 112.24 35.5607L114.361 33.4393C114.327 33.4047 114.151 33.1899 114.151 32.45H111.151ZM112.325 35.6389C113.202 36.3908 114.415 36.6 115.601 36.6V33.6C114.653 33.6 114.333 33.4092 114.277 33.3611L112.325 35.6389ZM115.601 36.6H118.851V33.6H115.601V36.6ZM117.351 35.1V41H120.351V35.1H117.351ZM118.851 39.5H114.451V42.5H118.851V39.5ZM114.451 39.5C111.721 39.5 109.952 38.8366 108.859 37.7743C107.773 36.7197 107.101 35.0244 107.101 32.4H104.101C104.101 35.509 104.903 38.1136 106.768 39.9257C108.625 41.7301 111.28 42.5 114.451 42.5V39.5ZM107.101 32.4V19.05H104.101V32.4H107.101ZM105.601 17.55H102.301V20.55H105.601V17.55ZM103.801 19.05V13.3H100.801V19.05H103.801ZM102.301 14.8H105.601V11.8H102.301V14.8ZM107.101 13.3V6.45H104.101V13.3H107.101ZM105.601 7.95H112.651V4.95H105.601V7.95ZM111.151 6.45V13.3H114.151V6.45H111.151ZM112.651 14.8H118.851V11.8H112.651V14.8ZM117.351 13.3V19.05H120.351V13.3H117.351ZM118.851 17.55H112.651V20.55H118.851V17.55ZM130.886 17.6H129.386V22.9124L132.164 18.3845L130.886 17.6ZM134.386 14.15L133.645 12.8458L133.638 12.8495L133.632 12.8532L134.386 14.15ZM139.386 12.9H140.886V11.4H139.386V12.9ZM139.386 20.25V21.75H140.886V20.25H139.386ZM132.536 21.8L131.525 20.6916L131.517 20.6991L131.509 20.7067L132.536 21.8ZM130.886 41V42.5H132.386V41H130.886ZM123.886 41H122.386V42.5H123.886V41ZM123.886 13.3V11.8H122.386V13.3H123.886ZM130.886 13.3H132.386V11.8H130.886V13.3ZM132.164 18.3845C132.939 17.121 133.929 16.1506 135.139 15.4468L133.632 12.8532C131.975 13.8161 130.632 15.1456 129.607 16.8155L132.164 18.3845ZM135.127 15.4542C136.344 14.7625 137.75 14.4 139.386 14.4V11.4C137.287 11.4 135.361 11.8708 133.645 12.8458L135.127 15.4542ZM137.886 12.9V20.25H140.886V12.9H137.886ZM139.386 18.75H137.536V21.75H139.386V18.75ZM137.536 18.75C135.123 18.75 133.034 19.3155 131.525 20.6916L133.546 22.9084C134.304 22.2178 135.548 21.75 137.536 21.75V18.75ZM131.509 20.7067C129.952 22.1685 129.386 24.4937 129.386 27.2H132.386C132.386 24.7729 132.919 23.4982 133.563 22.8933L131.509 20.7067ZM129.386 27.2V41H132.386V27.2H129.386ZM130.886 39.5H123.886V42.5H130.886V39.5ZM125.386 41V13.3H122.386V41H125.386ZM123.886 14.8H130.886V11.8H123.886V14.8ZM129.386 13.3V17.6H132.386V13.3H129.386ZM143.95 19.6L142.621 18.9048L142.617 18.9128L142.613 18.921L143.95 19.6ZM148.5 14.6L147.725 13.3157L147.715 13.3217L148.5 14.6ZM160.35 14.1L159.634 15.418L159.646 15.4243L160.35 14.1ZM164.1 17.25L162.893 18.1398L165.6 21.8144V17.25H164.1ZM164.1 13.3V11.8H162.6V13.3H164.1ZM171.15 13.3H172.65V11.8H171.15V13.3ZM171.15 41V42.5H172.65V41H171.15ZM164.1 41H162.6V42.5H164.1V41ZM164.1 36.95H165.6V32.1481L162.867 36.0962L164.1 36.95ZM160.35 40.2L161.055 41.5243L161.065 41.5189L160.35 40.2ZM148.5 39.65L147.699 40.9183L147.709 40.9245L148.5 39.65ZM143.95 34.6L142.609 35.2708L142.615 35.2831L142.621 35.2952L143.95 34.6ZM163.1 22.8L161.781 23.5133L161.785 23.5209L161.789 23.5285L163.1 22.8ZM160.4 20L159.64 21.2929L159.654 21.3013L159.669 21.3094L160.4 20ZM153.15 19.95L152.402 18.6501L153.15 19.95ZM150.45 22.75L149.146 22.0096L149.139 22.0215L150.45 22.75ZM150.45 31.45L149.123 32.1486L149.134 32.1697L149.146 32.1904L150.45 31.45ZM153.15 34.3L152.373 35.5828L152.381 35.5879L152.39 35.5929L153.15 34.3ZM160.4 34.35L161.132 35.6594L161.147 35.6513L161.161 35.6429L160.4 34.35ZM163.1 31.55L164.412 32.2785L164.416 32.2709L164.42 32.2633L163.1 31.55ZM143.8 27.05C143.8 24.4499 144.31 22.2053 145.288 20.279L142.613 18.921C141.391 21.328 140.8 24.0501 140.8 27.05H143.8ZM145.28 20.2952C146.3 18.3446 147.638 16.8898 149.285 15.8783L147.715 13.3217C145.563 14.6436 143.868 16.5221 142.621 18.9048L145.28 20.2952ZM149.275 15.8843C150.963 14.8657 152.843 14.35 154.95 14.35V11.35C152.324 11.35 149.904 12.001 147.725 13.3157L149.275 15.8843ZM154.95 14.35C156.813 14.35 158.358 14.7243 159.634 15.4179L161.067 12.7821C159.276 11.809 157.221 11.35 154.95 11.35V14.35ZM159.646 15.4243C161.04 16.1658 162.109 17.0756 162.893 18.1398L165.308 16.3602C164.225 14.891 162.794 13.7009 161.055 12.7757L159.646 15.4243ZM165.6 17.25V13.3H162.6V17.25H165.6ZM164.1 14.8H171.15V11.8H164.1V14.8ZM169.65 13.3V41H172.65V13.3H169.65ZM171.15 39.5H164.1V42.5H171.15V39.5ZM165.6 41V36.95H162.6V41H165.6ZM162.867 36.0962C162.12 37.1752 161.06 38.1096 159.636 38.8811L161.065 41.5189C162.841 40.5571 164.281 39.3248 165.334 37.8038L162.867 36.0962ZM159.646 38.8757C158.329 39.576 156.762 39.95 154.9 39.95V42.95C157.172 42.95 159.238 42.4907 161.055 41.5243L159.646 38.8757ZM154.9 39.95C152.839 39.95 150.981 39.4242 149.291 38.3755L147.709 40.9245C149.886 42.2758 152.295 42.95 154.9 42.95V39.95ZM149.301 38.3818C147.644 37.3352 146.301 35.8585 145.28 33.9048L142.621 35.2952C143.866 37.6748 145.556 39.5648 147.699 40.9182L149.301 38.3818ZM145.292 33.9292C144.311 31.967 143.8 29.6859 143.8 27.05H140.8C140.8 30.0807 141.39 32.833 142.609 35.2708L145.292 33.9292ZM165.6 27.15C165.6 25.2551 165.228 23.5415 164.412 22.0715L161.789 23.5285C162.306 24.4585 162.6 25.6449 162.6 27.15H165.6ZM164.42 22.0867C163.629 20.6238 162.534 19.4739 161.132 18.6906L159.669 21.3094C160.534 21.7927 161.238 22.5096 161.781 23.5133L164.42 22.0867ZM161.161 18.7071C159.8 17.9065 158.321 17.5 156.75 17.5V20.5C157.78 20.5 158.734 20.7602 159.64 21.2929L161.161 18.7071ZM156.75 17.5C155.194 17.5 153.735 17.8824 152.402 18.6501L153.899 21.2499C154.765 20.751 155.706 20.5 156.75 20.5V17.5ZM152.402 18.6501C151.044 19.4321 149.962 20.5714 149.146 22.0096L151.755 23.4904C152.339 22.4619 153.057 21.7345 153.899 21.2499L152.402 18.6501ZM149.139 22.0215C148.325 23.4874 147.95 25.1827 147.95 27.05H150.95C150.95 25.584 151.243 24.4126 151.762 23.4785L149.139 22.0215ZM147.95 27.05C147.95 28.92 148.326 30.6336 149.123 32.1486L151.778 30.7514C151.242 29.733 150.95 28.5134 150.95 27.05H147.95ZM149.146 32.1904C149.959 33.6232 151.032 34.77 152.373 35.5828L153.928 33.0172C153.069 32.4966 152.342 31.7435 151.755 30.7096L149.146 32.1904ZM152.39 35.5929C153.745 36.3898 155.206 36.8 156.75 36.8V33.8C155.762 33.8 154.823 33.5436 153.911 33.0071L152.39 35.5929ZM156.75 36.8C158.306 36.8 159.775 36.4179 161.132 35.6594L159.669 33.0406C158.759 33.5488 157.795 33.8 156.75 33.8V36.8ZM161.161 35.6429C162.535 34.8345 163.621 33.7016 164.412 32.2785L161.789 30.8215C161.246 31.7984 160.532 32.5322 159.64 33.0571L161.161 35.6429ZM164.42 32.2633C165.228 30.7689 165.6 29.0465 165.6 27.15H162.6C162.6 28.6535 162.306 29.8645 161.781 30.8367L164.42 32.2633ZM186.137 19.05V17.55H184.637V19.05H186.137ZM186.787 34.5L185.726 35.5607L185.767 35.6014L185.811 35.6389L186.787 34.5ZM192.337 35.1H193.837V33.6H192.337V35.1ZM192.337 41V42.5H193.837V41H192.337ZM179.087 19.05H180.587V17.55H179.087V19.05ZM175.787 19.05H174.287V20.55H175.787V19.05ZM175.787 13.3V11.8H174.287V13.3H175.787ZM179.087 13.3V14.8H180.587V13.3H179.087ZM179.087 6.45V4.95H177.587V6.45H179.087ZM186.137 6.45H187.637V4.95H186.137V6.45ZM186.137 13.3H184.637V14.8H186.137V13.3ZM192.337 13.3H193.837V11.8H192.337V13.3ZM192.337 19.05V20.55H193.837V19.05H192.337ZM184.637 19.05V32.45H187.637V19.05H184.637ZM184.637 32.45C184.637 33.5768 184.894 34.7286 185.726 35.5607L187.848 33.4393C187.813 33.4047 187.637 33.1899 187.637 32.45H184.637ZM185.811 35.6389C186.688 36.3908 187.902 36.6 189.087 36.6V33.6C188.139 33.6 187.819 33.4092 187.763 33.3611L185.811 35.6389ZM189.087 36.6H192.337V33.6H189.087V36.6ZM190.837 35.1V41H193.837V35.1H190.837ZM192.337 39.5H187.937V42.5H192.337V39.5ZM187.937 39.5C185.208 39.5 183.438 38.8366 182.345 37.7743C181.26 36.7197 180.587 35.0244 180.587 32.4H177.587C177.587 35.509 178.389 38.1136 180.254 39.9257C182.111 41.7301 184.766 42.5 187.937 42.5V39.5ZM180.587 32.4V19.05H177.587V32.4H180.587ZM179.087 17.55H175.787V20.55H179.087V17.55ZM177.287 19.05V13.3H174.287V19.05H177.287ZM175.787 14.8H179.087V11.8H175.787V14.8ZM180.587 13.3V6.45H177.587V13.3H180.587ZM179.087 7.95H186.137V4.95H179.087V7.95ZM184.637 6.45V13.3H187.637V6.45H184.637ZM186.137 14.8H192.337V11.8H186.137V14.8ZM190.837 13.3V19.05H193.837V13.3H190.837ZM192.337 17.55H186.137V20.55H192.337V17.55ZM197.822 8.85L196.761 9.91066L196.783 9.93275L196.806 9.9539L197.822 8.85ZM197.822 3L198.86 4.08298L198.861 4.08208L197.822 3ZM203.972 3L202.911 4.06066L202.933 4.08275L202.956 4.10389L203.972 3ZM203.972 8.85L205.01 9.93298L205.011 9.93208L203.972 8.85ZM204.372 13.3H205.872V11.8H204.372V13.3ZM204.372 41V42.5H205.872V41H204.372ZM197.372 41H195.872V42.5H197.372V41ZM197.372 13.3V11.8H195.872V13.3H197.372ZM200.922 8.5C200.028 8.5 199.368 8.23437 198.837 7.7461L196.806 9.9539C197.942 10.999 199.349 11.5 200.922 11.5V8.5ZM198.883 7.78934C198.374 7.28031 198.122 6.68272 198.122 5.9H195.122C195.122 7.45061 195.67 8.81969 196.761 9.91066L198.883 7.78934ZM198.122 5.9C198.122 5.11801 198.372 4.5504 198.86 4.08298L196.784 1.91702C195.672 2.98293 195.122 4.34865 195.122 5.9H198.122ZM198.861 4.08208C199.395 3.56958 200.047 3.3 200.922 3.3V0.299998C199.33 0.299998 197.916 0.830419 196.783 1.91792L198.861 4.08208ZM200.922 3.3C201.797 3.3 202.419 3.56871 202.911 4.06066L205.033 1.93934C203.924 0.831287 202.514 0.299998 200.922 0.299998V3.3ZM202.956 4.10389C203.47 4.57691 203.722 5.13844 203.722 5.9H206.722C206.722 4.32823 206.14 2.95642 204.987 1.8961L202.956 4.10389ZM203.722 5.9C203.722 6.66282 203.468 7.25394 202.933 7.76792L205.011 9.93208C206.142 8.84605 206.722 7.47051 206.722 5.9H203.722ZM202.934 7.76702C202.446 8.23487 201.816 8.5 200.922 8.5V11.5C202.494 11.5 203.898 10.9985 205.01 9.93298L202.934 7.76702ZM202.872 13.3V41H205.872V13.3H202.872ZM204.372 39.5H197.372V42.5H204.372V39.5ZM198.872 41V13.3H195.872V41H198.872ZM197.372 14.8H204.372V11.8H197.372V14.8ZM216.388 39.7L215.652 41.0074L215.66 41.0118L215.668 41.0161L216.388 39.7ZM211.338 34.65L210.026 35.3768L210.03 35.3844L210.034 35.392L211.338 34.65ZM211.388 19.65L210.093 18.893L210.089 18.9004L210.084 18.908L211.388 19.65ZM216.538 14.65L217.249 15.9707L217.257 15.9665L217.265 15.9622L216.538 14.65ZM231.038 14.65L230.311 15.9622L230.319 15.9665L230.327 15.9707L231.038 14.65ZM236.138 19.65L234.834 20.392L234.839 20.3996L234.843 20.407L236.138 19.65ZM236.088 34.65L234.802 33.8783L234.797 33.8856L234.793 33.893L236.088 34.65ZM230.888 39.7L231.599 41.0207L231.606 41.0168L230.888 39.7ZM227.138 34.45L227.856 35.7668L227.863 35.7632L227.87 35.7594L227.138 34.45ZM229.838 31.65L231.157 32.3633L229.838 31.65ZM228.738 21.1L227.652 22.1351L227.665 22.148L227.677 22.1607L228.738 21.1ZM218.638 21.1L217.552 20.0649L217.552 20.0655L218.638 21.1ZM218.588 33.25L217.477 34.2577L217.489 34.2713L217.502 34.2845L218.588 33.25ZM223.588 39.95C221.148 39.95 218.999 39.4185 217.108 38.3839L215.668 41.0161C218.043 42.3148 220.695 42.95 223.588 42.95V39.95ZM217.123 38.3926C215.232 37.3286 213.743 35.8427 212.641 33.908L210.034 35.392C211.4 37.7906 213.277 39.6714 215.652 41.0074L217.123 38.3926ZM212.65 33.9232C211.59 32.0093 211.038 29.7661 211.038 27.15H208.038C208.038 30.2005 208.686 32.9574 210.026 35.3768L212.65 33.9232ZM211.038 27.15C211.038 24.5408 211.604 22.3032 212.691 20.392L210.084 18.908C208.705 21.3302 208.038 24.0926 208.038 27.15H211.038ZM212.683 20.407C213.813 18.4733 215.33 17.004 217.249 15.9707L215.827 13.3293C213.412 14.6294 211.496 16.4933 210.093 18.893L212.683 20.407ZM217.265 15.9622C219.192 14.8947 221.355 14.35 223.788 14.35V11.35C220.887 11.35 218.217 12.0053 215.811 13.3378L217.265 15.9622ZM223.788 14.35C226.22 14.35 228.384 14.8947 230.311 15.9622L231.765 13.3378C229.359 12.0053 226.689 11.35 223.788 11.35V14.35ZM230.327 15.9707C232.242 17.0021 233.738 18.4666 234.834 20.392L237.441 18.908C236.071 16.5 234.167 14.6313 231.749 13.3293L230.327 15.9707ZM234.843 20.407C235.959 22.3156 236.538 24.5477 236.538 27.15H239.538C239.538 24.0856 238.85 21.3178 237.433 18.893L234.843 20.407ZM236.538 27.15C236.538 29.7453 235.945 31.9721 234.802 33.8783L237.374 35.4217C238.83 32.9946 239.538 30.2214 239.538 27.15H236.538ZM234.793 33.893C233.664 35.8244 232.13 37.314 230.17 38.3832L231.606 41.0168C234.046 39.686 235.979 37.8089 237.383 35.407L234.793 33.893ZM230.177 38.3793C228.249 39.4171 226.064 39.95 223.588 39.95V42.95C226.511 42.95 229.193 42.3162 231.599 41.0207L230.177 38.3793ZM223.588 36.85C225.103 36.85 226.533 36.4884 227.856 35.7668L226.42 33.1332C225.542 33.6116 224.606 33.85 223.588 33.85V36.85ZM227.87 35.7594C229.271 34.9761 230.367 33.8262 231.157 32.3633L228.518 30.9367C227.976 31.9404 227.271 32.6573 226.406 33.1406L227.87 35.7594ZM231.157 32.3633C231.969 30.8611 232.338 29.1022 232.338 27.15H229.338C229.338 28.7311 229.04 29.9723 228.518 30.9367L231.157 32.3633ZM232.338 27.15C232.338 24.2546 231.563 21.804 229.799 20.0393L227.677 22.1607C228.713 23.196 229.338 24.7787 229.338 27.15H232.338ZM229.824 20.0649C228.171 18.3314 226.094 17.45 223.688 17.45V20.45C225.282 20.45 226.572 21.002 227.652 22.1351L229.824 20.0649ZM223.688 17.45C221.282 17.45 219.205 18.3314 217.552 20.0649L219.723 22.1351C220.804 21.002 222.094 20.45 223.688 20.45V17.45ZM217.552 20.0655C215.869 21.8326 215.138 24.2734 215.138 27.15H218.138C218.138 24.7599 218.74 23.1674 219.724 22.1345L217.552 20.0655ZM215.138 27.15C215.138 30.02 215.848 32.4621 217.477 34.2577L219.699 32.2423C218.728 31.1713 218.138 29.5467 218.138 27.15H215.138ZM217.502 34.2845C219.129 35.9931 221.193 36.85 223.588 36.85V33.85C221.982 33.85 220.714 33.3069 219.674 32.2155L217.502 34.2845ZM266.523 16.05L265.445 17.0934L265.453 17.102L266.523 16.05ZM269.573 41V42.5H271.073V41H269.573ZM262.573 41H261.073V42.5H262.573V41ZM260.923 20.65L259.817 21.6636L259.824 21.6714L259.831 21.679L260.923 20.65ZM251.823 20.65L250.732 19.6201L250.731 19.621L251.823 20.65ZM250.173 41V42.5H251.673V41H250.173ZM243.173 41H241.673V42.5H243.173V41ZM243.173 13.3V11.8H241.673V13.3H243.173ZM250.173 13.3H251.673V11.8H250.173V13.3ZM250.173 16.75H248.673V21.1218L251.357 17.6709L250.173 16.75ZM253.723 13.95L254.355 15.3101L254.362 15.3069L254.369 15.3037L253.723 13.95ZM258.523 14.4C261.474 14.4 263.732 15.3241 265.445 17.0934L267.6 15.0066C265.247 12.5759 262.171 11.4 258.523 11.4V14.4ZM265.453 17.102C267.138 18.8139 268.073 21.2921 268.073 24.75H271.073C271.073 20.7412 269.974 17.4195 267.592 14.998L265.453 17.102ZM268.073 24.75V41H271.073V24.75H268.073ZM269.573 39.5H262.573V42.5H269.573V39.5ZM264.073 41V25.7H261.073V41H264.073ZM264.073 25.7C264.073 23.2617 263.461 21.1557 262.014 19.621L259.831 21.679C260.584 22.4776 261.073 23.7383 261.073 25.7H264.073ZM262.028 19.6364C260.596 18.074 258.666 17.35 256.423 17.35V20.35C257.979 20.35 259.049 20.826 259.817 21.6636L262.028 19.6364ZM256.423 17.35C254.154 17.35 252.198 18.0683 250.732 19.6201L252.913 21.6799C253.714 20.8317 254.825 20.35 256.423 20.35V17.35ZM250.731 19.621C249.284 21.1557 248.673 23.2617 248.673 25.7H251.673C251.673 23.7383 252.161 22.4776 252.914 21.679L250.731 19.621ZM248.673 25.7V41H251.673V25.7H248.673ZM250.173 39.5H243.173V42.5H250.173V39.5ZM244.673 41V13.3H241.673V41H244.673ZM243.173 14.8H250.173V11.8H243.173V14.8ZM248.673 13.3V16.75H251.673V13.3H248.673ZM251.357 17.6709C252.138 16.6666 253.129 15.8804 254.355 15.3101L253.09 12.5899C251.45 13.353 250.074 14.4334 248.989 15.8291L251.357 17.6709ZM254.369 15.3037C255.62 14.7064 256.998 14.4 258.523 14.4V11.4C256.581 11.4 254.758 11.7936 253.077 12.5963L254.369 15.3037Z" fill="white" mask="url(#path-1-outside-1_1_309)"/>
</svg>
