<svg width="275" height="43" viewBox="0 0 275 43" fill="none" xmlns="http://www.w3.org/2000/svg">
<mask id="path-1-outside-1_1_326" maskUnits="userSpaceOnUse" x="0" y="0" width="275" height="43" fill="black">
<rect fill="white" width="275" height="43"/>
<path d="M9.45 6.1V41H2.45V6.1H9.45ZM31.716 12.9C35.016 12.9 37.6827 13.95 39.716 16.05C41.7493 18.1167 42.766 21.0167 42.766 24.75V41H35.766V25.7C35.766 23.5 35.216 21.8167 34.116 20.65C33.016 19.45 31.516 18.85 29.616 18.85C27.6827 18.85 26.1493 19.45 25.016 20.65C23.916 21.8167 23.366 23.5 23.366 25.7V41H16.366V13.3H23.366V16.75C24.2993 15.55 25.4827 14.6167 26.916 13.95C28.3827 13.25 29.9827 12.9 31.716 12.9ZM57.5727 19.05V32.45C57.5727 33.3833 57.7893 34.0667 58.2227 34.5C58.6893 34.9 59.456 35.1 60.5227 35.1H63.7727V41H59.3727C53.4727 41 50.5227 38.1333 50.5227 32.4V19.05H47.2227V13.3H50.5227V6.45H57.5727V13.3H63.7727V19.05H57.5727ZM94.5574 26.55C94.5574 27.55 94.4908 28.45 94.3574 29.25H74.1074C74.2741 31.25 74.9741 32.8167 76.2074 33.95C77.4408 35.0833 78.9574 35.65 80.7574 35.65C83.3574 35.65 85.2074 34.5333 86.3074 32.3H93.8574C93.0574 34.9667 91.5241 37.1667 89.2574 38.9C86.9908 40.6 84.2074 41.45 80.9074 41.45C78.2408 41.45 75.8408 40.8667 73.7074 39.7C71.6074 38.5 69.9574 36.8167 68.7574 34.65C67.5908 32.4833 67.0074 29.9833 67.0074 27.15C67.0074 24.2833 67.5908 21.7667 68.7574 19.6C69.9241 17.4333 71.5574 15.7667 73.6574 14.6C75.7574 13.4333 78.1741 12.85 80.9074 12.85C83.5408 12.85 85.8908 13.4167 87.9574 14.55C90.0574 15.6833 91.6741 17.3 92.8074 19.4C93.9741 21.4667 94.5574 23.85 94.5574 26.55ZM87.3074 24.55C87.2741 22.75 86.6241 21.3167 85.3574 20.25C84.0908 19.15 82.5408 18.6 80.7074 18.6C78.9741 18.6 77.5074 19.1333 76.3074 20.2C75.1408 21.2333 74.4241 22.6833 74.1574 24.55H87.3074ZM106.667 17.6C107.567 16.1333 108.733 14.9833 110.167 14.15C111.633 13.3167 113.3 12.9 115.167 12.9V20.25H113.317C111.117 20.25 109.45 20.7667 108.317 21.8C107.217 22.8333 106.667 24.6333 106.667 27.2V41H99.6668V13.3H106.667V17.6ZM118.082 27.05C118.082 24.25 118.632 21.7667 119.732 19.6C120.865 17.4333 122.382 15.7667 124.282 14.6C126.215 13.4333 128.365 12.85 130.732 12.85C132.798 12.85 134.598 13.2667 136.132 14.1C137.698 14.9333 138.948 15.9833 139.882 17.25V13.3H146.932V41H139.882V36.95C138.982 38.25 137.732 39.3333 136.132 40.2C134.565 41.0333 132.748 41.45 130.682 41.45C128.348 41.45 126.215 40.85 124.282 39.65C122.382 38.45 120.865 36.7667 119.732 34.6C118.632 32.4 118.082 29.8833 118.082 27.05ZM139.882 27.15C139.882 25.45 139.548 24 138.882 22.8C138.215 21.5667 137.315 20.6333 136.182 20C135.048 19.3333 133.832 19 132.532 19C131.232 19 130.032 19.3167 128.932 19.95C127.832 20.5833 126.932 21.5167 126.232 22.75C125.565 23.95 125.232 25.3833 125.232 27.05C125.232 28.7167 125.565 30.1833 126.232 31.45C126.932 32.6833 127.832 33.6333 128.932 34.3C130.065 34.9667 131.265 35.3 132.532 35.3C133.832 35.3 135.048 34.9833 136.182 34.35C137.315 33.6833 138.215 32.75 138.882 31.55C139.548 30.3167 139.882 28.85 139.882 27.15ZM151.968 27.15C151.968 24.2833 152.552 21.7833 153.718 19.65C154.885 17.4833 156.502 15.8167 158.568 14.65C160.635 13.45 163.002 12.85 165.668 12.85C169.102 12.85 171.935 13.7167 174.168 15.45C176.435 17.15 177.952 19.55 178.718 22.65H171.168C170.768 21.45 170.085 20.5167 169.118 19.85C168.185 19.15 167.018 18.8 165.618 18.8C163.618 18.8 162.035 19.5333 160.868 21C159.702 22.4333 159.118 24.4833 159.118 27.15C159.118 29.7833 159.702 31.8333 160.868 33.3C162.035 34.7333 163.618 35.45 165.618 35.45C168.452 35.45 170.302 34.1833 171.168 31.65H178.718C177.952 34.65 176.435 37.0333 174.168 38.8C171.902 40.5667 169.068 41.45 165.668 41.45C163.002 41.45 160.635 40.8667 158.568 39.7C156.502 38.5 154.885 36.8333 153.718 34.7C152.552 32.5333 151.968 30.0167 151.968 27.15ZM191.996 19.05V32.45C191.996 33.3833 192.213 34.0667 192.646 34.5C193.113 34.9 193.88 35.1 194.946 35.1H198.196V41H193.796C187.896 41 184.946 38.1333 184.946 32.4V19.05H181.646V13.3H184.946V6.45H191.996V13.3H198.196V19.05H191.996ZM206.781 10C205.548 10 204.515 9.61667 203.681 8.85C202.881 8.05 202.481 7.06666 202.481 5.9C202.481 4.73333 202.881 3.76666 203.681 3C204.515 2.2 205.548 1.8 206.781 1.8C208.015 1.8 209.031 2.2 209.831 3C210.665 3.76666 211.081 4.73333 211.081 5.9C211.081 7.06666 210.665 8.05 209.831 8.85C209.031 9.61667 208.015 10 206.781 10ZM210.231 13.3V41H203.231V13.3H210.231ZM228.697 34.55L235.697 13.3H243.147L232.897 41H224.397L214.197 13.3H221.697L228.697 34.55ZM272.829 26.55C272.829 27.55 272.762 28.45 272.629 29.25H252.379C252.546 31.25 253.246 32.8167 254.479 33.95C255.712 35.0833 257.229 35.65 259.029 35.65C261.629 35.65 263.479 34.5333 264.579 32.3H272.129C271.329 34.9667 269.796 37.1667 267.529 38.9C265.262 40.6 262.479 41.45 259.179 41.45C256.512 41.45 254.112 40.8667 251.979 39.7C249.879 38.5 248.229 36.8167 247.029 34.65C245.862 32.4833 245.279 29.9833 245.279 27.15C245.279 24.2833 245.862 21.7667 247.029 19.6C248.196 17.4333 249.829 15.7667 251.929 14.6C254.029 13.4333 256.446 12.85 259.179 12.85C261.812 12.85 264.162 13.4167 266.229 14.55C268.329 15.6833 269.946 17.3 271.079 19.4C272.246 21.4667 272.829 23.85 272.829 26.55ZM265.579 24.55C265.546 22.75 264.896 21.3167 263.629 20.25C262.362 19.15 260.812 18.6 258.979 18.6C257.246 18.6 255.779 19.1333 254.579 20.2C253.412 21.2333 252.696 22.6833 252.429 24.55H265.579Z"/>
</mask>
<path d="M9.45 6.1H10.95V4.6H9.45V6.1ZM9.45 41V42.5H10.95V41H9.45ZM2.45 41H0.95V42.5H2.45V41ZM2.45 6.1V4.6H0.95V6.1H2.45ZM7.95 6.1V41H10.95V6.1H7.95ZM9.45 39.5H2.45V42.5H9.45V39.5ZM3.95 41V6.1H0.95V41H3.95ZM2.45 7.6H9.45V4.6H2.45V7.6ZM39.716 16.05L38.6384 17.0934L38.6468 17.102L39.716 16.05ZM42.766 41V42.5H44.266V41H42.766ZM35.766 41H34.266V42.5H35.766V41ZM34.116 20.65L33.0103 21.6636L33.0174 21.6714L33.0246 21.679L34.116 20.65ZM25.016 20.65L23.9255 19.6201L23.9246 19.621L25.016 20.65ZM23.366 41V42.5H24.866V41H23.366ZM16.366 41H14.866V42.5H16.366V41ZM16.366 13.3V11.8H14.866V13.3H16.366ZM23.366 13.3H24.866V11.8H23.366V13.3ZM23.366 16.75H21.866V21.1218L24.55 17.6709L23.366 16.75ZM26.916 13.95L27.5486 15.3101L27.5554 15.3069L27.5621 15.3037L26.916 13.95ZM31.716 14.4C34.6672 14.4 36.9252 15.3241 38.6384 17.0934L40.7936 15.0066C38.4402 12.5759 35.3648 11.4 31.716 11.4V14.4ZM38.6468 17.102C40.331 18.8139 41.266 21.2921 41.266 24.75H44.266C44.266 20.7412 43.1677 17.4195 40.7853 14.998L38.6468 17.102ZM41.266 24.75V41H44.266V24.75H41.266ZM42.766 39.5H35.766V42.5H42.766V39.5ZM37.266 41V25.7H34.266V41H37.266ZM37.266 25.7C37.266 23.2617 36.6544 21.1557 35.2074 19.621L33.0246 21.679C33.7776 22.4776 34.266 23.7383 34.266 25.7H37.266ZM35.2217 19.6364C33.7895 18.074 31.8595 17.35 29.616 17.35V20.35C31.1725 20.35 32.2425 20.826 33.0103 21.6636L35.2217 19.6364ZM29.616 17.35C27.3469 17.35 25.391 18.0683 23.9255 19.6201L26.1065 21.6799C26.9077 20.8317 28.0184 20.35 29.616 20.35V17.35ZM23.9246 19.621C22.4776 21.1557 21.866 23.2617 21.866 25.7H24.866C24.866 23.7383 25.3544 22.4776 26.1074 21.679L23.9246 19.621ZM21.866 25.7V41H24.866V25.7H21.866ZM23.366 39.5H16.366V42.5H23.366V39.5ZM17.866 41V13.3H14.866V41H17.866ZM16.366 14.8H23.366V11.8H16.366V14.8ZM21.866 13.3V16.75H24.866V13.3H21.866ZM24.55 17.6709C25.3312 16.6666 26.3225 15.8804 27.5486 15.3101L26.2834 12.5899C24.6429 13.353 23.2675 14.4334 22.182 15.8291L24.55 17.6709ZM27.5621 15.3037C28.8137 14.7064 30.1911 14.4 31.716 14.4V11.4C29.7743 11.4 27.9516 11.7936 26.2699 12.5963L27.5621 15.3037ZM57.5727 19.05V17.55H56.0727V19.05H57.5727ZM58.2227 34.5L57.162 35.5607L57.2027 35.6014L57.2465 35.6389L58.2227 34.5ZM63.7727 35.1H65.2727V33.6H63.7727V35.1ZM63.7727 41V42.5H65.2727V41H63.7727ZM50.5227 19.05H52.0227V17.55H50.5227V19.05ZM47.2227 19.05H45.7227V20.55H47.2227V19.05ZM47.2227 13.3V11.8H45.7227V13.3H47.2227ZM50.5227 13.3V14.8H52.0227V13.3H50.5227ZM50.5227 6.45V4.95H49.0227V6.45H50.5227ZM57.5727 6.45H59.0727V4.95H57.5727V6.45ZM57.5727 13.3H56.0727V14.8H57.5727V13.3ZM63.7727 13.3H65.2727V11.8H63.7727V13.3ZM63.7727 19.05V20.55H65.2727V19.05H63.7727ZM56.0727 19.05V32.45H59.0727V19.05H56.0727ZM56.0727 32.45C56.0727 33.5768 56.33 34.7286 57.162 35.5607L59.2833 33.4393C59.2487 33.4047 59.0727 33.1899 59.0727 32.45H56.0727ZM57.2465 35.6389C58.1238 36.3908 59.3373 36.6 60.5227 36.6V33.6C59.5747 33.6 59.2549 33.4092 59.1988 33.3611L57.2465 35.6389ZM60.5227 36.6H63.7727V33.6H60.5227V36.6ZM62.2727 35.1V41H65.2727V35.1H62.2727ZM63.7727 39.5H59.3727V42.5H63.7727V39.5ZM59.3727 39.5C56.6433 39.5 54.8737 38.8366 53.7805 37.7743C52.6953 36.7197 52.0227 35.0244 52.0227 32.4H49.0227C49.0227 35.509 49.825 38.1136 51.6898 39.9257C53.5466 41.7301 56.202 42.5 59.3727 42.5V39.5ZM52.0227 32.4V19.05H49.0227V32.4H52.0227ZM50.5227 17.55H47.2227V20.55H50.5227V17.55ZM48.7227 19.05V13.3H45.7227V19.05H48.7227ZM47.2227 14.8H50.5227V11.8H47.2227V14.8ZM52.0227 13.3V6.45H49.0227V13.3H52.0227ZM50.5227 7.95H57.5727V4.95H50.5227V7.95ZM56.0727 6.45V13.3H59.0727V6.45H56.0727ZM57.5727 14.8H63.7727V11.8H57.5727V14.8ZM62.2727 13.3V19.05H65.2727V13.3H62.2727ZM63.7727 17.55H57.5727V20.55H63.7727V17.55ZM94.3574 29.25V30.75H95.6281L95.837 29.4966L94.3574 29.25ZM74.1074 29.25V27.75H72.4772L72.6126 29.3746L74.1074 29.25ZM76.2074 33.95L75.1925 35.0545V35.0545L76.2074 33.95ZM86.3074 32.3V30.8H85.3742L84.9618 31.6372L86.3074 32.3ZM93.8574 32.3L95.2942 32.731L95.8735 30.8H93.8574V32.3ZM89.2574 38.9L90.1575 40.1001L90.1686 40.0915L89.2574 38.9ZM73.7074 39.7L72.9632 41.0024L72.9754 41.0093L72.9877 41.0161L73.7074 39.7ZM68.7574 34.65L67.4367 35.3611L67.4409 35.369L67.4452 35.3768L68.7574 34.65ZM68.7574 19.6L67.4367 18.8888L68.7574 19.6ZM73.6574 14.6L74.3859 15.9112L73.6574 14.6ZM87.9574 14.55L87.2362 15.8652L87.245 15.87L87.9574 14.55ZM92.8074 19.4L91.4874 20.1124L91.4942 20.125L91.5012 20.1374L92.8074 19.4ZM87.3074 24.55V26.05H88.8355L88.8072 24.5222L87.3074 24.55ZM85.3574 20.25L84.3739 21.3825L84.3825 21.39L84.3912 21.3974L85.3574 20.25ZM76.3074 20.2L77.302 21.3229L77.304 21.3211L76.3074 20.2ZM74.1574 24.55L72.6725 24.3379L72.4279 26.05H74.1574V24.55ZM93.0574 26.55C93.0574 27.4856 92.9949 28.3011 92.8778 29.0034L95.837 29.4966C95.9866 28.5989 96.0574 27.6144 96.0574 26.55H93.0574ZM94.3574 27.75H74.1074V30.75H94.3574V27.75ZM72.6126 29.3746C72.804 31.6712 73.6287 33.6175 75.1925 35.0545L77.2224 32.8455C76.3194 32.0158 75.7442 30.8288 75.6022 29.1254L72.6126 29.3746ZM75.1925 35.0545C76.7244 36.4622 78.6121 37.15 80.7574 37.15V34.15C79.3027 34.15 78.1571 33.7045 77.2224 32.8455L75.1925 35.0545ZM80.7574 37.15C82.2749 37.15 83.6676 36.8225 84.8701 36.0967C86.0764 35.3685 86.996 34.2968 87.6531 32.9628L84.9618 31.6372C84.5189 32.5365 83.9635 33.1398 83.3198 33.5283C82.6722 33.9192 81.84 34.15 80.7574 34.15V37.15ZM86.3074 33.8H93.8574V30.8H86.3074V33.8ZM92.4207 31.869C91.7138 34.2252 90.3687 36.1619 88.3462 37.7085L90.1686 40.0915C92.6795 38.1715 94.401 35.7082 95.2942 32.731L92.4207 31.869ZM88.3574 37.7C86.3915 39.1744 83.9384 39.95 80.9074 39.95V42.95C84.4765 42.95 87.59 42.0256 90.1574 40.1L88.3574 37.7ZM80.9074 39.95C78.4674 39.95 76.3189 39.4185 74.4271 38.3839L72.9877 41.0161C75.3626 42.3148 78.0141 42.95 80.9074 42.95V39.95ZM74.4516 38.3976C72.596 37.3373 71.1399 35.8557 70.0696 33.9232L67.4452 35.3768C68.7749 37.7776 70.6188 39.6627 72.9632 41.0024L74.4516 38.3976ZM70.0781 33.9389C69.0459 32.0218 68.5074 29.773 68.5074 27.15H65.5074C65.5074 30.1937 66.1356 32.9448 67.4367 35.3611L70.0781 33.9389ZM68.5074 27.15C68.5074 24.4904 69.0472 22.2257 70.0781 20.3111L67.4367 18.8888C66.1343 21.3076 65.5074 24.0762 65.5074 27.15H68.5074ZM70.0781 20.3111C71.1123 18.3905 72.543 16.9351 74.3859 15.9112L72.929 13.2888C70.5719 14.5983 68.7359 16.4761 67.4367 18.8888L70.0781 20.3111ZM74.3859 15.9112C76.2339 14.8846 78.3934 14.35 80.9074 14.35V11.35C77.9548 11.35 75.281 11.9821 72.929 13.2888L74.3859 15.9112ZM80.9074 14.35C83.3187 14.35 85.4155 14.8668 87.2362 15.8652L88.6787 13.2348C86.366 11.9665 83.7628 11.35 80.9074 11.35V14.35ZM87.245 15.87C89.0876 16.8644 90.493 18.2699 91.4874 20.1124L94.1275 18.6876C92.8552 16.3301 91.0273 14.5023 88.6698 13.23L87.245 15.87ZM91.5012 20.1374C92.5242 21.9496 93.0574 24.0723 93.0574 26.55H96.0574C96.0574 23.6277 95.424 20.9838 94.1137 18.6626L91.5012 20.1374ZM88.8072 24.5222C88.7666 22.332 87.9525 20.4743 86.3236 19.1026L84.3912 21.3974C85.2957 22.159 85.7816 23.168 85.8077 24.5778L88.8072 24.5222ZM86.341 19.1174C84.7753 17.7578 82.866 17.1 80.7074 17.1V20.1C82.2155 20.1 83.4062 20.5422 84.3739 21.3825L86.341 19.1174ZM80.7074 17.1C78.6384 17.1 76.8083 17.7479 75.3109 19.0789L77.304 21.3211C78.2066 20.5188 79.3097 20.1 80.7074 20.1V17.1ZM75.3129 19.0771C73.827 20.3932 72.9785 22.1961 72.6725 24.3379L75.6423 24.7621C75.8697 23.1706 76.4546 22.0735 77.302 21.3229L75.3129 19.0771ZM74.1574 26.05H87.3074V23.05H74.1574V26.05ZM106.667 17.6H105.167V22.9124L107.945 18.3845L106.667 17.6ZM110.167 14.15L109.426 12.8458L109.419 12.8495L109.413 12.8532L110.167 14.15ZM115.167 12.9H116.667V11.4H115.167V12.9ZM115.167 20.25V21.75H116.667V20.25H115.167ZM108.317 21.8L107.306 20.6916L107.298 20.6991L107.29 20.7067L108.317 21.8ZM106.667 41V42.5H108.167V41H106.667ZM99.6668 41H98.1668V42.5H99.6668V41ZM99.6668 13.3V11.8H98.1668V13.3H99.6668ZM106.667 13.3H108.167V11.8H106.667V13.3ZM107.945 18.3845C108.721 17.121 109.71 16.1506 110.921 15.4468L109.413 12.8532C107.757 13.8161 106.413 15.1456 105.388 16.8155L107.945 18.3845ZM110.908 15.4542C112.125 14.7625 113.532 14.4 115.167 14.4V11.4C113.069 11.4 111.142 11.8708 109.426 12.8458L110.908 15.4542ZM113.667 12.9V20.25H116.667V12.9H113.667ZM115.167 18.75H113.317V21.75H115.167V18.75ZM113.317 18.75C110.904 18.75 108.815 19.3155 107.306 20.6916L109.327 22.9084C110.085 22.2178 111.33 21.75 113.317 21.75V18.75ZM107.29 20.7067C105.734 22.1685 105.167 24.4937 105.167 27.2H108.167C108.167 24.7729 108.7 23.4982 109.344 22.8933L107.29 20.7067ZM105.167 27.2V41H108.167V27.2H105.167ZM106.667 39.5H99.6668V42.5H106.667V39.5ZM101.167 41V13.3H98.1668V41H101.167ZM99.6668 14.8H106.667V11.8H99.6668V14.8ZM105.167 13.3V17.6H108.167V13.3H105.167ZM119.732 19.6L118.402 18.9048L118.398 18.9128L118.394 18.921L119.732 19.6ZM124.282 14.6L123.507 13.3157L123.497 13.3217L124.282 14.6ZM136.132 14.1L135.415 15.418L135.427 15.4243L136.132 14.1ZM139.882 17.25L138.674 18.1398L141.382 21.8144V17.25H139.882ZM139.882 13.3V11.8H138.382V13.3H139.882ZM146.932 13.3H148.432V11.8H146.932V13.3ZM146.932 41V42.5H148.432V41H146.932ZM139.882 41H138.382V42.5H139.882V41ZM139.882 36.95H141.382V32.1481L138.648 36.0962L139.882 36.95ZM136.132 40.2L136.836 41.5243L136.846 41.5189L136.132 40.2ZM124.282 39.65L123.481 40.9183L123.491 40.9245L124.282 39.65ZM119.732 34.6L118.39 35.2708L118.396 35.2831L118.402 35.2952L119.732 34.6ZM138.882 22.8L137.562 23.5133L137.566 23.5209L137.57 23.5285L138.882 22.8ZM136.182 20L135.421 21.2929L135.435 21.3013L135.45 21.3094L136.182 20ZM128.932 19.95L128.183 18.6501L128.932 19.95ZM126.232 22.75L124.927 22.0096L124.92 22.0215L126.232 22.75ZM126.232 31.45L124.904 32.1486L124.915 32.1697L124.927 32.1904L126.232 31.45ZM128.932 34.3L128.154 35.5828L128.163 35.5879L128.171 35.5929L128.932 34.3ZM136.182 34.35L136.913 35.6594L136.928 35.6513L136.942 35.6429L136.182 34.35ZM138.882 31.55L140.193 32.2785L140.197 32.2709L140.201 32.2633L138.882 31.55ZM119.582 27.05C119.582 24.4499 120.091 22.2053 121.069 20.279L118.394 18.921C117.172 21.328 116.582 24.0501 116.582 27.05H119.582ZM121.061 20.2952C122.081 18.3446 123.419 16.8898 125.067 15.8783L123.497 13.3217C121.344 14.6436 119.649 16.5221 118.402 18.9048L121.061 20.2952ZM125.057 15.8843C126.745 14.8657 128.624 14.35 130.732 14.35V11.35C128.106 11.35 125.685 12.001 123.507 13.3157L125.057 15.8843ZM130.732 14.35C132.594 14.35 134.139 14.7243 135.415 15.4179L136.848 12.7821C135.058 11.809 133.002 11.35 130.732 11.35V14.35ZM135.427 15.4243C136.821 16.1658 137.89 17.0756 138.674 18.1398L141.089 16.3602C140.007 14.891 138.575 13.7009 136.836 12.7757L135.427 15.4243ZM141.382 17.25V13.3H138.382V17.25H141.382ZM139.882 14.8H146.932V11.8H139.882V14.8ZM145.432 13.3V41H148.432V13.3H145.432ZM146.932 39.5H139.882V42.5H146.932V39.5ZM141.382 41V36.95H138.382V41H141.382ZM138.648 36.0962C137.901 37.1752 136.841 38.1096 135.417 38.8811L136.846 41.5189C138.622 40.5571 140.062 39.3248 141.115 37.8038L138.648 36.0962ZM135.427 38.8757C134.111 39.576 132.543 39.95 130.682 39.95V42.95C132.953 42.95 135.019 42.4907 136.836 41.5243L135.427 38.8757ZM130.682 39.95C128.62 39.95 126.762 39.4242 125.073 38.3755L123.491 40.9245C125.668 42.2758 128.076 42.95 130.682 42.95V39.95ZM125.083 38.3818C123.426 37.3352 122.083 35.8585 121.061 33.9048L118.402 35.2952C119.647 37.6748 121.338 39.5648 123.481 40.9182L125.083 38.3818ZM121.073 33.9292C120.092 31.967 119.582 29.6859 119.582 27.05H116.582C116.582 30.0807 117.171 32.833 118.39 35.2708L121.073 33.9292ZM141.382 27.15C141.382 25.2551 141.01 23.5415 140.193 22.0715L137.57 23.5285C138.087 24.4585 138.382 25.6449 138.382 27.15H141.382ZM140.201 22.0867C139.41 20.6238 138.315 19.4739 136.913 18.6906L135.45 21.3094C136.315 21.7927 137.02 22.5096 137.562 23.5133L140.201 22.0867ZM136.942 18.7071C135.581 17.9065 134.102 17.5 132.532 17.5V20.5C133.561 20.5 134.516 20.7602 135.421 21.2929L136.942 18.7071ZM132.532 17.5C130.976 17.5 129.517 17.8824 128.183 18.6501L129.68 21.2499C130.547 20.751 131.488 20.5 132.532 20.5V17.5ZM128.183 18.6501C126.825 19.4321 125.743 20.5714 124.927 22.0096L127.536 23.4904C128.12 22.4619 128.838 21.7345 129.68 21.2499L128.183 18.6501ZM124.92 22.0215C124.106 23.4874 123.732 25.1827 123.732 27.05H126.732C126.732 25.584 127.024 24.4126 127.543 23.4785L124.92 22.0215ZM123.732 27.05C123.732 28.92 124.107 30.6336 124.904 32.1486L127.559 30.7514C127.023 29.733 126.732 28.5134 126.732 27.05H123.732ZM124.927 32.1904C125.74 33.6232 126.813 34.77 128.154 35.5828L129.709 33.0172C128.85 32.4966 128.123 31.7435 127.536 30.7096L124.927 32.1904ZM128.171 35.5929C129.526 36.3898 130.987 36.8 132.532 36.8V33.8C131.543 33.8 130.604 33.5436 129.692 33.0071L128.171 35.5929ZM132.532 36.8C134.087 36.8 135.556 36.4179 136.913 35.6594L135.45 33.0406C134.541 33.5488 133.576 33.8 132.532 33.8V36.8ZM136.942 35.6429C138.316 34.8345 139.402 33.7016 140.193 32.2785L137.57 30.8215C137.028 31.7984 136.313 32.5322 135.421 33.0571L136.942 35.6429ZM140.201 32.2633C141.009 30.7689 141.382 29.0465 141.382 27.15H138.382C138.382 28.6535 138.088 29.8645 137.562 30.8367L140.201 32.2633ZM153.718 19.65L155.034 20.3697L155.039 20.3611L153.718 19.65ZM158.568 14.65L159.306 15.9562L159.314 15.9518L159.322 15.9472L158.568 14.65ZM174.168 15.45L173.249 16.635L173.258 16.6426L173.268 16.65L174.168 15.45ZM178.718 22.65V24.15H180.635L180.174 22.2899L178.718 22.65ZM171.168 22.65L169.745 23.1243L170.087 24.15H171.168V22.65ZM169.118 19.85L168.218 21.05L168.242 21.0679L168.267 21.0848L169.118 19.85ZM160.868 21L162.032 21.9469L162.037 21.9404L162.042 21.9338L160.868 21ZM160.868 33.3L159.694 34.2338L159.7 34.2404L159.705 34.2469L160.868 33.3ZM171.168 31.65V30.15H170.096L169.749 31.1645L171.168 31.65ZM178.718 31.65L180.172 32.0214L180.65 30.15H178.718V31.65ZM174.168 38.8L175.09 39.9831L174.168 38.8ZM158.568 39.7L157.815 40.9972L157.823 41.0018L157.831 41.0062L158.568 39.7ZM153.718 34.7L152.398 35.4112L152.402 35.4197L153.718 34.7ZM153.468 27.15C153.468 24.4898 154.008 22.2459 155.034 20.3697L152.402 18.9303C151.095 21.3208 150.468 24.0769 150.468 27.15H153.468ZM155.039 20.3611C156.077 18.4343 157.495 16.9783 159.306 15.9562L157.831 13.3438C155.508 14.655 153.693 16.5324 152.398 18.9388L155.039 20.3611ZM159.322 15.9472C161.134 14.8949 163.235 14.35 165.668 14.35V11.35C162.769 11.35 160.136 12.0051 157.815 13.3528L159.322 15.9472ZM165.668 14.35C168.842 14.35 171.331 15.1467 173.249 16.635L175.088 14.265C172.539 12.2866 169.361 11.35 165.668 11.35V14.35ZM173.268 16.65C175.223 18.1162 176.567 20.2006 177.262 23.0101L180.174 22.2899C179.336 18.8994 177.647 16.1838 175.068 14.25L173.268 16.65ZM178.718 21.15H171.168V24.15H178.718V21.15ZM172.591 22.1757C172.097 20.6922 171.226 19.4812 169.97 18.6152L168.267 21.0848C168.944 21.5521 169.44 22.2078 169.745 23.1243L172.591 22.1757ZM170.018 18.65C168.777 17.7187 167.276 17.3 165.618 17.3V20.3C166.761 20.3 167.593 20.5813 168.218 21.05L170.018 18.65ZM165.618 17.3C163.197 17.3 161.167 18.215 159.694 20.0662L162.042 21.9338C162.903 20.8517 164.04 20.3 165.618 20.3V17.3ZM159.705 20.0531C158.242 21.8503 157.618 24.2873 157.618 27.15H160.618C160.618 24.6794 161.161 23.0164 162.032 21.9469L159.705 20.0531ZM157.618 27.15C157.618 29.9876 158.246 32.4125 159.694 34.2338L162.042 32.3662C161.158 31.2542 160.618 29.579 160.618 27.15H157.618ZM159.705 34.2469C161.182 36.0618 163.209 36.95 165.618 36.95V33.95C164.027 33.95 162.888 33.4049 162.032 32.3531L159.705 34.2469ZM165.618 36.95C167.258 36.95 168.745 36.582 169.978 35.7377C171.219 34.8884 172.071 33.6469 172.588 32.1355L169.749 31.1645C169.399 32.1865 168.893 32.845 168.283 33.2623C167.667 33.6846 166.812 33.95 165.618 33.95V36.95ZM171.168 33.15H178.718V30.15H171.168V33.15ZM177.265 31.2786C176.574 33.9832 175.23 36.0707 173.246 37.6169L175.09 39.9831C177.64 37.9959 179.33 35.3168 180.172 32.0214L177.265 31.2786ZM173.246 37.6169C171.289 39.1423 168.798 39.95 165.668 39.95V42.95C169.339 42.95 172.514 41.991 175.09 39.9831L173.246 37.6169ZM165.668 39.95C163.228 39.95 161.121 39.4183 159.306 38.3938L157.831 41.0062C160.149 42.315 162.776 42.95 165.668 42.95V39.95ZM159.322 38.4028C157.496 37.3428 156.072 35.8778 155.034 33.9803L152.402 35.4197C153.698 37.7889 155.507 39.6572 157.815 40.9972L159.322 38.4028ZM155.039 33.9888C154.008 32.0743 153.468 29.8096 153.468 27.15H150.468C150.468 30.2238 151.095 32.9924 152.398 35.4111L155.039 33.9888ZM191.996 19.05V17.55H190.496V19.05H191.996ZM192.646 34.5L191.586 35.5607L191.627 35.6014L191.67 35.6389L192.646 34.5ZM198.196 35.1H199.696V33.6H198.196V35.1ZM198.196 41V42.5H199.696V41H198.196ZM184.946 19.05H186.446V17.55H184.946V19.05ZM181.646 19.05H180.146V20.55H181.646V19.05ZM181.646 13.3V11.8H180.146V13.3H181.646ZM184.946 13.3V14.8H186.446V13.3H184.946ZM184.946 6.45V4.95H183.446V6.45H184.946ZM191.996 6.45H193.496V4.95H191.996V6.45ZM191.996 13.3H190.496V14.8H191.996V13.3ZM198.196 13.3H199.696V11.8H198.196V13.3ZM198.196 19.05V20.55H199.696V19.05H198.196ZM190.496 19.05V32.45H193.496V19.05H190.496ZM190.496 32.45C190.496 33.5768 190.754 34.7286 191.586 35.5607L193.707 33.4393C193.673 33.4047 193.496 33.1899 193.496 32.45H190.496ZM191.67 35.6389C192.548 36.3908 193.761 36.6 194.946 36.6V33.6C193.999 33.6 193.679 33.4092 193.623 33.3611L191.67 35.6389ZM194.946 36.6H198.196V33.6H194.946V36.6ZM196.696 35.1V41H199.696V35.1H196.696ZM198.196 39.5H193.796V42.5H198.196V39.5ZM193.796 39.5C191.067 39.5 189.298 38.8366 188.204 37.7743C187.119 36.7197 186.446 35.0244 186.446 32.4H183.446C183.446 35.509 184.249 38.1136 186.114 39.9257C187.97 41.7301 190.626 42.5 193.796 42.5V39.5ZM186.446 32.4V19.05H183.446V32.4H186.446ZM184.946 17.55H181.646V20.55H184.946V17.55ZM183.146 19.05V13.3H180.146V19.05H183.146ZM181.646 14.8H184.946V11.8H181.646V14.8ZM186.446 13.3V6.45H183.446V13.3H186.446ZM184.946 7.95H191.996V4.95H184.946V7.95ZM190.496 6.45V13.3H193.496V6.45H190.496ZM191.996 14.8H198.196V11.8H191.996V14.8ZM196.696 13.3V19.05H199.696V13.3H196.696ZM198.196 17.55H191.996V20.55H198.196V17.55ZM203.681 8.85L202.621 9.91066L202.643 9.93275L202.666 9.9539L203.681 8.85ZM203.681 3L204.719 4.08298L204.72 4.08208L203.681 3ZM209.831 3L208.771 4.06066L208.793 4.08275L208.816 4.10389L209.831 3ZM209.831 8.85L210.869 9.93298L210.87 9.93208L209.831 8.85ZM210.231 13.3H211.731V11.8H210.231V13.3ZM210.231 41V42.5H211.731V41H210.231ZM203.231 41H201.731V42.5H203.231V41ZM203.231 13.3V11.8H201.731V13.3H203.231ZM206.781 8.5C205.888 8.5 205.228 8.23437 204.697 7.7461L202.666 9.9539C203.802 10.999 205.208 11.5 206.781 11.5V8.5ZM204.742 7.78934C204.233 7.28031 203.981 6.68272 203.981 5.9H200.981C200.981 7.45061 201.53 8.81969 202.621 9.91066L204.742 7.78934ZM203.981 5.9C203.981 5.11801 204.231 4.5504 204.719 4.08298L202.643 1.91702C201.531 2.98293 200.981 4.34865 200.981 5.9H203.981ZM204.72 4.08208C205.254 3.56958 205.906 3.3 206.781 3.3V0.299998C205.19 0.299998 203.775 0.830419 202.642 1.91792L204.72 4.08208ZM206.781 3.3C207.656 3.3 208.279 3.56871 208.771 4.06066L210.892 1.93934C209.784 0.831287 208.373 0.299998 206.781 0.299998V3.3ZM208.816 4.10389C209.33 4.57691 209.581 5.13844 209.581 5.9H212.581C212.581 4.32823 211.999 2.95642 210.847 1.8961L208.816 4.10389ZM209.581 5.9C209.581 6.66282 209.328 7.25394 208.792 7.76792L210.87 9.93208C212.001 8.84605 212.581 7.47051 212.581 5.9H209.581ZM208.793 7.76702C208.305 8.23487 207.675 8.5 206.781 8.5V11.5C208.354 11.5 209.757 10.9985 210.869 9.93298L208.793 7.76702ZM208.731 13.3V41H211.731V13.3H208.731ZM210.231 39.5H203.231V42.5H210.231V39.5ZM204.731 41V13.3H201.731V41H204.731ZM203.231 14.8H210.231V11.8H203.231V14.8ZM228.697 34.55L227.273 35.0193L228.697 39.3443L230.122 35.0193L228.697 34.55ZM235.697 13.3V11.8H234.612L234.273 12.8307L235.697 13.3ZM243.147 13.3L244.554 13.8206L245.302 11.8H243.147V13.3ZM232.897 41V42.5H233.942L234.304 41.5206L232.897 41ZM224.397 41L222.99 41.5183L223.351 42.5H224.397V41ZM214.197 13.3V11.8H212.046L212.79 13.8183L214.197 13.3ZM221.697 13.3L223.122 12.8307L222.782 11.8H221.697V13.3ZM230.122 35.0193L237.122 13.7693L234.273 12.8307L227.273 34.0807L230.122 35.0193ZM235.697 14.8H243.147V11.8H235.697V14.8ZM241.74 12.7794L231.49 40.4794L234.304 41.5206L244.554 13.8206L241.74 12.7794ZM232.897 39.5H224.397V42.5H232.897V39.5ZM225.805 40.4817L215.605 12.7817L212.79 13.8183L222.99 41.5183L225.805 40.4817ZM214.197 14.8H221.697V11.8H214.197V14.8ZM220.273 13.7693L227.273 35.0193L230.122 34.0807L223.122 12.8307L220.273 13.7693ZM272.629 29.25V30.75H273.9L274.108 29.4966L272.629 29.25ZM252.379 29.25V27.75H250.749L250.884 29.3746L252.379 29.25ZM254.479 33.95L253.464 35.0545V35.0545L254.479 33.95ZM264.579 32.3V30.8H263.646L263.233 31.6372L264.579 32.3ZM272.129 32.3L273.566 32.731L274.145 30.8H272.129V32.3ZM267.529 38.9L268.429 40.1001L268.44 40.0915L267.529 38.9ZM251.979 39.7L251.235 41.0024L251.247 41.0093L251.259 41.0161L251.979 39.7ZM247.029 34.65L245.708 35.3611L245.712 35.369L245.717 35.3768L247.029 34.65ZM247.029 19.6L245.708 18.8888L247.029 19.6ZM251.929 14.6L252.657 15.9112L251.929 14.6ZM266.229 14.55L265.508 15.8652L265.517 15.87L266.229 14.55ZM271.079 19.4L269.759 20.1124L269.766 20.125L269.773 20.1374L271.079 19.4ZM265.579 24.55V26.05H267.107L267.079 24.5222L265.579 24.55ZM263.629 20.25L262.645 21.3825L262.654 21.39L262.663 21.3974L263.629 20.25ZM254.579 20.2L255.573 21.3229L255.575 21.3211L254.579 20.2ZM252.429 24.55L250.944 24.3379L250.699 26.05H252.429V24.55ZM271.329 26.55C271.329 27.4856 271.266 28.3011 271.149 29.0034L274.108 29.4966C274.258 28.5989 274.329 27.6144 274.329 26.55H271.329ZM272.629 27.75H252.379V30.75H272.629V27.75ZM250.884 29.3746C251.075 31.6712 251.9 33.6175 253.464 35.0545L255.494 32.8455C254.591 32.0158 254.016 30.8288 253.874 29.1254L250.884 29.3746ZM253.464 35.0545C254.996 36.4622 256.884 37.15 259.029 37.15V34.15C257.574 34.15 256.429 33.7045 255.494 32.8455L253.464 35.0545ZM259.029 37.15C260.546 37.15 261.939 36.8225 263.142 36.0967C264.348 35.3685 265.267 34.2968 265.925 32.9628L263.233 31.6372C262.79 32.5365 262.235 33.1398 261.591 33.5283C260.944 33.9192 260.111 34.15 259.029 34.15V37.15ZM264.579 33.8H272.129V30.8H264.579V33.8ZM270.692 31.869C269.985 34.2252 268.64 36.1619 266.618 37.7085L268.44 40.0915C270.951 38.1715 272.672 35.7082 273.566 32.731L270.692 31.869ZM266.629 37.7C264.663 39.1744 262.21 39.95 259.179 39.95V42.95C262.748 42.95 265.861 42.0256 268.429 40.1L266.629 37.7ZM259.179 39.95C256.739 39.95 254.59 39.4185 252.699 38.3839L251.259 41.0161C253.634 42.3148 256.286 42.95 259.179 42.95V39.95ZM252.723 38.3976C250.868 37.3373 249.411 35.8557 248.341 33.9232L245.717 35.3768C247.046 37.7776 248.89 39.6627 251.235 41.0024L252.723 38.3976ZM248.35 33.9389C247.317 32.0218 246.779 29.773 246.779 27.15H243.779C243.779 30.1937 244.407 32.9448 245.708 35.3611L248.35 33.9389ZM246.779 27.15C246.779 24.4904 247.319 22.2257 248.35 20.3111L245.708 18.8888C244.406 21.3076 243.779 24.0762 243.779 27.15H246.779ZM248.35 20.3111C249.384 18.3905 250.814 16.9351 252.657 15.9112L251.2 13.2888C248.843 14.5983 247.007 16.4761 245.708 18.8888L248.35 20.3111ZM252.657 15.9112C254.505 14.8846 256.665 14.35 259.179 14.35V11.35C256.226 11.35 253.552 11.9821 251.2 13.2888L252.657 15.9112ZM259.179 14.35C261.59 14.35 263.687 14.8668 265.508 15.8652L266.95 13.2348C264.637 11.9665 262.034 11.35 259.179 11.35V14.35ZM265.517 15.87C267.359 16.8644 268.764 18.2699 269.759 20.1124L272.399 18.6876C271.127 16.3301 269.299 14.5023 266.941 13.23L265.517 15.87ZM269.773 20.1374C270.796 21.9496 271.329 24.0723 271.329 26.55H274.329C274.329 23.6277 273.695 20.9838 272.385 18.6626L269.773 20.1374ZM267.079 24.5222C267.038 22.332 266.224 20.4743 264.595 19.1026L262.663 21.3974C263.567 22.159 264.053 23.168 264.079 24.5778L267.079 24.5222ZM264.612 19.1174C263.047 17.7578 261.137 17.1 258.979 17.1V20.1C260.487 20.1 261.678 20.5422 262.645 21.3825L264.612 19.1174ZM258.979 17.1C256.91 17.1 255.08 17.7479 253.582 19.0789L255.575 21.3211C256.478 20.5188 257.581 20.1 258.979 20.1V17.1ZM253.584 19.0771C252.098 20.3932 251.25 22.1961 250.944 24.3379L253.914 24.7621C254.141 23.1706 254.726 22.0735 255.573 21.3229L253.584 19.0771ZM252.429 26.05H265.579V23.05H252.429V26.05Z" fill="white" mask="url(#path-1-outside-1_1_326)"/>
</svg>
