<svg width="470" height="200" viewBox="0 0 470 200" fill="none" xmlns="http://www.w3.org/2000/svg">
<rect width="470" height="200" fill="#333333"/>
<path d="M317.85 106.1C321.05 103.433 323.6 101.217 325.5 99.45C327.4 97.65 328.983 95.7833 330.25 93.85C331.517 91.9167 332.15 90.0167 332.15 88.15C332.15 86.45 331.75 85.1167 330.95 84.15C330.15 83.1833 328.917 82.7 327.25 82.7C325.583 82.7 324.3 83.2667 323.4 84.4C322.5 85.5 322.033 87.0167 322 88.95H315.2C315.333 84.95 316.517 81.9167 318.75 79.85C321.017 77.7833 323.883 76.75 327.35 76.75C331.15 76.75 334.067 77.7667 336.1 79.8C338.133 81.8 339.15 84.45 339.15 87.75C339.15 90.35 338.45 92.8333 337.05 95.2C335.65 97.5667 334.05 99.6333 332.25 101.4C330.45 103.133 328.1 105.233 325.2 107.7H339.95V113.5H315.25V108.3L317.85 106.1ZM344.361 95.3C344.361 89.5333 345.394 85.0167 347.461 81.75C349.561 78.4833 353.028 76.85 357.861 76.85C362.694 76.85 366.144 78.4833 368.211 81.75C370.311 85.0167 371.361 89.5333 371.361 95.3C371.361 101.1 370.311 105.65 368.211 108.95C366.144 112.25 362.694 113.9 357.861 113.9C353.028 113.9 349.561 112.25 347.461 108.95C345.394 105.65 344.361 101.1 344.361 95.3ZM364.461 95.3C364.461 92.8333 364.294 90.7667 363.961 89.1C363.661 87.4 363.028 86.0167 362.061 84.95C361.128 83.8833 359.728 83.35 357.861 83.35C355.994 83.35 354.578 83.8833 353.611 84.95C352.678 86.0167 352.044 87.4 351.711 89.1C351.411 90.7667 351.261 92.8333 351.261 95.3C351.261 97.8333 351.411 99.9667 351.711 101.7C352.011 103.4 352.644 104.783 353.611 105.85C354.578 106.883 355.994 107.4 357.861 107.4C359.728 107.4 361.144 106.883 362.111 105.85C363.078 104.783 363.711 103.4 364.011 101.7C364.311 99.9667 364.461 97.8333 364.461 95.3ZM403.635 99.25H394.185V108.95H387.585V99.25H378.135V93.15H387.585V83.45H394.185V93.15H403.635V99.25Z" fill="white"/>
<path d="M316.52 142L313.176 130.08H314.824L317.624 140.576H317.24L320.152 130.08H321.8L324.696 140.576H324.296L327.112 130.08H328.76L325.416 142H323.672L320.76 131.552H321.176L318.264 142H316.52ZM333.592 142.192C332.76 142.192 332.008 142 331.336 141.616C330.664 141.221 330.13 140.683 329.736 140C329.341 139.317 329.144 138.544 329.144 137.68C329.144 136.816 329.336 136.048 329.72 135.376C330.114 134.704 330.648 134.171 331.32 133.776C331.992 133.381 332.749 133.184 333.592 133.184C334.424 133.184 335.176 133.381 335.848 133.776C336.52 134.16 337.048 134.688 337.432 135.36C337.826 136.032 338.024 136.805 338.024 137.68C338.024 138.555 337.821 139.333 337.416 140.016C337.01 140.688 336.472 141.221 335.8 141.616C335.138 142 334.402 142.192 333.592 142.192ZM333.592 140.752C334.125 140.752 334.605 140.619 335.032 140.352C335.469 140.085 335.81 139.717 336.056 139.248C336.312 138.779 336.44 138.256 336.44 137.68C336.44 137.093 336.312 136.576 336.056 136.128C335.81 135.669 335.469 135.307 335.032 135.04C334.605 134.763 334.125 134.624 333.592 134.624C333.048 134.624 332.557 134.763 332.12 135.04C331.693 135.307 331.352 135.669 331.096 136.128C330.84 136.576 330.712 137.093 330.712 137.68C330.712 138.256 330.84 138.779 331.096 139.248C331.352 139.717 331.693 140.085 332.12 140.352C332.557 140.619 333.048 140.752 333.592 140.752ZM339.965 142V133.376H341.421V134.96L341.261 134.736C341.463 134.245 341.773 133.883 342.189 133.648C342.605 133.403 343.111 133.28 343.709 133.28H344.237V134.688H343.485C342.877 134.688 342.386 134.88 342.013 135.264C341.639 135.637 341.453 136.171 341.453 136.864V142H339.965ZM345.558 142V129.888H347.046V142H345.558ZM353.275 142.192C352.464 142.192 351.734 141.995 351.083 141.6C350.443 141.205 349.936 140.667 349.563 139.984C349.19 139.301 349.003 138.539 349.003 137.696C349.003 136.832 349.19 136.064 349.563 135.392C349.936 134.709 350.443 134.171 351.083 133.776C351.734 133.381 352.464 133.184 353.275 133.184C353.99 133.184 354.624 133.339 355.179 133.648C355.734 133.947 356.171 134.352 356.491 134.864L356.251 135.232V129.888H357.755V142H356.299V140.16L356.491 140.416C356.192 140.981 355.755 141.419 355.179 141.728C354.614 142.037 353.979 142.192 353.275 142.192ZM353.403 140.752C353.947 140.752 354.432 140.619 354.859 140.352C355.286 140.085 355.622 139.723 355.867 139.264C356.123 138.795 356.251 138.272 356.251 137.696C356.251 137.109 356.123 136.587 355.867 136.128C355.622 135.659 355.286 135.291 354.859 135.024C354.432 134.757 353.947 134.624 353.403 134.624C352.87 134.624 352.384 134.763 351.947 135.04C351.52 135.307 351.184 135.669 350.939 136.128C350.694 136.576 350.571 137.099 350.571 137.696C350.571 138.272 350.694 138.795 350.939 139.264C351.184 139.723 351.52 140.085 351.947 140.352C352.374 140.619 352.859 140.752 353.403 140.752ZM368.696 142.192C367.853 142.192 367.064 142.043 366.328 141.744C365.592 141.435 364.947 141.003 364.392 140.448C363.848 139.893 363.421 139.243 363.112 138.496C362.803 137.739 362.648 136.917 362.648 136.032C362.648 135.136 362.803 134.315 363.112 133.568C363.421 132.821 363.848 132.171 364.392 131.616C364.947 131.061 365.587 130.635 366.312 130.336C367.048 130.037 367.843 129.888 368.696 129.888C369.549 129.888 370.339 130.043 371.064 130.352C371.8 130.651 372.44 131.077 372.984 131.632C373.539 132.176 373.971 132.821 374.28 133.568C374.6 134.315 374.76 135.136 374.76 136.032C374.76 136.917 374.6 137.739 374.28 138.496C373.971 139.243 373.539 139.893 372.984 140.448C372.44 141.003 371.8 141.435 371.064 141.744C370.339 142.043 369.549 142.192 368.696 142.192ZM368.696 140.736C369.357 140.736 369.96 140.619 370.504 140.384C371.048 140.139 371.517 139.803 371.912 139.376C372.317 138.939 372.627 138.437 372.84 137.872C373.064 137.296 373.176 136.683 373.176 136.032C373.176 135.381 373.064 134.773 372.84 134.208C372.627 133.643 372.317 133.147 371.912 132.72C371.517 132.283 371.048 131.947 370.504 131.712C369.96 131.467 369.357 131.344 368.696 131.344C368.045 131.344 367.448 131.467 366.904 131.712C366.36 131.947 365.885 132.283 365.48 132.72C365.085 133.147 364.776 133.643 364.552 134.208C364.328 134.773 364.216 135.381 364.216 136.032C364.216 136.683 364.328 137.296 364.552 137.872C364.776 138.437 365.085 138.939 365.48 139.376C365.885 139.803 366.36 140.139 366.904 140.384C367.448 140.619 368.045 140.736 368.696 140.736ZM377.783 142V134.8H376.135V133.376H377.783V132.768C377.783 132.149 377.916 131.627 378.183 131.2C378.46 130.773 378.823 130.448 379.271 130.224C379.729 130 380.236 129.888 380.791 129.888C380.908 129.888 381.036 129.899 381.175 129.92C381.324 129.931 381.447 129.947 381.543 129.968V131.296C381.457 131.275 381.356 131.264 381.239 131.264C381.121 131.253 381.031 131.248 380.967 131.248C380.476 131.248 380.071 131.365 379.751 131.6C379.441 131.835 379.287 132.224 379.287 132.768V133.376H383.767V134.8H379.287V142H377.783ZM389.031 142V133.376H390.535V142H389.031ZM383.991 142V134.8H382.327V133.376H383.991V132.768C383.991 132.149 384.124 131.627 384.391 131.2C384.657 130.773 385.015 130.448 385.463 130.224C385.921 130 386.433 129.888 386.999 129.888C387.105 129.888 387.228 129.899 387.367 129.92C387.516 129.931 387.639 129.947 387.735 129.968V131.296C387.649 131.275 387.548 131.264 387.431 131.264C387.313 131.253 387.228 131.248 387.175 131.248C386.673 131.248 386.263 131.365 385.943 131.6C385.633 131.835 385.479 132.224 385.479 132.768V133.376H389.959V134.8H385.479V142H383.991ZM396.605 142.192C395.762 142.192 395.01 141.995 394.349 141.6C393.698 141.205 393.186 140.667 392.813 139.984C392.44 139.301 392.253 138.533 392.253 137.68C392.253 136.816 392.44 136.048 392.813 135.376C393.186 134.704 393.698 134.171 394.349 133.776C395.01 133.381 395.762 133.184 396.605 133.184C397.17 133.184 397.698 133.285 398.189 133.488C398.68 133.691 399.112 133.963 399.485 134.304C399.858 134.645 400.13 135.045 400.301 135.504L398.973 136.144C398.77 135.696 398.461 135.333 398.045 135.056C397.629 134.768 397.149 134.624 396.605 134.624C396.082 134.624 395.608 134.757 395.181 135.024C394.765 135.291 394.434 135.653 394.189 136.112C393.944 136.571 393.821 137.099 393.821 137.696C393.821 138.272 393.944 138.795 394.189 139.264C394.434 139.723 394.765 140.085 395.181 140.352C395.608 140.619 396.082 140.752 396.605 140.752C397.149 140.752 397.629 140.613 398.045 140.336C398.461 140.048 398.77 139.669 398.973 139.2L400.301 139.872C400.13 140.32 399.858 140.72 399.485 141.072C399.112 141.413 398.68 141.685 398.189 141.888C397.698 142.091 397.17 142.192 396.605 142.192ZM406.214 142.192C405.382 142.192 404.64 141.995 403.99 141.6C403.339 141.205 402.827 140.667 402.454 139.984C402.08 139.291 401.894 138.517 401.894 137.664C401.894 136.8 402.075 136.032 402.438 135.36C402.811 134.688 403.312 134.16 403.942 133.776C404.582 133.381 405.296 133.184 406.086 133.184C406.726 133.184 407.291 133.301 407.782 133.536C408.283 133.76 408.704 134.069 409.046 134.464C409.398 134.848 409.664 135.291 409.846 135.792C410.038 136.283 410.134 136.795 410.134 137.328C410.134 137.445 410.123 137.579 410.102 137.728C410.091 137.867 410.075 138 410.054 138.128H402.982V136.848H409.19L408.486 137.424C408.582 136.869 408.528 136.373 408.326 135.936C408.123 135.499 407.824 135.152 407.43 134.896C407.035 134.64 406.587 134.512 406.086 134.512C405.584 134.512 405.126 134.64 404.71 134.896C404.294 135.152 403.968 135.52 403.734 136C403.51 136.469 403.419 137.029 403.462 137.68C403.419 138.309 403.515 138.864 403.75 139.344C403.995 139.813 404.336 140.181 404.774 140.448C405.222 140.704 405.707 140.832 406.23 140.832C406.806 140.832 407.291 140.699 407.686 140.432C408.08 140.165 408.4 139.824 408.646 139.408L409.894 140.048C409.723 140.443 409.456 140.805 409.094 141.136C408.742 141.456 408.32 141.712 407.83 141.904C407.35 142.096 406.811 142.192 406.214 142.192Z" fill="#AAAAAA"/>
<path d="M62.75 87.15C62.9167 83.8167 64.0833 81.25 66.25 79.45C68.45 77.6167 71.3333 76.7 74.9 76.7C77.3333 76.7 79.4167 77.1333 81.15 78C82.8833 78.8333 84.1833 79.9833 85.05 81.45C85.95 82.8833 86.4 84.5167 86.4 86.35C86.4 88.45 85.85 90.2333 84.75 91.7C83.6833 93.1333 82.4 94.1 80.9 94.6V94.8C82.8333 95.4 84.3333 96.4667 85.4 98C86.5 99.5333 87.05 101.5 87.05 103.9C87.05 105.9 86.5833 107.683 85.65 109.25C84.75 110.817 83.4 112.05 81.6 112.95C79.8333 113.817 77.7 114.25 75.2 114.25C71.4333 114.25 68.3667 113.3 66 111.4C63.6333 109.5 62.3833 106.7 62.25 103H69.05C69.1167 104.633 69.6667 105.95 70.7 106.95C71.7667 107.917 73.2167 108.4 75.05 108.4C76.75 108.4 78.05 107.933 78.95 107C79.8833 106.033 80.35 104.8 80.35 103.3C80.35 101.3 79.7167 99.8667 78.45 99C77.1833 98.1333 75.2167 97.7 72.55 97.7H71.1V91.95H72.55C77.2833 91.95 79.65 90.3667 79.65 87.2C79.65 85.7667 79.2167 84.65 78.35 83.85C77.5167 83.05 76.3 82.65 74.7 82.65C73.1333 82.65 71.9167 83.0833 71.05 83.95C70.2167 84.7833 69.7333 85.85 69.6 87.15H62.75ZM92.5816 95.3C92.5816 89.5333 93.615 85.0167 95.6816 81.75C97.7816 78.4833 101.248 76.85 106.082 76.85C110.915 76.85 114.365 78.4833 116.432 81.75C118.532 85.0167 119.582 89.5333 119.582 95.3C119.582 101.1 118.532 105.65 116.432 108.95C114.365 112.25 110.915 113.9 106.082 113.9C101.248 113.9 97.7816 112.25 95.6816 108.95C93.615 105.65 92.5816 101.1 92.5816 95.3ZM112.682 95.3C112.682 92.8333 112.515 90.7667 112.182 89.1C111.882 87.4 111.248 86.0167 110.282 84.95C109.348 83.8833 107.948 83.35 106.082 83.35C104.215 83.35 102.798 83.8833 101.832 84.95C100.898 86.0167 100.265 87.4 99.9316 89.1C99.6316 90.7667 99.4816 92.8333 99.4816 95.3C99.4816 97.8333 99.6316 99.9667 99.9316 101.7C100.232 103.4 100.865 104.783 101.832 105.85C102.798 106.883 104.215 107.4 106.082 107.4C107.948 107.4 109.365 106.883 110.332 105.85C111.298 104.783 111.932 103.4 112.232 101.7C112.532 99.9667 112.682 97.8333 112.682 95.3ZM124.906 95.3C124.906 89.5333 125.939 85.0167 128.006 81.75C130.106 78.4833 133.573 76.85 138.406 76.85C143.239 76.85 146.689 78.4833 148.756 81.75C150.856 85.0167 151.906 89.5333 151.906 95.3C151.906 101.1 150.856 105.65 148.756 108.95C146.689 112.25 143.239 113.9 138.406 113.9C133.573 113.9 130.106 112.25 128.006 108.95C125.939 105.65 124.906 101.1 124.906 95.3ZM145.006 95.3C145.006 92.8333 144.839 90.7667 144.506 89.1C144.206 87.4 143.573 86.0167 142.606 84.95C141.673 83.8833 140.273 83.35 138.406 83.35C136.539 83.35 135.123 83.8833 134.156 84.95C133.223 86.0167 132.589 87.4 132.256 89.1C131.956 90.7667 131.806 92.8333 131.806 95.3C131.806 97.8333 131.956 99.9667 132.256 101.7C132.556 103.4 133.189 104.783 134.156 105.85C135.123 106.883 136.539 107.4 138.406 107.4C140.273 107.4 141.689 106.883 142.656 105.85C143.623 104.783 144.256 103.4 144.556 101.7C144.856 99.9667 145.006 97.8333 145.006 95.3ZM184.18 99.25H174.73V108.95H168.13V99.25H158.68V93.15H168.13V83.45H174.73V93.15H184.18V99.25Z" fill="white"/>
<path d="M63.52 142L60.176 130.08H61.824L64.624 140.576H64.24L67.152 130.08H68.8L71.696 140.576H71.296L74.112 130.08H75.76L72.416 142H70.672L67.76 131.552H68.176L65.264 142H63.52ZM80.5918 142.192C79.7598 142.192 79.0078 142 78.3358 141.616C77.6638 141.221 77.1304 140.683 76.7358 140C76.3411 139.317 76.1438 138.544 76.1438 137.68C76.1438 136.816 76.3358 136.048 76.7198 135.376C77.1144 134.704 77.6478 134.171 78.3198 133.776C78.9918 133.381 79.7491 133.184 80.5918 133.184C81.4238 133.184 82.1758 133.381 82.8478 133.776C83.5198 134.16 84.0478 134.688 84.4318 135.36C84.8264 136.032 85.0238 136.805 85.0238 137.68C85.0238 138.555 84.8211 139.333 84.4158 140.016C84.0104 140.688 83.4718 141.221 82.7998 141.616C82.1384 142 81.4024 142.192 80.5918 142.192ZM80.5918 140.752C81.1251 140.752 81.6051 140.619 82.0318 140.352C82.4691 140.085 82.8104 139.717 83.0558 139.248C83.3118 138.779 83.4398 138.256 83.4398 137.68C83.4398 137.093 83.3118 136.576 83.0558 136.128C82.8104 135.669 82.4691 135.307 82.0318 135.04C81.6051 134.763 81.1251 134.624 80.5918 134.624C80.0478 134.624 79.5571 134.763 79.1198 135.04C78.6931 135.307 78.3518 135.669 78.0958 136.128C77.8398 136.576 77.7118 137.093 77.7118 137.68C77.7118 138.256 77.8398 138.779 78.0958 139.248C78.3518 139.717 78.6931 140.085 79.1198 140.352C79.5571 140.619 80.0478 140.752 80.5918 140.752ZM86.9645 142V133.376H88.4205V134.96L88.2605 134.736C88.4632 134.245 88.7725 133.883 89.1885 133.648C89.6045 133.403 90.1112 133.28 90.7085 133.28H91.2365V134.688H90.4845C89.8765 134.688 89.3858 134.88 89.0125 135.264C88.6392 135.637 88.4525 136.171 88.4525 136.864V142H86.9645ZM92.5583 142V129.888H94.0463V138.192L93.4383 138.048L98.0143 133.376H99.9183L96.6063 136.848L100.142 142H98.3823L95.1503 137.328L96.0783 137.28L93.5663 139.904L94.0463 138.816V142H92.5583ZM101.48 142V133.376H102.968V142H101.48ZM101.48 132V130.08H102.968V132H101.48ZM105.277 142V133.376H106.733V135.056L106.493 134.912C106.706 134.368 107.048 133.947 107.517 133.648C107.997 133.339 108.557 133.184 109.197 133.184C109.816 133.184 110.365 133.323 110.845 133.6C111.336 133.877 111.72 134.261 111.997 134.752C112.285 135.243 112.429 135.797 112.429 136.416V142H110.925V136.896C110.925 136.416 110.84 136.011 110.669 135.68C110.498 135.349 110.253 135.093 109.933 134.912C109.624 134.72 109.266 134.624 108.861 134.624C108.456 134.624 108.093 134.72 107.773 134.912C107.464 135.093 107.218 135.355 107.037 135.696C106.856 136.027 106.765 136.427 106.765 136.896V142H105.277ZM118.67 145.52C118.062 145.52 117.497 145.424 116.974 145.232C116.462 145.04 116.02 144.773 115.646 144.432C115.284 144.101 115.006 143.712 114.814 143.264L116.206 142.624C116.356 143.029 116.638 143.371 117.054 143.648C117.481 143.936 118.014 144.08 118.654 144.08C119.145 144.08 119.588 143.984 119.982 143.792C120.388 143.611 120.708 143.333 120.942 142.96C121.177 142.597 121.294 142.155 121.294 141.632V139.696L121.566 139.984C121.268 140.571 120.836 141.019 120.27 141.328C119.716 141.637 119.102 141.792 118.43 141.792C117.62 141.792 116.894 141.605 116.254 141.232C115.614 140.848 115.113 140.331 114.75 139.68C114.388 139.019 114.206 138.288 114.206 137.488C114.206 136.677 114.388 135.947 114.75 135.296C115.113 134.645 115.609 134.133 116.238 133.76C116.878 133.376 117.604 133.184 118.414 133.184C119.086 133.184 119.694 133.339 120.238 133.648C120.793 133.947 121.236 134.363 121.566 134.896L121.342 135.296V133.376H122.798V141.632C122.798 142.379 122.622 143.045 122.27 143.632C121.918 144.219 121.428 144.677 120.798 145.008C120.18 145.349 119.47 145.52 118.67 145.52ZM118.558 140.352C119.07 140.352 119.529 140.224 119.934 139.968C120.35 139.712 120.681 139.371 120.926 138.944C121.172 138.507 121.294 138.021 121.294 137.488C121.294 136.965 121.172 136.485 120.926 136.048C120.681 135.611 120.35 135.264 119.934 135.008C119.529 134.752 119.07 134.624 118.558 134.624C118.036 134.624 117.561 134.752 117.134 135.008C116.708 135.264 116.372 135.611 116.126 136.048C115.892 136.475 115.774 136.955 115.774 137.488C115.774 138.021 115.892 138.507 116.126 138.944C116.372 139.371 116.702 139.712 117.118 139.968C117.545 140.224 118.025 140.352 118.558 140.352ZM128.047 142V130.08H132.255C133.044 130.08 133.737 130.229 134.335 130.528C134.932 130.827 135.396 131.253 135.727 131.808C136.068 132.363 136.239 133.013 136.239 133.76C136.239 134.507 136.068 135.157 135.727 135.712C135.396 136.256 134.932 136.683 134.335 136.992C133.748 137.291 133.055 137.44 132.255 137.44H129.615V142H128.047ZM129.615 136H132.303C132.783 136 133.199 135.909 133.551 135.728C133.903 135.547 134.175 135.285 134.367 134.944C134.559 134.603 134.655 134.208 134.655 133.76C134.655 133.301 134.559 132.907 134.367 132.576C134.175 132.235 133.903 131.973 133.551 131.792C133.199 131.611 132.783 131.52 132.303 131.52H129.615V136ZM141.839 142.192C141.007 142.192 140.265 141.995 139.615 141.6C138.964 141.205 138.452 140.667 138.079 139.984C137.705 139.291 137.519 138.517 137.519 137.664C137.519 136.8 137.7 136.032 138.063 135.36C138.436 134.688 138.937 134.16 139.567 133.776C140.207 133.381 140.921 133.184 141.711 133.184C142.351 133.184 142.916 133.301 143.407 133.536C143.908 133.76 144.329 134.069 144.671 134.464C145.023 134.848 145.289 135.291 145.471 135.792C145.663 136.283 145.759 136.795 145.759 137.328C145.759 137.445 145.748 137.579 145.727 137.728C145.716 137.867 145.7 138 145.679 138.128H138.607V136.848H144.815L144.111 137.424C144.207 136.869 144.153 136.373 143.951 135.936C143.748 135.499 143.449 135.152 143.055 134.896C142.66 134.64 142.212 134.512 141.711 134.512C141.209 134.512 140.751 134.64 140.335 134.896C139.919 135.152 139.593 135.52 139.359 136C139.135 136.469 139.044 137.029 139.087 137.68C139.044 138.309 139.14 138.864 139.375 139.344C139.62 139.813 139.961 140.181 140.399 140.448C140.847 140.704 141.332 140.832 141.855 140.832C142.431 140.832 142.916 140.699 143.311 140.432C143.705 140.165 144.025 139.824 144.271 139.408L145.519 140.048C145.348 140.443 145.081 140.805 144.719 141.136C144.367 141.456 143.945 141.712 143.455 141.904C142.975 142.096 142.436 142.192 141.839 142.192ZM151.795 142.192C150.963 142.192 150.211 142 149.539 141.616C148.867 141.221 148.334 140.683 147.939 140C147.544 139.317 147.347 138.544 147.347 137.68C147.347 136.816 147.539 136.048 147.923 135.376C148.318 134.704 148.851 134.171 149.523 133.776C150.195 133.381 150.952 133.184 151.795 133.184C152.627 133.184 153.379 133.381 154.051 133.776C154.723 134.16 155.251 134.688 155.635 135.36C156.03 136.032 156.227 136.805 156.227 137.68C156.227 138.555 156.024 139.333 155.619 140.016C155.214 140.688 154.675 141.221 154.003 141.616C153.342 142 152.606 142.192 151.795 142.192ZM151.795 140.752C152.328 140.752 152.808 140.619 153.235 140.352C153.672 140.085 154.014 139.717 154.259 139.248C154.515 138.779 154.643 138.256 154.643 137.68C154.643 137.093 154.515 136.576 154.259 136.128C154.014 135.669 153.672 135.307 153.235 135.04C152.808 134.763 152.328 134.624 151.795 134.624C151.251 134.624 150.76 134.763 150.323 135.04C149.896 135.307 149.555 135.669 149.299 136.128C149.043 136.576 148.915 137.093 148.915 137.68C148.915 138.256 149.043 138.779 149.299 139.248C149.555 139.717 149.896 140.085 150.323 140.352C150.76 140.619 151.251 140.752 151.795 140.752ZM158.168 145.2V133.376H159.624V135.232L159.432 134.864C159.752 134.352 160.189 133.947 160.744 133.648C161.298 133.339 161.933 133.184 162.648 133.184C163.458 133.184 164.184 133.381 164.824 133.776C165.474 134.171 165.986 134.709 166.36 135.392C166.733 136.064 166.92 136.832 166.92 137.696C166.92 138.539 166.733 139.301 166.36 139.984C165.986 140.667 165.474 141.205 164.824 141.6C164.184 141.995 163.453 142.192 162.632 142.192C161.938 142.192 161.304 142.037 160.728 141.728C160.162 141.419 159.725 140.981 159.416 140.416L159.656 140.16V145.2H158.168ZM162.52 140.752C163.064 140.752 163.549 140.619 163.976 140.352C164.402 140.085 164.733 139.723 164.968 139.264C165.213 138.795 165.336 138.272 165.336 137.696C165.336 137.099 165.213 136.576 164.968 136.128C164.733 135.669 164.402 135.307 163.976 135.04C163.549 134.763 163.064 134.624 162.52 134.624C161.976 134.624 161.485 134.757 161.048 135.024C160.621 135.291 160.28 135.659 160.024 136.128C159.778 136.587 159.656 137.109 159.656 137.696C159.656 138.272 159.778 138.795 160.024 139.264C160.28 139.723 160.621 140.085 161.048 140.352C161.485 140.619 161.976 140.752 162.52 140.752ZM168.871 142V129.888H170.359V142H168.871ZM176.636 142.192C175.804 142.192 175.062 141.995 174.412 141.6C173.761 141.205 173.249 140.667 172.876 139.984C172.502 139.291 172.316 138.517 172.316 137.664C172.316 136.8 172.497 136.032 172.86 135.36C173.233 134.688 173.734 134.16 174.364 133.776C175.004 133.381 175.718 133.184 176.508 133.184C177.148 133.184 177.713 133.301 178.204 133.536C178.705 133.76 179.126 134.069 179.468 134.464C179.82 134.848 180.086 135.291 180.268 135.792C180.46 136.283 180.556 136.795 180.556 137.328C180.556 137.445 180.545 137.579 180.524 137.728C180.513 137.867 180.497 138 180.476 138.128H173.404V136.848H179.612L178.908 137.424C179.004 136.869 178.95 136.373 178.748 135.936C178.545 135.499 178.246 135.152 177.852 134.896C177.457 134.64 177.009 134.512 176.508 134.512C176.006 134.512 175.548 134.64 175.132 134.896C174.716 135.152 174.39 135.52 174.156 136C173.932 136.469 173.841 137.029 173.884 137.68C173.841 138.309 173.937 138.864 174.172 139.344C174.417 139.813 174.758 140.181 175.196 140.448C175.644 140.704 176.129 140.832 176.652 140.832C177.228 140.832 177.713 140.699 178.108 140.432C178.502 140.165 178.822 139.824 179.068 139.408L180.316 140.048C180.145 140.443 179.878 140.805 179.516 141.136C179.164 141.456 178.742 141.712 178.252 141.904C177.772 142.096 177.233 142.192 176.636 142.192ZM185.584 142.192C184.72 142.192 183.968 141.979 183.328 141.552C182.688 141.125 182.234 140.549 181.968 139.824L183.152 139.248C183.397 139.76 183.733 140.165 184.16 140.464C184.586 140.763 185.061 140.912 185.584 140.912C186.053 140.912 186.442 140.8 186.752 140.576C187.061 140.352 187.216 140.059 187.216 139.696C187.216 139.44 187.141 139.237 186.992 139.088C186.853 138.928 186.682 138.805 186.48 138.72C186.277 138.624 186.09 138.555 185.92 138.512L184.624 138.144C183.845 137.92 183.274 137.6 182.912 137.184C182.56 136.768 182.384 136.283 182.384 135.728C182.384 135.216 182.512 134.773 182.768 134.4C183.034 134.016 183.392 133.717 183.84 133.504C184.298 133.291 184.81 133.184 185.376 133.184C186.133 133.184 186.81 133.376 187.408 133.76C188.016 134.144 188.448 134.683 188.704 135.376L187.488 135.936C187.296 135.488 187.008 135.136 186.624 134.88C186.24 134.613 185.808 134.48 185.328 134.48C184.89 134.48 184.544 134.592 184.288 134.816C184.032 135.029 183.904 135.301 183.904 135.632C183.904 135.877 183.968 136.08 184.096 136.24C184.224 136.389 184.378 136.507 184.56 136.592C184.741 136.667 184.917 136.731 185.088 136.784L186.496 137.2C187.2 137.403 187.744 137.717 188.128 138.144C188.522 138.571 188.72 139.083 188.72 139.68C188.72 140.16 188.586 140.592 188.32 140.976C188.053 141.36 187.685 141.659 187.216 141.872C186.746 142.085 186.202 142.192 185.584 142.192Z" fill="#AAAAAA"/>
</svg>
