<svg width="42" height="30" viewBox="0 0 42 30" fill="none" xmlns="http://www.w3.org/2000/svg">
<path d="M30.8594 1L28.8613 1L28.8281 1.03027L28.8174 1.04004C28.7849 1.06909 28.8084 1.04385 28.8018 1.05567C28.7632 1.12466 28.6885 1.2871 28.5381 1.69238C28.2427 2.48838 27.7327 4.00593 26.7119 7.05274L24.7129 13.0527L24.7285 21.0293C24.7408 25.0751 24.7472 27.0964 24.7715 28.1367C24.7808 28.5347 24.7956 28.7579 24.8066 28.8838C24.81 28.8872 24.8129 28.892 24.8164 28.8955C24.82 28.8991 24.8245 28.9018 24.8281 28.9053C24.9561 28.9164 25.184 28.9314 25.5928 28.9404C26.6485 28.9636 28.6997 28.9674 32.8057 28.9756C36.8617 28.9838 38.916 28.9879 39.9961 28.9697C40.5428 28.9605 40.7955 28.945 40.9209 28.9297C40.9242 28.9268 40.9281 28.9235 40.9316 28.9199C40.9378 28.9137 40.9422 28.9073 40.9463 28.9023C40.9467 28.8994 40.9468 28.8959 40.9473 28.8926C40.9625 28.7706 40.978 28.5236 40.9873 27.9805C41.0056 26.9119 41.0014 24.872 40.9932 20.8154C40.9808 16.7329 40.9745 14.6932 40.9502 13.6436C40.9408 13.2399 40.9272 13.0139 40.916 12.8867C40.9126 12.8832 40.9088 12.8795 40.9053 12.876C40.896 12.8668 40.8868 12.858 40.8779 12.8496C40.8337 12.8452 40.768 12.8371 40.6729 12.832C40.22 12.808 39.3702 12.7995 37.6533 12.7871L37.6543 12.7861L34.1338 12.7627L33.1455 12.7559L33.1406 11.7676L33.1162 6.31543C33.1039 3.5819 33.0982 2.24114 33.0732 1.54297C33.0635 1.27082 33.0503 1.13426 33.042 1.06836C33.0385 1.0629 33.0354 1.05763 33.0322 1.05274C32.8253 1.0196 32.4674 1.00603 31.7549 1.00195L30.8594 1Z" stroke="#E3B27D" stroke-width="2"/>
<path d="M7.2525 1.01563C5.93517 1.00359 5.34831 1.00819 5.04547 1.04785L5.04449 1.04981C5.0106 1.13807 4.96278 1.26575 4.90289 1.43164C4.7835 1.76239 4.61975 2.22746 4.4234 2.79395C4.03099 3.92607 3.5116 5.45367 2.95856 7.10254L0.999574 12.9658L0.999575 20.9102C0.999575 24.9023 0.999807 26.918 1.02008 27.9785C1.03039 28.5177 1.0455 28.7659 1.0611 28.8896C1.06173 28.8947 1.06248 28.8992 1.06305 28.9033C1.07158 28.9175 1.08286 28.9288 1.09821 28.9375C1.10256 28.9381 1.10749 28.9388 1.11286 28.9395C1.23687 28.955 1.48532 28.9692 2.02594 28.9795C3.08948 28.9997 5.11273 28.999 9.1236 28.999C12.4192 28.9949 14.4617 28.9899 15.7047 28.9736C16.328 28.9655 16.7373 28.9547 16.9986 28.9414C17.0668 28.9379 17.1206 28.9319 17.1627 28.9287C17.1812 28.9116 17.2024 28.8929 17.2213 28.8701C17.2402 28.8472 17.2537 28.8255 17.2642 28.8086C17.2646 28.7928 17.2648 28.7751 17.2652 28.7559C17.2676 28.6364 17.269 28.4652 17.2711 28.2461C17.2751 27.8083 17.2788 27.1904 17.2808 26.4365C17.2849 24.9296 17.2849 22.886 17.2808 20.668C17.2685 16.659 17.2622 14.6569 17.2379 13.626C17.2286 13.2321 17.2146 13.0112 17.2037 12.8867L17.1666 12.8496C17.1213 12.8451 17.0535 12.8372 16.9547 12.832C16.7249 12.82 16.3945 12.8123 15.9039 12.8057L13.8922 12.7881L10.3316 12.7627L9.34137 12.7559L9.33844 11.7656L9.32184 6.2168L9.29938 1.07813L9.27985 1.06055L9.27008 1.05078L9.25739 1.03613L7.25153 1.0166L7.2525 1.01563Z" stroke="#E3B27D" stroke-width="2"/>
</svg>
