<svg width="184" height="146" viewBox="0 0 184 146" fill="none" xmlns="http://www.w3.org/2000/svg">
<path d="M45.8986 47.6304L16.8001 30.8304L33.6001 1.73193C49.6851 11.0186 55.1852 31.5454 45.8986 47.6304Z" fill="#E3B27D"/>
<path d="M16.8001 30.8303L45.8986 47.6303L29.0986 76.7288C13.0136 67.4421 7.5601 46.8345 16.8001 30.8303Z" fill="#E3B27D"/>
<path d="M74.997 64.4304L45.8986 47.6304L29.0986 76.7288C45.1835 86.0155 65.757 80.4345 74.997 64.4304Z" fill="#E3B27D"/>
<path d="M45.8985 47.6304L74.997 64.4304L91.797 35.332C75.712 26.0453 55.1852 31.5455 45.8985 47.6304Z" fill="#E3B27D"/>
<path d="M104.095 81.2305L74.997 64.4305L91.797 35.332C107.882 44.6187 113.382 65.1455 104.095 81.2305Z" fill="#E3B27D"/>
<path d="M133.194 98.0304L162.292 114.83L145.492 143.929C129.407 134.642 123.954 114.035 133.194 98.0304Z" fill="#E3B27D"/>
<path d="M162.292 114.83L133.194 98.0303L149.994 68.9319C166.079 78.2186 171.579 98.7454 162.292 114.83Z" fill="#E3B27D"/>
<path d="M104.095 81.2304L133.194 98.0304L149.994 68.932C133.909 59.6453 113.382 65.1454 104.095 81.2304Z" fill="#E3B27D"/>
<path d="M133.194 98.0303L104.095 81.2303L87.2955 110.329C103.38 119.615 123.954 114.034 133.194 98.0303Z" fill="#E3B27D"/>
<path d="M74.997 64.4304L104.095 81.2304L87.2955 110.329C71.2105 101.042 65.757 80.4346 74.997 64.4304Z" fill="#E3B27D"/>
<path d="M50.3627 47.8985C59.6493 31.8135 54.1492 11.2867 38.0642 2L21.2642 31.0985" stroke="white"/>
<path d="M21.2642 31.0984C12.0242 47.1025 17.4777 67.7102 33.5627 76.9968" stroke="white"/>
<path d="M79.4611 64.6984C70.2211 80.7026 49.6476 86.2836 33.5627 76.9969" stroke="white"/>
<path d="M50.3627 47.8985C59.6493 31.8135 80.1761 26.3134 96.2611 35.6" stroke="white"/>
<path d="M108.56 81.4985C117.846 65.4136 112.346 44.8868 96.2611 35.6001" stroke="white"/>
<path d="M137.658 98.2985C128.418 114.303 133.871 134.91 149.956 144.197L166.756 115.098" stroke="white"/>
<path d="M166.756 115.098C176.043 99.0134 170.543 78.4866 154.458 69.2" stroke="white"/>
<path d="M108.56 81.4985C117.846 65.4135 138.373 59.9134 154.458 69.2" stroke="white"/>
<path d="M137.658 98.2984C128.418 114.303 107.845 119.884 91.7596 110.597" stroke="white"/>
<path d="M79.4611 64.6985C70.2211 80.7026 75.6746 101.31 91.7596 110.597" stroke="white"/>
</svg>
