<svg width="63" height="61" viewBox="0 0 63 61" fill="none" xmlns="http://www.w3.org/2000/svg">
<path d="M57.6923 46.5771C57.6923 54.5579 51.25 61.0002 43.2692 61.0002C35.2885 61.0002 28.8461 54.5579 28.8461 46.5771C28.8461 38.5963 22.4038 32.154 14.4231 32.154C6.44231 32.154 0 25.7117 0 17.7309C0 9.75017 6.44231 3.30786 14.4231 3.30786C22.4038 3.30786 28.8461 9.75017 28.8461 17.7309C28.8461 25.7117 35.2885 32.154 43.2692 32.154C51.25 32.154 57.6923 38.5963 57.6923 46.5771Z" fill="#E3B27D"/>
<path d="M62.3077 44.2692C62.3077 52.25 55.8654 58.6923 47.8847 58.6923C39.9039 58.6923 33.4616 52.25 33.4616 44.2692C33.4616 36.2885 27.0193 29.8461 19.0385 29.8461C11.0578 29.8461 4.61545 23.4038 4.61545 15.4231C4.61545 7.44231 11.0578 1 19.0385 1C27.0193 1 33.4616 7.44231 33.4616 15.4231C33.4616 23.4038 39.9039 29.8461 47.8847 29.8461C55.8654 29.8461 62.3077 36.2885 62.3077 44.2692Z" stroke="white" stroke-miterlimit="10"/>
</svg>
